<svg xmlns="http://www.w3.org/2000/svg" viewBox="0 0 261.58 261.58"><defs><style>.cls-1{fill:#f6f6f6;}.cls-2{fill:#f3941d;}</style></defs><g id="Layer_2" data-name="Layer 2"><g id="Livello_1" data-name="Livello 1"><circle class="cls-1" cx="130.79" cy="130.79" r="130.79"/><path class="cls-2" d="M129.54,119.1a46.09,46.09,0,0,0,33.68-14,46.09,46.09,0,0,0,13.95-33.67,46.09,46.09,0,0,0-14-33.67,47.61,47.61,0,0,0-67.34,0,46.08,46.08,0,0,0-14,33.67,46,46,0,0,0,14,33.67A46.09,46.09,0,0,0,129.54,119.1ZM104.07,48c7.1-8.43,15.43-12.52,25.47-12.52S147.92,39.53,155,48s10.56,18.31,10.56,30.22S162.13,100,155,108.4s-15.44,12.53-25.48,12.53-18.37-4.1-25.47-12.53S93.51,90.09,93.51,78.18,97,56.39,104.07,48Z"/><path class="cls-2" d="M212.87,175.89a119.8,119.8,0,0,0-1.6-12.49,99.09,99.09,0,0,0-3.07-12.56A62,62,0,0,0,203,139.12,44.49,44.49,0,0,0,195.25,129a34.54,34.54,0,0,0-11.19-7,38.74,38.74,0,0,0-14.28-2.58c-2,0-4,.83-7.74,3.28-2.32,1.52-5,3.27-8.06,5.2a46.26,46.26,0,0,1-10.43,4.6,40.58,40.58,0,0,1-25.53,0,46.16,46.16,0,0,1-10.42-4.6c-3-1.91-5.72-3.66-8.07-5.2-3.77-2.45-5.72-3.28-7.74-3.28A38.58,38.58,0,0,0,77.51,122a34.3,34.3,0,0,0-11.18,7,44.46,44.46,0,0,0-7.79,10.15,62.58,62.58,0,0,0-5.16,11.72,97.41,97.41,0,0,0-3.07,12.56,113.89,113.89,0,0,0-1.6,12.5c-.27,3.77-.4,7.7-.4,11.67,0,10.32,3.28,18.68,9.75,24.84s14.85,9.16,25.13,9.16h95.2c10.28,0,18.74-3.08,25.13-9.16s9.75-14.52,9.75-24.84C213.27,183.59,213.14,179.66,212.87,175.89ZM195.53,204c-4.22,4-9.83,6-17.14,6H83.19c-7.31,0-12.92-2-17.14-6s-6.15-9.33-6.15-16.45c0-3.7.12-7.36.36-10.87a106.76,106.76,0,0,1,1.45-11.26,88,88,0,0,1,2.7-11.07,50.44,50.44,0,0,1,4.21-9.53,32.39,32.39,0,0,1,5.72-7.49,22.62,22.62,0,0,1,7.44-4.63A26.71,26.71,0,0,1,90.9,131c.41.21,1.13.63,2.3,1.39,2.39,1.55,5.13,3.32,8.17,5.26a57.51,57.51,0,0,0,13.09,5.85,52,52,0,0,0,32.65,0,57.4,57.4,0,0,0,13.1-5.85c3.11-2,5.78-3.71,8.16-5.26,1.17-.76,1.89-1.18,2.3-1.39a26.72,26.72,0,0,1,9.13,1.76,22.73,22.73,0,0,1,7.44,4.63,32.51,32.51,0,0,1,5.72,7.5,50.3,50.3,0,0,1,4.2,9.52,88.37,88.37,0,0,1,2.71,11.07,104.35,104.35,0,0,1,1.44,11.26h0c.25,3.5.37,7.16.37,10.87C201.68,194.7,199.67,200.07,195.53,204Z"/></g></g></svg>