<?xml version="1.0" encoding="UTF-8"?>
<svg width="48px" height="48px" viewBox="0 0 48 48" version="1.1" xmlns="http://www.w3.org/2000/svg" xmlns:xlink="http://www.w3.org/1999/xlink">
    <!-- Generator: Sketch 50.2 (55047) - http://www.bohemiancoding.com/sketch -->
    <title>multicontent/multicolumn-selected</title>
    <desc>Created with Sketch.</desc>
    <defs></defs>
    <g id="multicontent/multicolumn-selected" stroke="none" stroke-width="1" fill="none" fill-rule="evenodd">
        <g id="Page-1" transform="translate(7.000000, 8.000000)" fill="#23598E">
            <path d="M3.015,29.75 L13.015,29.75 L13.015,3.0825 L3.015,3.0825 L3.015,29.75 Z M14.265,0.5825 L1.765,0.5825 C1.07375,0.5825 0.515,1.14125 0.515,1.8325 L0.515,31 C0.515,31.69125 1.07375,32.25 1.765,32.25 L14.265,32.25 C14.955,32.25 15.515,31.69125 15.515,31 L15.515,1.8325 C15.515,1.14125 14.955,0.5825 14.265,0.5825 Z" id="Fill-1"></path>
            <path d="M20.515,29.75 L30.515,29.75 L30.515,3.0825 L20.515,3.0825 L20.515,29.75 Z M31.765,0.5825 L19.265,0.5825 C18.57375,0.5825 18.015,1.14125 18.015,1.8325 L18.015,31 C18.015,31.69125 18.57375,32.25 19.265,32.25 L31.765,32.25 C32.455,32.25 33.015,31.69125 33.015,31 L33.015,1.8325 C33.015,1.14125 32.455,0.5825 31.765,0.5825 Z" id="Fill-3"></path>
        </g>
    </g>
</svg>