<?xml version="1.0" encoding="UTF-8"?>
<svg width="24px" height="24px" viewBox="0 0 24 24" version="1.1" xmlns="http://www.w3.org/2000/svg" xmlns:xlink="http://www.w3.org/1999/xlink">
    <!-- Generator: Sketch 50.2 (55047) - http://www.bohemiancoding.com/sketch -->
    <title>ic/menu/copy</title>
    <desc>Created with Sketch.</desc>
    <defs>
        <polygon id="path-1" points="0 24 24 24 24 0 0 0"></polygon>
    </defs>
    <g id="ic/menu/copy" stroke="none" stroke-width="1" fill="none" fill-rule="evenodd">
        <g id="Page-1">
            <path d="M21.7715,21.7715 L21.7715,7.1145 L16.8855,7.1145 L16.8855,12.4075 C16.8855,12.7465 16.7675,13.0355 16.5295,13.2725 C16.2925,13.5095 16.0035,13.6275 15.6645,13.6275 L10.3715,13.6275 L10.3715,21.7715 L21.7715,21.7715 Z M9.6075,11.5425 L13.6285,7.5215 L13.6285,2.2285 L8.7425,2.2285 L8.7425,7.5215 C8.7425,7.8615 8.6245,8.1495 8.3865,8.3865 C8.1495,8.6245 7.8605,8.7435 7.5215,8.7435 L2.2285,8.7435 L2.2285,16.8855 L8.7425,16.8855 L8.7425,13.6275 C8.7425,13.2895 8.8275,12.9165 8.9975,12.5085 C9.1675,12.1015 9.3705,11.7795 9.6075,11.5425 Z M7.1145,3.3095 L3.3105,7.1145 L7.1145,7.1145 L7.1145,3.3095 Z M15.2575,8.1955 L11.4535,12.0005 L15.2575,12.0005 L15.2575,8.1955 Z M22.1785,5.4855 C22.5175,5.4855 22.8065,5.6045 23.0435,5.8415 C23.2815,6.0805 23.4005,6.3685 23.4005,6.7075 L23.4005,22.1785 C23.4005,22.5185 23.2815,22.8065 23.0435,23.0435 C22.8065,23.2815 22.5175,23.4005 22.1785,23.4005 L9.9645,23.4005 C9.6255,23.4005 9.3365,23.2815 9.0995,23.0435 C8.8615,22.8065 8.7425,22.5185 8.7425,22.1785 L8.7425,18.5145 L1.8215,18.5145 C1.4815,18.5145 1.1935,18.3955 0.9565,18.1585 C0.7185,17.9195 0.6005,17.6315 0.6005,17.2925 L0.6005,8.7435 C0.6005,8.4035 0.6855,8.0305 0.8545,7.6235 C1.0245,7.2155 1.2285,6.8935 1.4655,6.6565 L6.6565,1.4655 C6.8945,1.2275 7.2165,1.0245 7.6235,0.8545 C8.0305,0.6845 8.4035,0.5995 8.7425,0.5995 L14.0355,0.5995 C14.3755,0.5995 14.6635,0.7185 14.9005,0.9565 C15.1385,1.1935 15.2575,1.4815 15.2575,1.8215 L15.2575,5.9955 C15.8345,5.6555 16.3765,5.4855 16.8855,5.4855 L22.1785,5.4855 Z" id="Fill-1" fill-opacity="0.8" fill="#23598E"></path>
            <mask id="mask-2" fill="white">
                <use xlink:href="#path-1"></use>
            </mask>
            <g id="Clip-4"></g>
        </g>
    </g>
</svg>