<?xml version="1.0" encoding="UTF-8"?>
<svg width="24px" height="24px" viewBox="0 0 24 24" version="1.1" xmlns="http://www.w3.org/2000/svg" xmlns:xlink="http://www.w3.org/1999/xlink">
    <!-- Generator: Sketch 50.2 (55047) - http://www.bohemiancoding.com/sketch -->
    <title>ic/menu/css</title>
    <desc>Created with Sketch.</desc>
    <defs>
        <polygon id="path-1" points="0 24 24 24 24 0 0 0"></polygon>
    </defs>
    <g id="ic/menu/css" stroke="none" stroke-width="1" fill="none" fill-rule="evenodd">
        <g id="Page-1">
            <path d="M9.5791,13.7578 C9.9101,14.4038 10.3631,14.9548 10.9351,15.4138 C11.5091,15.8718 12.1481,16.1958 12.8521,16.3818 L12.8651,17.2858 C12.8991,19.0948 12.3501,20.5688 11.2161,21.7058 C10.0821,22.8438 8.6021,23.4128 6.7771,23.4128 C5.7321,23.4128 4.8071,23.2158 4.0001,22.8208 C3.1931,22.4258 2.5461,21.8838 2.0581,21.1958 C1.5691,20.5088 1.2021,19.7318 0.9561,18.8648 C0.7101,17.9988 0.5871,17.0658 0.5871,16.0628 C0.6461,16.1058 0.8191,16.2328 1.1081,16.4458 C1.3971,16.6568 1.6611,16.8468 1.8981,17.0118 C2.1371,17.1778 2.3871,17.3328 2.6501,17.4778 C2.9131,17.6208 3.1091,17.6938 3.2351,17.6938 C3.5841,17.6938 3.8171,17.5358 3.9361,17.2218 C4.1481,16.6618 4.3921,16.1848 4.6691,15.7888 C4.9441,15.3948 5.2391,15.0708 5.5541,14.8208 C5.8681,14.5698 6.2421,14.3688 6.6751,14.2158 C7.1081,14.0638 7.5461,13.9548 7.9871,13.8918 C8.4281,13.8278 8.9601,13.7828 9.5791,13.7578 M21.1571,0.5868 C21.7521,0.5868 22.2721,0.7838 22.7181,1.1798 C23.1641,1.5738 23.3871,2.0698 23.3871,2.6638 C23.3871,3.1978 23.1951,3.8398 22.8131,4.5868 C19.9941,9.9278 18.0191,13.1208 16.8911,14.1658 C16.0671,14.9378 15.1411,15.3238 14.1131,15.3238 C13.0441,15.3238 12.1251,14.9318 11.3561,14.1468 C10.5881,13.3618 10.2031,12.4288 10.2031,11.3508 C10.2031,10.2638 10.5941,9.3628 11.3751,8.6508 L19.5021,1.2758 C20.0031,0.8168 20.5551,0.5868 21.1571,0.5868" id="Fill-1" fill-opacity="0.8" fill="#23598E"></path>
            <mask id="mask-2" fill="white">
                <use xlink:href="#path-1"></use>
            </mask>
            <g id="Clip-4"></g>
        </g>
    </g>
</svg>