<?xml version="1.0" encoding="UTF-8"?>
<svg width="24px" height="24px" viewBox="0 0 24 24" version="1.1" xmlns="http://www.w3.org/2000/svg" xmlns:xlink="http://www.w3.org/1999/xlink">
    <!-- Generator: Sketch 50.2 (55047) - http://www.bohemiancoding.com/sketch -->
    <title>ic/menu/cut</title>
    <desc>Created with Sketch.</desc>
    <defs>
        <polygon id="path-1" points="0 24 24 24 24 0 0 0"></polygon>
    </defs>
    <g id="ic/menu/cut" stroke="none" stroke-width="1" fill="none" fill-rule="evenodd">
        <g id="Page-1">
            <path d="M11.4375,12.75 C11.4375,13.061 11.6895,13.312 11.9995,13.312 C12.3105,13.312 12.5625,13.061 12.5625,12.75 C12.5625,12.439 12.3105,12.188 11.9995,12.188 C11.6895,12.188 11.4375,12.439 11.4375,12.75 Z M16.4995,18 C16.4995,18.827 17.1725,19.5 17.9995,19.5 C18.8275,19.5 19.5005,18.827 19.5005,18 C19.5005,17.173 18.8275,16.5 17.9995,16.5 C17.1725,16.5 16.4995,17.173 16.4995,18 Z M4.5005,18 C4.5005,18.827 5.1725,19.5 6.0005,19.5 C6.8275,19.5 7.4995,18.827 7.4995,18 C7.4995,17.173 6.8275,16.5 6.0005,16.5 C5.1725,16.5 4.5005,17.173 4.5005,18 Z M19.8005,1.665 C20.0205,1.445 20.3765,1.445 20.5965,1.665 C22.1345,3.203 22.1345,5.696 20.5965,7.233 L15.1825,12.648 L16.3465,13.813 C16.8595,13.611 17.4165,13.5 17.9995,13.5 C20.4855,13.5 22.5005,15.515 22.5005,18 C22.5005,20.485 20.4855,22.5 17.9995,22.5 C15.5145,22.5 13.5005,20.485 13.5005,18 C13.5005,17.787 13.5155,17.578 13.5425,17.374 L11.9995,15.83 L10.4575,17.374 C10.4845,17.578 10.5005,17.787 10.5005,18 C10.5005,20.485 8.4855,22.5 6.0005,22.5 C3.5145,22.5 1.4995,20.485 1.4995,18 C1.4995,15.515 3.5145,13.5 6.0005,13.5 C6.5835,13.5 7.1405,13.611 7.6535,13.813 L8.8175,12.648 L3.4035,7.233 C1.8655,5.696 1.8655,3.203 3.4035,1.665 C3.6235,1.445 3.9795,1.445 4.1995,1.665 L11.9995,9.466 L19.8005,1.665 Z" id="Fill-1" fill-opacity="0.8" fill="#23598E"></path>
            <mask id="mask-2" fill="white">
                <use xlink:href="#path-1"></use>
            </mask>
            <g id="Clip-4"></g>
        </g>
    </g>
</svg>