<?xml version="1.0" encoding="UTF-8"?>
<svg width="24px" height="24px" viewBox="0 0 24 24" version="1.1" xmlns="http://www.w3.org/2000/svg" xmlns:xlink="http://www.w3.org/1999/xlink">
    <!-- Generator: Sketch 50.2 (55047) - http://www.bohemiancoding.com/sketch -->
    <title>ic/menu/folder</title>
    <desc>Created with Sketch.</desc>
    <defs>
        <polygon id="path-1" points="0 24 24 24 24 0 0 0"></polygon>
    </defs>
    <g id="ic/menu/folder" stroke="none" stroke-width="1" fill="none" fill-rule="evenodd">
        <g id="Page-1">
            <path d="M20.6504,18.96 L3.5134,18.96 C3.2124,18.96 2.9614,18.856 2.7474,18.643 C2.5364,18.433 2.4334,18.183 2.4334,17.879 L2.4334,4.352 C2.4334,4.049 2.5364,3.798 2.7464,3.587 C2.9604,3.375 3.2114,3.272 3.5134,3.272 L8.0224,3.272 C8.3254,3.272 8.5764,3.374 8.7874,3.585 C8.9994,3.797 9.1014,4.048 9.1014,4.352 L9.1014,5.252 C9.1014,5.703 9.2614,6.092 9.5764,6.405 C9.8914,6.72 10.2794,6.88 10.7284,6.88 L20.6504,6.88 C20.9534,6.88 21.2034,6.983 21.4144,7.193 C21.6274,7.407 21.7304,7.657 21.7304,7.958 L21.7304,17.879 C21.7304,18.183 21.6284,18.432 21.4144,18.646 C21.2034,18.856 20.9534,18.96 20.6504,18.96 M22.6464,5.962 C22.0864,5.4 21.4324,5.127 20.6504,5.127 L10.8554,5.127 L10.8554,4.352 C10.8554,3.57 10.5814,2.917 10.0194,2.355 C9.4574,1.792 8.8034,1.519 8.0224,1.519 L3.5134,1.519 C2.7314,1.519 2.0784,1.792 1.5184,2.355 C0.9554,2.916 0.6814,3.569 0.6814,4.352 L0.6814,17.879 C0.6814,18.661 0.9554,19.314 1.5174,19.875 C2.0784,20.438 2.7314,20.711 3.5134,20.711 L20.6504,20.711 C21.4324,20.711 22.0854,20.438 22.6464,19.875 C23.2094,19.314 23.4824,18.661 23.4824,17.879 L23.4824,7.958 C23.4824,7.177 23.2094,6.523 22.6464,5.962" id="Fill-1" fill-opacity="0.8" fill="#23598E"></path>
            <mask id="mask-2" fill="white">
                <use xlink:href="#path-1"></use>
            </mask>
            <g id="Clip-4"></g>
        </g>
    </g>
</svg>