<?xml version="1.0" encoding="UTF-8"?>
<svg width="24px" height="24px" viewBox="0 0 24 24" version="1.1" xmlns="http://www.w3.org/2000/svg" xmlns:xlink="http://www.w3.org/1999/xlink">
    <!-- Generator: Sketch 50.2 (55047) - http://www.bohemiancoding.com/sketch -->
    <title>ic/menu/link</title>
    <desc>Created with Sketch.</desc>
    <defs>
        <polygon id="path-1" points="0 24 24 24 24 0 0 0"></polygon>
    </defs>
    <g id="ic/menu/link" stroke="none" stroke-width="1" fill="none" fill-rule="evenodd">
        <g id="Page-1">
            <path d="M23.4004,15.6592 L23.4004,20.1382 C23.4004,20.3242 23.3154,20.4512 23.1454,20.5182 C23.0784,20.5362 23.0274,20.5452 22.9934,20.5452 C22.8914,20.5452 22.7934,20.5062 22.7004,20.4302 L21.5164,19.2472 C20.5074,20.4602 19.1564,21.4202 17.4644,22.1292 C15.7724,22.8372 13.9514,23.1902 12.0004,23.1902 C10.0484,23.1902 8.2274,22.8372 6.5354,22.1292 C4.8434,21.4202 3.4924,20.4602 2.4834,19.2472 L1.2994,20.4302 C1.2234,20.5062 1.1264,20.5452 1.0074,20.5452 C0.9734,20.5452 0.9224,20.5362 0.8544,20.5182 C0.6854,20.4512 0.6004,20.3242 0.6004,20.1382 L0.6004,15.6592 C0.6004,15.5402 0.6384,15.4422 0.7144,15.3662 C0.7914,15.2902 0.8884,15.2512 1.0074,15.2512 L5.4854,15.2512 C5.6724,15.2512 5.7994,15.3372 5.8674,15.5062 C5.9354,15.6672 5.9054,15.8162 5.7784,15.9512 L4.5054,17.2232 C5.0744,17.9962 5.8784,18.6462 6.9174,19.1772 C7.9564,19.7072 9.1084,20.0572 10.3714,20.2262 L10.3714,11.9952 L7.9284,11.9952 C7.7084,11.9952 7.5174,11.9142 7.3564,11.7532 C7.1944,11.5922 7.1144,11.4002 7.1144,11.1802 L7.1144,9.5522 C7.1144,9.3312 7.1944,9.1392 7.3564,8.9792 C7.5174,8.8172 7.7084,8.7372 7.9284,8.7372 L10.3714,8.7372 L10.3714,6.6642 C9.8794,6.3762 9.4854,5.9832 9.1884,5.4862 C8.8914,4.9902 8.7424,4.4452 8.7424,3.8512 C8.7424,2.9522 9.0614,2.1842 9.6974,1.5492 C10.3334,0.9122 11.1014,0.5952 12.0004,0.5952 C12.8994,0.5952 13.6664,0.9122 14.3024,1.5492 C14.9394,2.1842 15.2564,2.9522 15.2564,3.8512 C15.2564,4.4452 15.1084,4.9902 14.8114,5.4862 C14.5144,5.9832 14.1214,6.3762 13.6294,6.6642 L13.6294,8.7372 L16.0714,8.7372 C16.2914,8.7372 16.4824,8.8172 16.6444,8.9792 C16.8044,9.1392 16.8854,9.3312 16.8854,9.5522 L16.8854,11.1802 C16.8854,11.4002 16.8044,11.5922 16.6444,11.7532 C16.4824,11.9142 16.2914,11.9952 16.0714,11.9952 L13.6294,11.9952 L13.6294,20.2262 C14.8924,20.0572 16.0444,19.7072 17.0824,19.1772 C18.1224,18.6462 18.9254,17.9962 19.4944,17.2232 L18.2214,15.9512 C18.0944,15.8162 18.0644,15.6672 18.1324,15.5062 C18.2004,15.3372 18.3284,15.2512 18.5144,15.2512 L22.9934,15.2512 C23.1114,15.2512 23.2094,15.2902 23.2854,15.3662 C23.3614,15.4422 23.4004,15.5402 23.4004,15.6592 M12.8144,3.8512 C12.8144,3.6312 12.7334,3.4402 12.5724,3.2792 C12.4114,3.1182 12.2204,3.0372 12.0004,3.0372 C11.7794,3.0372 11.5884,3.1182 11.4274,3.2792 C11.2664,3.4402 11.1854,3.6312 11.1854,3.8512 C11.1854,4.0722 11.2664,4.2632 11.4274,4.4252 C11.5884,4.5862 11.7794,4.6662 12.0004,4.6662 C12.2204,4.6662 12.4114,4.5862 12.5724,4.4252 C12.7334,4.2632 12.8144,4.0722 12.8144,3.8512" id="Fill-1" fill-opacity="0.8" fill="#23598E"></path>
            <mask id="mask-2" fill="white">
                <use xlink:href="#path-1"></use>
            </mask>
            <g id="Clip-4"></g>
        </g>
    </g>
</svg>