<?xml version="1.0" encoding="UTF-8"?>
<svg width="24px" height="24px" viewBox="0 0 24 24" version="1.1" xmlns="http://www.w3.org/2000/svg" xmlns:xlink="http://www.w3.org/1999/xlink">
    <!-- Generator: Sketch 50.2 (55047) - http://www.bohemiancoding.com/sketch -->
    <title>ic/menu/move-top</title>
    <desc>Created with Sketch.</desc>
    <defs>
        <polygon id="path-1" points="0 24 24 24 24 0 0 0"></polygon>
    </defs>
    <g id="ic/menu/move-top" stroke="none" stroke-width="1" fill="none" fill-rule="evenodd">
        <g id="Page-1">
            <path d="M7.29,11.2529 C7.223,11.0919 7.243,10.9429 7.353,10.8089 L11.794,5.9359 C11.879,5.8519 11.976,5.8089 12.086,5.8089 C12.205,5.8089 12.307,5.8519 12.391,5.9359 L16.895,10.8089 C17.006,10.9429 17.026,11.0919 16.959,11.2529 C16.883,11.4129 16.76,11.4939 16.592,11.4939 L13.749,11.4939 L13.749,23.0259 C13.749,23.1449 13.71,23.2419 13.634,23.3169 C13.559,23.3939 13.461,23.4319 13.343,23.4319 L10.906,23.4319 C10.788,23.4319 10.69,23.3939 10.614,23.3169 C10.538,23.2419 10.5,23.1449 10.5,23.0259 L10.5,11.4939 L7.657,11.4939 C7.48,11.4939 7.357,11.4129 7.29,11.2529" id="Fill-1" fill-opacity="0.8" fill="#23598E"></path>
            <path d="M4.4346,3.7666 C4.5096,3.8426 4.6076,3.8806 4.7246,3.8806 L19.4026,3.8806 C19.5206,3.8806 19.6186,3.8426 19.6936,3.7666 C19.7706,3.6906 19.8076,3.5926 19.8076,3.4746 L19.8076,1.0376 C19.8076,0.9186 19.7706,0.8226 19.6936,0.7456 C19.6186,0.6706 19.5206,0.6316 19.4026,0.6316 L4.7246,0.6316 C4.6076,0.6316 4.5096,0.6696 4.4346,0.7466 C4.3576,0.8226 4.3206,0.9196 4.3206,1.0386 L4.3206,3.4756 C4.3206,3.5936 4.3576,3.6906 4.4346,3.7666" id="Fill-3" fill-opacity="0.8" fill="#23598E"></path>
            <mask id="mask-2" fill="white">
                <use xlink:href="#path-1"></use>
            </mask>
            <g id="Clip-6"></g>
        </g>
    </g>
</svg>