<?xml version="1.0" encoding="UTF-8"?>
<svg width="24px" height="24px" viewBox="0 0 24 24" version="1.1" xmlns="http://www.w3.org/2000/svg" xmlns:xlink="http://www.w3.org/1999/xlink">
    <!-- Generator: Sketch 50.2 (55047) - http://www.bohemiancoding.com/sketch -->
    <title>ic/menu/move-bottom</title>
    <desc>Created with Sketch.</desc>
    <defs>
        <polygon id="path-1" points="0 24 24 24 24 0 0 0"></polygon>
    </defs>
    <g id="ic/menu/move-bottom" stroke="none" stroke-width="1" fill="none" fill-rule="evenodd">
        <g id="Page-1">
            <path d="M16.8379,12.8105 C16.9049,12.9715 16.8849,13.1205 16.7749,13.2545 L12.3329,18.1275 C12.2489,18.2125 12.1509,18.2545 12.0419,18.2545 C11.9229,18.2545 11.8209,18.2125 11.7369,18.1275 L7.2329,13.2545 C7.1219,13.1205 7.1009,12.9715 7.1679,12.8105 C7.2449,12.6505 7.3669,12.5705 7.5359,12.5705 L10.3789,12.5705 L10.3789,1.0385 C10.3789,0.9185 10.4169,0.8225 10.4929,0.7465 C10.5689,0.6695 10.6659,0.6315 10.7849,0.6315 L13.2209,0.6315 C13.3399,0.6315 13.4379,0.6695 13.5139,0.7465 C13.5899,0.8225 13.6279,0.9185 13.6279,1.0385 L13.6279,12.5705 L16.4699,12.5705 C16.6479,12.5705 16.7709,12.6505 16.8379,12.8105" id="Fill-1" fill-opacity="0.8" fill="#23598E"></path>
            <path d="M19.6934,20.2969 C19.6184,20.2219 19.5204,20.1829 19.4024,20.1829 L4.7244,20.1839 C4.6074,20.1839 4.5094,20.2209 4.4344,20.2979 C4.3574,20.3729 4.3204,20.4709 4.3204,20.5889 L4.3204,23.0259 C4.3204,23.1449 4.3574,23.2409 4.4344,23.3179 C4.5094,23.3929 4.6074,23.4319 4.7244,23.4319 L19.4024,23.4319 C19.5204,23.4319 19.6184,23.3939 19.6934,23.3169 C19.7704,23.2419 19.8074,23.1439 19.8074,23.0259 L19.8074,20.5889 C19.8074,20.4709 19.7704,20.3739 19.6934,20.2969" id="Fill-3" fill-opacity="0.8" fill="#23598E"></path>
            <mask id="mask-2" fill="white">
                <use xlink:href="#path-1"></use>
            </mask>
            <g id="Clip-6"></g>
        </g>
    </g>
</svg>