<?xml version="1.0" encoding="UTF-8"?>
<svg width="24px" height="24px" viewBox="0 0 24 24" version="1.1" xmlns="http://www.w3.org/2000/svg" xmlns:xlink="http://www.w3.org/1999/xlink">
    <!-- Generator: Sketch 50.2 (55047) - http://www.bohemiancoding.com/sketch -->
    <title>ic/menu/rss-on</title>
    <desc>Created with Sketch.</desc>
    <defs>
        <polygon id="path-1" points="0 24 24 24 24 0 0 0"></polygon>
    </defs>
    <g id="ic/menu/rss-on" stroke="none" stroke-width="1" fill="none" fill-rule="evenodd">
        <g id="Page-1">
            <path d="M21.4287,19.6738 C21.4467,19.9148 21.3667,20.1248 21.1877,20.3038 C21.0277,20.4828 20.8217,20.5708 20.5717,20.5708 L18.6567,20.5708 C18.4237,20.5708 18.2257,20.4928 18.0607,20.3368 C17.8957,20.1808 17.8077,19.9908 17.7987,19.7678 C17.6917,17.8488 17.2417,16.0248 16.4467,14.2968 C15.6517,12.5698 14.6177,11.0698 13.3457,9.7968 C12.0747,8.5248 10.5747,7.4908 8.8457,6.6958 C7.1177,5.9018 5.2947,5.4458 3.3747,5.3298 C3.1517,5.3208 2.9617,5.2348 2.8057,5.0698 C2.6497,4.9038 2.5717,4.7098 2.5717,4.4858 L2.5717,2.5708 C2.5717,2.3208 2.6607,2.1158 2.8397,1.9548 C2.9997,1.7948 3.1967,1.7148 3.4287,1.7148 L3.4687,1.7148 C5.8077,1.8298 8.0467,2.3658 10.1857,3.3208 C12.3237,4.2768 14.2227,5.5888 15.8837,7.2588 C17.5537,8.9198 18.8657,10.8198 19.8217,12.9568 C20.7767,15.0958 21.3127,17.3348 21.4287,19.6738 M14.5717,19.6478 C14.5887,19.8978 14.5137,20.1108 14.3437,20.2898 C14.1837,20.4778 13.9737,20.5708 13.7147,20.5708 L11.9067,20.5708 C11.6827,20.5708 11.4907,20.4978 11.3297,20.3508 C11.1697,20.2028 11.0797,20.0178 11.0627,19.7948 C10.8657,17.7498 10.0417,16.0018 8.5917,14.5508 C7.1407,13.1008 5.3927,12.2768 3.3477,12.0798 C3.1247,12.0628 2.9397,11.9728 2.7927,11.8128 C2.6447,11.6528 2.5717,11.4598 2.5717,11.2358 L2.5717,9.4288 C2.5717,9.1698 2.6647,8.9598 2.8527,8.7988 C3.0047,8.6478 3.1967,8.5708 3.4287,8.5708 L3.4957,8.5708 C4.9237,8.6878 6.2897,9.0468 7.5937,9.6498 C8.8977,10.2518 10.0537,11.0628 11.0627,12.0798 C12.0797,13.0888 12.8907,14.2448 13.4927,15.5488 C14.0957,16.8528 14.4547,18.2188 14.5717,19.6478 M7.7147,17.9998 C7.7147,18.7138 7.4637,19.3208 6.9647,19.8208 C6.4637,20.3208 5.8577,20.5708 5.1427,20.5708 C4.4287,20.5708 3.8217,20.3208 3.3217,19.8208 C2.8217,19.3208 2.5717,18.7138 2.5717,17.9998 C2.5717,17.2858 2.8217,16.6788 3.3217,16.1788 C3.8217,15.6788 4.4287,15.4288 5.1427,15.4288 C5.8577,15.4288 6.4637,15.6788 6.9647,16.1788 C7.4637,16.6788 7.7147,17.2858 7.7147,17.9998" id="Fill-1" fill-opacity="0.8" fill="#23598E"></path>
            <mask id="mask-2" fill="white">
                <use xlink:href="#path-1"></use>
            </mask>
            <g id="Clip-4"></g>
        </g>
    </g>
</svg>