<?xml version="1.0" encoding="UTF-8"?>
<svg width="24px" height="24px" viewBox="0 0 24 24" version="1.1" xmlns="http://www.w3.org/2000/svg" xmlns:xlink="http://www.w3.org/1999/xlink">
    <!-- Generator: Sketch 50.2 (55047) - http://www.bohemiancoding.com/sketch -->
    <title>ic/menu/schedule</title>
    <desc>Created with Sketch.</desc>
    <defs>
        <polygon id="path-1" points="0 24 24 24 24 0 0 0"></polygon>
    </defs>
    <g id="ic/menu/schedule" stroke="none" stroke-width="1" fill="none" fill-rule="evenodd">
        <g id="Page-1">
            <path d="M14.7607,16.0244 C14.8797,16.1144 15.0137,16.1434 15.1617,16.1144 C15.3097,16.0844 15.4287,16.0094 15.5177,15.8914 L16.3197,14.7334 C16.4087,14.6144 16.4457,14.4804 16.4307,14.3334 C16.4157,14.1844 16.3497,14.0654 16.2307,13.9764 L13.2467,11.8384 L13.2467,5.5154 C13.2467,5.3674 13.1947,5.2404 13.0907,5.1364 C12.9877,5.0334 12.8607,4.9814 12.7127,4.9814 L11.2877,4.9814 C11.1387,4.9814 11.0127,5.0334 10.9087,5.1364 C10.8047,5.2404 10.7527,5.3674 10.7527,5.5154 L10.7527,12.8184 C10.7527,12.9974 10.8277,13.1444 10.9757,13.2634 L14.7607,16.0244 Z M11.9997,20.6564 C13.6027,20.6564 15.0877,20.2544 16.4527,19.4544 C17.8187,18.6524 18.9027,17.5684 19.7037,16.2034 C20.5057,14.8374 20.9067,13.3524 20.9067,11.7504 C20.9067,10.1464 20.5057,8.6624 19.7037,7.2964 C18.9027,5.9304 17.8187,4.8474 16.4527,4.0454 C15.0877,3.2444 13.6027,2.8434 11.9997,2.8434 C10.3967,2.8434 8.9127,3.2444 7.5467,4.0454 C6.1807,4.8474 5.0977,5.9304 4.2957,7.2964 C3.4947,8.6624 3.0937,10.1464 3.0937,11.7504 C3.0937,13.3524 3.4947,14.8374 4.2957,16.2034 C5.0977,17.5684 6.1807,18.6524 7.5467,19.4544 C8.9127,20.2544 10.3967,20.6564 11.9997,20.6564 Z M11.9997,0.7064 C13.9897,0.7064 15.8297,1.2034 17.5217,2.1984 C19.2137,3.1924 20.5577,4.5364 21.5517,6.2274 C22.5457,7.9204 23.0437,9.7604 23.0437,11.7504 C23.0437,13.7394 22.5457,15.5794 21.5517,17.2714 C20.5577,18.9634 19.2137,20.3074 17.5217,21.3014 C15.8297,22.2954 13.9897,22.7944 11.9997,22.7944 C10.0107,22.7944 8.1707,22.2954 6.4777,21.3014 C4.7857,20.3074 3.4427,18.9634 2.4477,17.2714 C1.4537,15.5794 0.9557,13.7394 0.9557,11.7504 C0.9557,9.7604 1.4537,7.9204 2.4477,6.2274 C3.4427,4.5364 4.7857,3.1924 6.4777,2.1984 C8.1707,1.2034 10.0107,0.7064 11.9997,0.7064 Z" id="Fill-1" fill-opacity="0.8" fill="#23598E"></path>
            <mask id="mask-2" fill="white">
                <use xlink:href="#path-1"></use>
            </mask>
            <g id="Clip-4"></g>
        </g>
    </g>
</svg>