<?xml version="1.0" encoding="UTF-8"?>
<svg width="24px" height="24px" viewBox="0 0 24 24" version="1.1" xmlns="http://www.w3.org/2000/svg" xmlns:xlink="http://www.w3.org/1999/xlink">
    <!-- Generator: Sketch 50.2 (55047) - http://www.bohemiancoding.com/sketch -->
    <title>ic/visiblity/on</title>
    <desc>Created with Sketch.</desc>
    <defs>
        <polygon id="path-1" points="0 24 24 24 24 0 0 0"></polygon>
    </defs>
    <g id="ic/visiblity/on" stroke="none" stroke-width="1" fill="none" fill-rule="evenodd">
        <g id="Page-1">
            <path d="M23.4004,12.8574 C23.4004,13.1454 23.3154,13.4384 23.1454,13.7354 C21.9594,15.6864 20.3614,17.2494 18.3554,18.4234 C16.3484,19.5984 14.2314,20.1864 12.0004,20.1864 C9.7694,20.1864 7.6504,19.5964 5.6454,18.4174 C3.6384,17.2384 2.0424,15.6774 0.8544,13.7354 C0.6854,13.4384 0.6004,13.1454 0.6004,12.8574 C0.6004,12.5694 0.6854,12.2764 0.8544,11.9794 C2.0424,10.0364 3.6384,8.4764 5.6454,7.2964 C7.6504,6.1184 9.7694,5.5284 12.0004,5.5284 C14.2314,5.5284 16.3484,6.1184 18.3554,7.2964 C20.3614,8.4764 21.9594,10.0364 23.1454,11.9794 C23.3154,12.2764 23.4004,12.5694 23.4004,12.8574 M12.6104,7.9714 C12.6104,7.8014 12.5514,7.6574 12.4324,7.5394 C12.3144,7.4204 12.1704,7.3614 12.0004,7.3614 C10.9394,7.3614 10.0304,7.7404 9.2704,8.4994 C8.5114,9.2584 8.1324,10.1684 8.1324,11.2284 C8.1324,11.3984 8.1914,11.5424 8.3104,11.6614 C8.4294,11.7804 8.5734,11.8384 8.7424,11.8384 C8.9124,11.8384 9.0564,11.7804 9.1754,11.6614 C9.2944,11.5424 9.3534,11.3984 9.3534,11.2284 C9.3534,10.4994 9.6124,9.8764 10.1294,9.3584 C10.6474,8.8404 11.2704,8.5824 12.0004,8.5824 C12.1704,8.5824 12.3144,8.5224 12.4324,8.4044 C12.5514,8.2864 12.6104,8.1404 12.6104,7.9714 M21.7714,12.8574 C20.4824,10.8554 18.8664,9.3584 16.9244,8.3654 C17.4414,9.2484 17.7004,10.2024 17.7004,11.2284 C17.7004,12.7974 17.1424,14.1404 16.0264,15.2554 C14.9114,16.3704 13.5694,16.9284 12.0004,16.9284 C10.4304,16.9284 9.0884,16.3704 7.9724,15.2554 C6.8584,14.1404 6.2994,12.7974 6.2994,11.2284 C6.2994,10.2024 6.5594,9.2484 7.0764,8.3654 C5.1334,9.3584 3.5184,10.8554 2.2284,12.8574 C3.3574,14.5964 4.7714,15.9804 6.4714,17.0114 C8.1724,18.0424 10.0154,18.5574 12.0004,18.5574 C13.9854,18.5574 15.8274,18.0424 17.5274,17.0114 C19.2294,15.9804 20.6434,14.5964 21.7714,12.8574" id="Fill-1" fill-opacity="0.8" fill="#23598E"></path>
            <mask id="mask-2" fill="white">
                <use xlink:href="#path-1"></use>
            </mask>
            <g id="Clip-4"></g>
        </g>
    </g>
</svg>