<?xml version="1.0" encoding="UTF-8"?>
<svg width="24px" height="24px" viewBox="0 0 24 24" version="1.1" xmlns="http://www.w3.org/2000/svg" xmlns:xlink="http://www.w3.org/1999/xlink">
    <!-- Generator: Sketch 50.2 (55047) - http://www.bohemiancoding.com/sketch -->
    <title>ic/visibility/off</title>
    <desc>Created with Sketch.</desc>
    <defs>
        <polygon id="path-1" points="0 24 24 24 24 0 0 0"></polygon>
    </defs>
    <g id="ic/visibility/off" stroke="none" stroke-width="1" fill="none" fill-rule="evenodd">
        <g id="Page-1">
            <path d="M23.4004,12.8574 C23.4004,13.1534 23.3154,13.4464 23.1454,13.7354 C22.8154,14.2774 22.3524,14.8924 21.7574,15.5794 C20.4864,17.0384 19.0124,18.1714 17.3384,18.9764 C15.6624,19.7834 13.8824,20.1864 12.0004,20.1864 L12.9414,18.5054 C14.7404,18.3534 16.4044,17.7724 17.9354,16.7624 C19.4654,15.7534 20.7444,14.4524 21.7714,12.8574 C20.7964,11.3384 19.5994,10.0914 18.1834,9.1164 L18.9854,7.6914 C19.7914,8.2344 20.5654,8.8834 21.3064,9.6374 C22.0484,10.3924 22.6624,11.1724 23.1454,11.9794 C23.3154,12.2674 23.4004,12.5604 23.4004,12.8574 M17.7004,11.2284 C17.7004,12.4074 17.3654,13.4834 16.6944,14.4544 C16.0244,15.4244 15.1384,16.1234 14.0354,16.5464 L17.5974,10.1594 C17.6664,10.5424 17.7004,10.8974 17.7004,11.2284 M17.2284,5.5414 C17.2284,5.6004 17.2254,5.6384 17.2154,5.6564 C16.3174,7.2584 14.9774,9.6644 13.1964,12.8704 C11.4154,16.0764 10.0794,18.4764 9.1884,20.0714 L8.5654,21.2034 C8.4794,21.3384 8.3614,21.4074 8.2094,21.4074 C8.1074,21.4074 7.5394,21.1104 6.5044,20.5164 C6.3684,20.4314 6.2994,20.3124 6.2994,20.1604 C6.2994,20.0584 6.4864,19.6894 6.8604,19.0524 C5.6474,18.5024 4.5294,17.7684 3.5074,16.8524 C2.4854,15.9354 1.6004,14.8974 0.8544,13.7354 C0.6844,13.4724 0.5994,13.1794 0.5994,12.8574 C0.5994,12.5354 0.6844,12.2424 0.8544,11.9794 C2.1524,9.9864 3.7634,8.4124 5.6894,7.2584 C7.6154,6.1044 9.7184,5.5284 12.0004,5.5284 C12.7544,5.5284 13.5184,5.6004 14.2904,5.7454 L14.9774,4.5104 C15.0624,4.3754 15.1804,4.3074 15.3344,4.3074 C15.3764,4.3074 15.4524,4.3334 15.5624,4.3834 C15.6724,4.4344 15.8034,4.5014 15.9574,4.5804 C16.1094,4.6614 16.2494,4.7394 16.3774,4.8154 C16.5044,4.8914 16.6364,4.9704 16.7774,5.0514 C16.9174,5.1314 17.0004,5.1804 17.0264,5.1984 C17.1614,5.2824 17.2284,5.3974 17.2284,5.5414 M12.6104,7.9714 C12.6104,7.8014 12.5504,7.6574 12.4324,7.5394 C12.3144,7.4204 12.1704,7.3614 12.0004,7.3614 C10.9394,7.3614 10.0304,7.7404 9.2704,8.4994 C8.5114,9.2584 8.1314,10.1684 8.1314,11.2284 C8.1314,11.3984 8.1914,11.5424 8.3094,11.6614 C8.4294,11.7804 8.5734,11.8384 8.7434,11.8384 C8.9124,11.8384 9.0564,11.7804 9.1754,11.6614 C9.2944,11.5424 9.3534,11.3984 9.3534,11.2284 C9.3534,10.4994 9.6114,9.8764 10.1294,9.3584 C10.6474,8.8404 11.2714,8.5824 12.0004,8.5824 C12.1704,8.5824 12.3144,8.5224 12.4324,8.4044 C12.5504,8.2864 12.6104,8.1404 12.6104,7.9714 M7.6624,17.6284 L8.6544,15.8344 C7.9164,15.2994 7.3394,14.6264 6.9234,13.8114 C6.5074,12.9974 6.2994,12.1364 6.2994,11.2284 C6.2994,10.2024 6.5584,9.2484 7.0764,8.3654 C5.1334,9.3584 3.5174,10.8554 2.2284,12.8574 C3.6444,15.0454 5.4564,16.6354 7.6624,17.6284" id="Fill-1" fill="#979797"></path>
            <mask id="mask-2" fill="white">
                <use xlink:href="#path-1"></use>
            </mask>
            <g id="Clip-4"></g>
        </g>
    </g>
</svg>