<?xml version="1.0" encoding="UTF-8"?>
<svg width="48px" height="48px" viewBox="0 0 48 48" version="1.1" xmlns="http://www.w3.org/2000/svg" xmlns:xlink="http://www.w3.org/1999/xlink">
    <!-- Generator: Sketch 50.2 (55047) - http://www.bohemiancoding.com/sketch -->
    <title>calendar/calendar</title>
    <desc>Created with Sketch.</desc>
    <defs></defs>
    <g id="calendar/calendar" stroke="none" stroke-width="1" fill="none" fill-rule="evenodd">
        <g id="Page-1" transform="translate(7.000000, 5.000000)" fill="#727376">
            <path d="M25.7175,19.67 L31.75125,19.67 L31.75125,13.6375 L25.7175,13.6375 L25.7175,19.67 Z M25.7175,27.7175 L31.75125,27.7175 L31.75125,21.0125 L25.7175,21.0125 L25.7175,27.7175 Z M25.7175,35.09125 L31.75125,35.09125 L31.75125,29.0575 L25.7175,29.0575 L25.7175,35.09125 Z M23.46375,10.53125 C23.21125,10.2775 23.07875,9.9625 23.07875,9.6125 L23.07875,3.57875 C23.07875,3.22875 23.2125,2.91125 23.46375,2.6625 C23.71,2.415 24.02625,2.28375 24.375,2.28375 L25.7175,2.28375 C26.065,2.28375 26.38125,2.415 26.63,2.665 C26.87875,2.91125 27.0125,3.22875 27.0125,3.57875 L27.0125,9.6125 C27.0125,9.9625 26.88,10.2775 26.63,10.52875 C26.37875,10.7775 26.06375,10.9075 25.7175,10.9075 L24.375,10.9075 C24.0275,10.9075 23.7125,10.7775 23.46375,10.53125 Z M17.67,19.67 L24.375,19.67 L24.375,13.6375 L17.67,13.6375 L17.67,19.67 Z M17.67,27.7175 L24.375,27.7175 L24.375,21.0125 L17.67,21.0125 L17.67,27.7175 Z M17.67,35.09125 L24.375,35.09125 L24.375,29.0575 L17.67,29.0575 L17.67,35.09125 Z M9.625,19.67 L16.33,19.67 L16.33,13.6375 L9.625,13.6375 L9.625,19.67 Z M9.625,27.7175 L16.33,27.7175 L16.33,21.0125 L9.625,21.0125 L9.625,27.7175 Z M9.625,35.09125 L16.33,35.09125 L16.33,29.0575 L9.625,29.0575 L9.625,35.09125 Z M7.3725,10.53125 C7.12,10.2775 6.9875,9.9625 6.9875,9.6125 L6.9875,3.57875 C6.9875,3.22875 7.12125,2.91125 7.3725,2.6625 C7.61875,2.415 7.935,2.28375 8.2825,2.28375 L9.625,2.28375 C9.97375,2.28375 10.29,2.415 10.53875,2.665 C10.7875,2.91125 10.92125,3.22875 10.92125,3.57875 L10.92125,9.6125 C10.92125,9.9625 10.78875,10.2775 10.53875,10.52875 C10.2875,10.7775 9.9725,10.9075 9.625,10.9075 L8.2825,10.9075 C7.93625,10.9075 7.62125,10.7775 7.3725,10.53125 Z M2.24875,19.67 L8.2825,19.67 L8.2825,13.6375 L2.24875,13.6375 L2.24875,19.67 Z M2.24875,27.7175 L8.2825,27.7175 L8.2825,21.0125 L2.24875,21.0125 L2.24875,27.7175 Z M2.24875,35.09125 L8.2825,35.09125 L8.2825,29.0575 L2.24875,29.0575 L2.24875,35.09125 Z M33.19375,6.8275 C32.7825,6.4175 32.31125,6.21625 31.75125,6.21625 L28.44375,6.21625 L28.44375,3.57875 C28.44375,2.8225 28.18125,2.1925 27.6425,1.65125 C27.1,1.1125 26.47,0.85 25.7175,0.85 L24.375,0.85 C23.62125,0.85 22.99125,1.1125 22.44875,1.6525 C21.91125,2.19125 21.64875,2.8225 21.64875,3.57875 L21.64875,6.21625 L12.35125,6.21625 L12.35125,3.57875 C12.35125,2.8225 12.08875,2.19125 11.55,1.65125 C11.00875,1.1125 10.37875,0.85 9.625,0.85 L8.2825,0.85 C7.53,0.85 6.9,1.1125 6.35625,1.6525 C5.81875,2.1925 5.55625,2.8225 5.55625,3.57875 L5.55625,6.21625 L2.24875,6.21625 C1.68875,6.21625 1.2175,6.4175 0.80625,6.8275 C0.39375,7.24125 0.1925,7.7125 0.1925,8.27125 L0.1925,35.09125 C0.1925,35.65 0.39375,36.12125 0.80625,36.535 C1.2175,36.94875 1.69,37.15 2.24875,37.15 L31.75125,37.15 C32.31,37.15 32.7825,36.94875 33.1925,36.53625 C33.60625,36.12125 33.8075,35.65 33.8075,35.09125 L33.8075,8.27125 C33.8075,7.7125 33.60625,7.24125 33.19375,6.8275 Z" id="Fill-1"></path>
        </g>
    </g>
</svg>