<?xml version="1.0" encoding="UTF-8"?>
<svg width="48px" height="48px" viewBox="0 0 48 48" version="1.1" xmlns="http://www.w3.org/2000/svg" xmlns:xlink="http://www.w3.org/1999/xlink">
    <!-- Generator: Sketch 50.2 (55047) - http://www.bohemiancoding.com/sketch -->
    <title>calendar/event</title>
    <desc>Created with Sketch.</desc>
    <defs></defs>
    <g id="calendar/event" stroke="none" stroke-width="1" fill="none" fill-rule="evenodd">
        <g id="Page-1" transform="translate(7.000000, 8.000000)" fill="#727376">
            <path d="M14.49875,5.5825 L30.75,5.5825 L30.75,3.0825 L14.49875,3.0825 L14.49875,5.5825 Z M13.24875,8.0825 L32,8.0825 C32.69125,8.0825 33.25,7.52375 33.25,6.8325 L33.25,1.8325 C33.25,1.14125 32.69125,0.5825 32,0.5825 L13.24875,0.5825 C12.5575,0.5825 11.99875,1.14125 11.99875,1.8325 L11.99875,6.8325 C11.99875,7.52375 12.5575,8.0825 13.24875,8.0825 Z" id="Fill-1"></path>
            <path d="M8.25,4.3325 C8.25,6.40375 6.57125,8.0825 4.5,8.0825 C2.42875,8.0825 0.75,6.40375 0.75,4.3325 C0.75,2.26125 2.42875,0.5825 4.5,0.5825 C6.57125,0.5825 8.25,2.26125 8.25,4.3325" id="Fill-3"></path>
            <path d="M14.49875,29.3325 L30.75,29.3325 L30.75,26.8325 L14.49875,26.8325 L14.49875,29.3325 Z M13.24875,31.8325 L32,31.8325 C32.69125,31.8325 33.25,31.27375 33.25,30.5825 L33.25,25.5825 C33.25,24.89125 32.69125,24.3325 32,24.3325 L13.24875,24.3325 C12.5575,24.3325 11.99875,24.89125 11.99875,25.5825 L11.99875,30.5825 C11.99875,31.27375 12.5575,31.8325 13.24875,31.8325 Z" id="Fill-4"></path>
            <path d="M8.25,28.0825 C8.25,30.15375 6.57125,31.8325 4.5,31.8325 C2.42875,31.8325 0.75,30.15375 0.75,28.0825 C0.75,26.01125 2.42875,24.3325 4.5,24.3325 C6.57125,24.3325 8.25,26.01125 8.25,28.0825" id="Fill-5"></path>
            <path d="M14.49875,17.4575 L30.75,17.4575 L30.75,14.9575 L14.49875,14.9575 L14.49875,17.4575 Z M13.24875,19.9575 L32,19.9575 C32.69125,19.9575 33.25,19.39875 33.25,18.7075 L33.25,13.7075 C33.25,13.01625 32.69125,12.4575 32,12.4575 L13.24875,12.4575 C12.5575,12.4575 11.99875,13.01625 11.99875,13.7075 L11.99875,18.7075 C11.99875,19.39875 12.5575,19.9575 13.24875,19.9575 Z" id="Fill-6"></path>
            <path d="M8.25,16.2075 C8.25,18.27875 6.57125,19.9575 4.5,19.9575 C2.42875,19.9575 0.75,18.27875 0.75,16.2075 C0.75,14.13625 2.42875,12.4575 4.5,12.4575 C6.57125,12.4575 8.25,14.13625 8.25,16.2075" id="Fill-7"></path>
        </g>
    </g>
</svg>