<?xml version="1.0" encoding="UTF-8"?>
<svg width="16px" height="16px" viewBox="0 0 16 16" version="1.1" xmlns="http://www.w3.org/2000/svg" xmlns:xlink="http://www.w3.org/1999/xlink">
    <!-- Generator: Sketch 50.2 (55047) - http://www.bohemiancoding.com/sketch -->
    <title>ic/add-lanugage</title>
    <desc>Created with Sketch.</desc>
    <defs></defs>
    <g id="ic/add-lanugage" stroke="none" stroke-width="1" fill="none" fill-rule="evenodd">
        <g id="Group-Copy">
            <path d="M8,16 C3.581722,16 0,12.418278 0,8 C0,3.581722 3.581722,0 8,0 C12.418278,0 16,3.581722 16,8 C16,12.418278 12.418278,16 8,16 Z" id="Path" fill="#FFFFFF"></path>
            <path d="M8,14 C11.3137085,14 14,11.3137085 14,8 C14,4.6862915 11.3137085,2 8,2 C4.6862915,2 2,4.6862915 2,8 C2,11.3137085 4.6862915,14 8,14 Z" id="Oval-4" fill="#E6981A" fill-rule="nonzero"></path>
            <path d="M11,7.59090909 L11,8.40909091 C11,8.52272727 10.9602273,8.61931818 10.8806818,8.69886364 C10.8011364,8.77840909 10.7045455,8.81818182 10.5909091,8.81818182 L8.81818182,8.81818182 L8.81818182,10.5909091 C8.81818182,10.7045455 8.77840909,10.8011364 8.69886364,10.8806818 C8.61931818,10.9602273 8.52272727,11 8.40909091,11 L7.59090909,11 C7.47727273,11 7.38068182,10.9602273 7.30113636,10.8806818 C7.22159091,10.8011364 7.18181818,10.7045455 7.18181818,10.5909091 L7.18181818,8.81818182 L5.40909091,8.81818182 C5.29545455,8.81818182 5.19886364,8.77840909 5.11931818,8.69886364 C5.03977273,8.61931818 5,8.52272727 5,8.40909091 L5,7.59090909 C5,7.47727273 5.03977273,7.38068182 5.11931818,7.30113636 C5.19886364,7.22159091 5.29545455,7.18181818 5.40909091,7.18181818 L7.18181818,7.18181818 L7.18181818,5.40909091 C7.18181818,5.29545455 7.22159091,5.19886364 7.30113636,5.11931818 C7.38068182,5.03977273 7.47727273,5 7.59090909,5 L8.40909091,5 C8.52272727,5 8.61931818,5.03977273 8.69886364,5.11931818 C8.77840909,5.19886364 8.81818182,5.29545455 8.81818182,5.40909091 L8.81818182,7.18181818 L10.5909091,7.18181818 C10.7045455,7.18181818 10.8011364,7.22159091 10.8806818,7.30113636 C10.9602273,7.38068182 11,7.47727273 11,7.59090909 Z" id="Shape" fill="#FFFFFF" fill-rule="nonzero"></path>
        </g>
    </g>
</svg>