<?xml version="1.0" encoding="UTF-8"?>
<svg width="24px" height="24px" viewBox="0 0 24 24" version="1.1" xmlns="http://www.w3.org/2000/svg" xmlns:xlink="http://www.w3.org/1999/xlink">
    <!-- Generator: Sketch 50.2 (55047) - http://www.bohemiancoding.com/sketch -->
    <title>ic/date</title>
    <desc>Created with Sketch.</desc>
    <defs></defs>
    <g id="ic/date" stroke="none" stroke-width="1" fill="none" fill-rule="evenodd">
        <path d="M4.46153846,20.5714286 L7.75,20.5714286 L7.75,17.3571429 L4.46153846,17.3571429 L4.46153846,20.5714286 Z M8.48076923,20.5714286 L12.1346154,20.5714286 L12.1346154,17.3571429 L8.48076923,17.3571429 L8.48076923,20.5714286 Z M4.46153846,16.6428571 L7.75,16.6428571 L7.75,13.0714286 L4.46153846,13.0714286 L4.46153846,16.6428571 Z M8.48076923,16.6428571 L12.1346154,16.6428571 L12.1346154,13.0714286 L8.48076923,13.0714286 L8.48076923,16.6428571 Z M4.46153846,12.3571429 L7.75,12.3571429 L7.75,9.14285714 L4.46153846,9.14285714 L4.46153846,12.3571429 Z M12.8653846,20.5714286 L16.5192308,20.5714286 L16.5192308,17.3571429 L12.8653846,17.3571429 L12.8653846,20.5714286 Z M8.48076923,12.3571429 L12.1346154,12.3571429 L12.1346154,9.14285714 L8.48076923,9.14285714 L8.48076923,12.3571429 Z M17.25,20.5714286 L20.5384615,20.5714286 L20.5384615,17.3571429 L17.25,17.3571429 L17.25,20.5714286 Z M12.8653846,16.6428571 L16.5192308,16.6428571 L16.5192308,13.0714286 L12.8653846,13.0714286 L12.8653846,16.6428571 Z M8.84615385,7 L8.84615385,3.78571429 C8.84615385,3.6889881 8.80999599,3.60528274 8.73768029,3.53459821 C8.66536458,3.46391369 8.57972756,3.42857143 8.48076923,3.42857143 L7.75,3.42857143 C7.65104167,3.42857143 7.56540465,3.46391369 7.49308894,3.53459821 C7.42077324,3.60528274 7.38461538,3.6889881 7.38461538,3.78571429 L7.38461538,7 C7.38461538,7.09672619 7.42077324,7.18043155 7.49308894,7.25111607 C7.56540465,7.3218006 7.65104167,7.35714286 7.75,7.35714286 L8.48076923,7.35714286 C8.57972756,7.35714286 8.66536458,7.3218006 8.73768029,7.25111607 C8.80999599,7.18043155 8.84615385,7.09672619 8.84615385,7 Z M17.25,16.6428571 L20.5384615,16.6428571 L20.5384615,13.0714286 L17.25,13.0714286 L17.25,16.6428571 Z M12.8653846,12.3571429 L16.5192308,12.3571429 L16.5192308,9.14285714 L12.8653846,9.14285714 L12.8653846,12.3571429 Z M17.25,12.3571429 L20.5384615,12.3571429 L20.5384615,9.14285714 L17.25,9.14285714 L17.25,12.3571429 Z M17.6153846,7 L17.6153846,3.78571429 C17.6153846,3.6889881 17.5792268,3.60528274 17.5069111,3.53459821 C17.4345954,3.46391369 17.3489583,3.42857143 17.25,3.42857143 L16.5192308,3.42857143 C16.4202724,3.42857143 16.3346354,3.46391369 16.2623197,3.53459821 C16.190004,3.60528274 16.1538462,3.6889881 16.1538462,3.78571429 L16.1538462,7 C16.1538462,7.09672619 16.190004,7.18043155 16.2623197,7.25111607 C16.3346354,7.3218006 16.4202724,7.35714286 16.5192308,7.35714286 L17.25,7.35714286 C17.3489583,7.35714286 17.4345954,7.3218006 17.5069111,7.25111607 C17.5792268,7.18043155 17.6153846,7.09672619 17.6153846,7 Z M22,6.28571429 L22,20.5714286 C22,20.9583333 21.8553686,21.2931548 21.5661058,21.5758929 C21.2768429,21.858631 20.9342949,22 20.5384615,22 L4.46153846,22 C4.06570513,22 3.72315705,21.858631 3.43389423,21.5758929 C3.14463141,21.2931548 3,20.9583333 3,20.5714286 L3,6.28571429 C3,5.89880952 3.14463141,5.5639881 3.43389423,5.28125 C3.72315705,4.9985119 4.06570513,4.85714286 4.46153846,4.85714286 L5.92307692,4.85714286 L5.92307692,3.78571429 C5.92307692,3.29464286 6.10196314,2.87425595 6.45973558,2.52455357 C6.81750801,2.17485119 7.24759615,2 7.75,2 L8.48076923,2 C8.98317308,2 9.41326122,2.17485119 9.77103365,2.52455357 C10.1288061,2.87425595 10.3076923,3.29464286 10.3076923,3.78571429 L10.3076923,4.85714286 L14.6923077,4.85714286 L14.6923077,3.78571429 C14.6923077,3.29464286 14.8711939,2.87425595 15.2289663,2.52455357 C15.5867388,2.17485119 16.0168269,2 16.5192308,2 L17.25,2 C17.7524038,2 18.182492,2.17485119 18.5402644,2.52455357 C18.8980369,2.87425595 19.0769231,3.29464286 19.0769231,3.78571429 L19.0769231,4.85714286 L20.5384615,4.85714286 C20.9342949,4.85714286 21.2768429,4.9985119 21.5661058,5.28125 C21.8553686,5.5639881 22,5.89880952 22,6.28571429 Z" id="Shape" fill="#D5D5D5" fill-rule="nonzero"></path>
    </g>
</svg>