<?xml version="1.0" encoding="UTF-8"?>
<svg width="20px" height="20px" viewBox="0 0 20 20" version="1.1" xmlns="http://www.w3.org/2000/svg" xmlns:xlink="http://www.w3.org/1999/xlink">
    <!-- Generator: Sketch 50.2 (55047) - http://www.bohemiancoding.com/sketch -->
    <title>ic/delete</title>
    <desc>Created with Sketch.</desc>
    <defs></defs>
    <g id="ic/delete" stroke="none" stroke-width="1" fill="none" fill-rule="evenodd">
        <g id="trash" transform="translate(2.000000, 1.000000)" fill="#E6981A" fill-rule="nonzero">
            <path d="M5.81818182,14.625 L5.81818182,6.375 C5.81818182,6.265625 5.78409091,6.17578125 5.71590909,6.10546875 C5.64772727,6.03515625 5.56060606,6 5.45454545,6 L4.72727273,6 C4.62121212,6 4.53409091,6.03515625 4.46590909,6.10546875 C4.39772727,6.17578125 4.36363636,6.265625 4.36363636,6.375 L4.36363636,14.625 C4.36363636,14.734375 4.39772727,14.8242187 4.46590909,14.8945312 C4.53409091,14.9648437 4.62121212,15 4.72727273,15 L5.45454545,15 C5.56060606,15 5.64772727,14.9648437 5.71590909,14.8945312 C5.78409091,14.8242187 5.81818182,14.734375 5.81818182,14.625 Z M8.72727273,14.625 L8.72727273,6.375 C8.72727273,6.265625 8.69318182,6.17578125 8.625,6.10546875 C8.55681818,6.03515625 8.46969697,6 8.36363636,6 L7.63636364,6 C7.53030303,6 7.44318182,6.03515625 7.375,6.10546875 C7.30681818,6.17578125 7.27272727,6.265625 7.27272727,6.375 L7.27272727,14.625 C7.27272727,14.734375 7.30681818,14.8242187 7.375,14.8945312 C7.44318182,14.9648437 7.53030303,15 7.63636364,15 L8.36363636,15 C8.46969697,15 8.55681818,14.9648437 8.625,14.8945312 C8.69318182,14.8242187 8.72727273,14.734375 8.72727273,14.625 Z M11.6363636,14.625 L11.6363636,6.375 C11.6363636,6.265625 11.6022727,6.17578125 11.5340909,6.10546875 C11.4659091,6.03515625 11.3787879,6 11.2727273,6 L10.5454545,6 C10.4393939,6 10.3522727,6.03515625 10.2840909,6.10546875 C10.2159091,6.17578125 10.1818182,6.265625 10.1818182,6.375 L10.1818182,14.625 C10.1818182,14.734375 10.2159091,14.8242187 10.2840909,14.8945312 C10.3522727,14.9648437 10.4393939,15 10.5454545,15 L11.2727273,15 C11.3787879,15 11.4659091,14.9648437 11.5340909,14.8945312 C11.6022727,14.8242187 11.6363636,14.734375 11.6363636,14.625 Z M5.45454545,3 L10.5454545,3 L10,1.62890625 C9.9469697,1.55859375 9.88257576,1.515625 9.80681818,1.5 L6.20454545,1.5 C6.12878788,1.515625 6.06439394,1.55859375 6.01136364,1.62890625 L5.45454545,3 Z M16,3.375 L16,4.125 C16,4.234375 15.9659091,4.32421875 15.8977273,4.39453125 C15.8295455,4.46484375 15.7424242,4.5 15.6363636,4.5 L14.5454545,4.5 L14.5454545,15.609375 C14.5454545,16.2578125 14.3674242,16.8183594 14.0113636,17.2910156 C13.655303,17.7636719 13.2272727,18 12.7272727,18 L3.27272727,18 C2.77272727,18 2.34469697,17.7714844 1.98863636,17.3144531 C1.63257576,16.8574219 1.45454545,16.3046875 1.45454545,15.65625 L1.45454545,4.5 L0.363636364,4.5 C0.257575758,4.5 0.170454545,4.46484375 0.102272727,4.39453125 C0.0340909091,4.32421875 0,4.234375 0,4.125 L0,3.375 C0,3.265625 0.0340909091,3.17578125 0.102272727,3.10546875 C0.170454545,3.03515625 0.257575758,3 0.363636364,3 L3.875,3 L4.67045455,1.04296875 C4.78409091,0.75390625 4.98863636,0.5078125 5.28409091,0.3046875 C5.57954545,0.1015625 5.87878788,0 6.18181818,0 L9.81818182,0 C10.1212121,0 10.4204545,0.1015625 10.7159091,0.3046875 C11.0113636,0.5078125 11.2159091,0.75390625 11.3295455,1.04296875 L12.125,3 L15.6363636,3 C15.7424242,3 15.8295455,3.03515625 15.8977273,3.10546875 C15.9659091,3.17578125 16,3.265625 16,3.375 Z" id="Shape"></path>
        </g>
    </g>
</svg>