<?xml version="1.0" encoding="UTF-8"?>
<svg width="20px" height="20px" viewBox="0 0 20 20" version="1.1" xmlns="http://www.w3.org/2000/svg" xmlns:xlink="http://www.w3.org/1999/xlink">
    <!-- Generator: Sketch 50.2 (55047) - http://www.bohemiancoding.com/sketch -->
    <title>ic/edit</title>
    <desc>Created with Sketch.</desc>
    <defs></defs>
    <g id="ic/edit" stroke="none" stroke-width="1" fill="none" fill-rule="evenodd" fill-opacity="0.8">
        <g id="edit" transform="translate(0.000000, 2.000000)" fill="#23598E" fill-rule="nonzero">
            <path d="M9.8715415,11.7391304 L11.1610672,10.4496047 L9.47134387,8.75988142 L8.18181818,10.0494071 L8.18181818,10.6719368 L9.24901186,10.6719368 L9.24901186,11.7391304 L9.8715415,11.7391304 Z M14.7628458,3.73517787 C14.6442688,3.61660079 14.5219862,3.62030632 14.395998,3.74629447 L10.5051877,7.63710474 C10.3791996,7.76309289 10.3754941,7.88537549 10.4940711,8.00395257 C10.6126482,8.12252964 10.7349308,8.11882411 10.860919,7.99283597 L14.7517292,4.10202569 C14.8777174,3.97603755 14.8814229,3.85375494 14.7628458,3.73517787 Z M15.6521739,10.3384387 L15.6521739,12.4505929 C15.6521739,13.3325099 15.3390563,14.086586 14.7128211,14.7128211 C14.086586,15.3390563 13.3325099,15.6521739 12.4505929,15.6521739 L3.20158103,15.6521739 C2.31966403,15.6521739 1.56558794,15.3390563 0.939352767,14.7128211 C0.313117589,14.086586 0,13.3325099 0,12.4505929 L0,3.20158103 C0,2.31966403 0.313117589,1.56558794 0.939352767,0.939352767 C1.56558794,0.313117589 2.31966403,0 3.20158103,0 L12.4505929,0 C12.9174901,0 13.3510375,0.0926383399 13.7512352,0.27791502 C13.8624012,0.32979249 13.9291008,0.415019763 13.951334,0.533596838 C13.9735672,0.65958498 13.9402174,0.767045455 13.8512846,0.855978261 L13.3065711,1.4006917 C13.2028162,1.50444664 13.0842391,1.53409091 12.9508399,1.48962451 C12.7803854,1.4451581 12.6136364,1.4229249 12.4505929,1.4229249 L3.20158103,1.4229249 C2.71245059,1.4229249 2.2937253,1.59708498 1.94540514,1.94540514 C1.59708498,2.2937253 1.4229249,2.71245059 1.4229249,3.20158103 L1.4229249,12.4505929 C1.4229249,12.9397233 1.59708498,13.3584486 1.94540514,13.7067688 C2.2937253,14.0550889 2.71245059,14.229249 3.20158103,14.229249 L12.4505929,14.229249 C12.9397233,14.229249 13.3584486,14.0550889 13.7067688,13.7067688 C14.0550889,13.3584486 14.229249,12.9397233 14.229249,12.4505929 L14.229249,11.0499012 C14.229249,10.9535573 14.2625988,10.8720356 14.3292984,10.805336 L15.0407609,10.0938735 C15.1519269,9.98270751 15.2816206,9.95676877 15.4298419,10.0160573 C15.5780632,10.0753458 15.6521739,10.1828063 15.6521739,10.3384387 Z M14.5849802,2.13438735 L17.7865613,5.33596838 L10.3162055,12.8063241 L7.11462451,12.8063241 L7.11462451,9.60474308 L14.5849802,2.13438735 Z M19.520751,3.60177866 L18.4980237,4.62450593 L15.2964427,1.4229249 L16.31917,0.400197628 C16.5266798,0.192687747 16.7786561,0.0889328063 17.0750988,0.0889328063 C17.3715415,0.0889328063 17.6235178,0.192687747 17.8310277,0.400197628 L19.520751,2.08992095 C19.7282609,2.29743083 19.8320158,2.54940711 19.8320158,2.8458498 C19.8320158,3.14229249 19.7282609,3.39426877 19.520751,3.60177866 Z" id="Shape"></path>
        </g>
    </g>
</svg>