<?xml version="1.0" encoding="UTF-8"?>
<svg width="20px" height="20px" viewBox="0 0 20 20" version="1.1" xmlns="http://www.w3.org/2000/svg" xmlns:xlink="http://www.w3.org/1999/xlink">
    <!-- Generator: Sketch 50.2 (55047) - http://www.bohemiancoding.com/sketch -->
    <title>ic/menu/folder-gray</title>
    <desc>Created with Sketch.</desc>
    <defs></defs>
    <g id="ic/menu/folder-gray" stroke="none" stroke-width="1" fill="none" fill-rule="evenodd">
        <path d="M18.4615385,16.2307692 L18.4615385,7.76923077 C18.4615385,7.44871795 18.349359,7.17628205 18.125,6.95192308 C17.900641,6.7275641 17.6282051,6.61538462 17.3076923,6.61538462 L8.84615385,6.61538462 C8.52564103,6.61538462 8.25320513,6.50320513 8.02884615,6.27884615 C7.80448718,6.05448718 7.69230769,5.78205128 7.69230769,5.46153846 L7.69230769,4.69230769 C7.69230769,4.37179487 7.58012821,4.09935897 7.35576923,3.875 C7.13141026,3.65064103 6.85897436,3.53846154 6.53846154,3.53846154 L2.69230769,3.53846154 C2.37179487,3.53846154 2.09935897,3.65064103 1.875,3.875 C1.65064103,4.09935897 1.53846154,4.37179487 1.53846154,4.69230769 L1.53846154,16.2307692 C1.53846154,16.5512821 1.65064103,16.8237179 1.875,17.0480769 C2.09935897,17.2724359 2.37179487,17.3846154 2.69230769,17.3846154 L17.3076923,17.3846154 C17.6282051,17.3846154 17.900641,17.2724359 18.125,17.0480769 C18.349359,16.8237179 18.4615385,16.5512821 18.4615385,16.2307692 Z M20,7.76923077 L20,16.2307692 C20,16.9679487 19.7355769,17.6009615 19.2067308,18.1298077 C18.6778846,18.6586538 18.0448718,18.9230769 17.3076923,18.9230769 L2.69230769,18.9230769 C1.95512821,18.9230769 1.32211538,18.6586538 0.793269231,18.1298077 C0.264423077,17.6009615 0,16.9679487 0,16.2307692 L0,4.69230769 C0,3.95512821 0.264423077,3.32211538 0.793269231,2.79326923 C1.32211538,2.26442308 1.95512821,2 2.69230769,2 L6.53846154,2 C7.27564103,2 7.90865385,2.26442308 8.4375,2.79326923 C8.96634615,3.32211538 9.23076923,3.95512821 9.23076923,4.69230769 L9.23076923,5.07692308 L17.3076923,5.07692308 C18.0448718,5.07692308 18.6778846,5.34134615 19.2067308,5.87019231 C19.7355769,6.39903846 20,7.03205128 20,7.76923077 Z" id="Shape" fill="#D5D5D5" fill-rule="nonzero"></path>
    </g>
</svg>