<?xml version="1.0" encoding="UTF-8"?>
<svg width="14px" height="14px" viewBox="0 0 14 14" version="1.1" xmlns="http://www.w3.org/2000/svg" xmlns:xlink="http://www.w3.org/1999/xlink">
    <!-- Generator: Sketch 50.2 (55047) - http://www.bohemiancoding.com/sketch -->
    <title>ic/info</title>
    <desc>Created with Sketch.</desc>
    <defs></defs>
    <g id="ic/info" stroke="none" stroke-width="1" fill="none" fill-rule="evenodd">
        <circle id="Oval" fill="#979797" cx="7" cy="7" r="7"></circle>
        <path d="M5.5,10.2123769 C5.5,10.1186118 5.52250329,9.97046515 5.56751055,9.76793249 C5.59376478,9.65166374 5.63314554,9.49789125 5.68565401,9.30661041 L6.37763713,6.71870605 C6.38513834,6.68870121 6.3917018,6.65869682 6.39732771,6.62869198 C6.40295361,6.59868714 6.40576653,6.57055803 6.40576653,6.5443038 C6.40576653,6.390529 6.3570094,6.29489001 6.25949367,6.25738397 C6.16197795,6.21987792 5.98382689,6.19549935 5.72503516,6.18424754 L5.72503516,5.88045007 C5.94257024,5.86544765 6.25855395,5.83450563 6.67299578,5.78762307 C7.08743761,5.74074051 7.38091803,5.70042211 7.55344585,5.66666667 L8.04852321,5.57102672 L7.15400844,8.85091421 C7.07899634,9.13220956 7.02836394,9.32723809 7.0021097,9.43600563 C6.93459882,9.71355038 6.90084388,9.89357671 6.90084388,9.97609001 C6.90084388,10.0586033 6.91959662,10.1120486 6.95710267,10.1364276 C6.99460872,10.1608065 7.03586475,10.1729958 7.08087201,10.1729958 C7.19714076,10.1729958 7.34153688,10.0736062 7.5140647,9.87482419 C7.68659252,9.67604214 7.83848973,9.46788669 7.9697609,9.25035162 L8.22292546,9.41350211 C7.84786498,9.96484101 7.56094802,10.3361453 7.36216596,10.5274262 C7.03586335,10.842477 6.68706233,11 6.31575246,11 C6.10571859,11 5.91725353,10.935303 5.75035162,10.8059072 C5.5834497,10.6765113 5.5,10.4786699 5.5,10.2123769 Z M7.7278481,3 C7.94163257,3 8.12353418,3.07501097 8.27355837,3.22503516 C8.42358256,3.37505935 8.49859353,3.55696096 8.49859353,3.77074543 C8.49859353,3.9845299 8.42358256,4.16736914 8.27355837,4.31926864 C8.12353418,4.47116813 7.94163257,4.54711674 7.7278481,4.54711674 C7.51406363,4.54711674 7.33122439,4.47116813 7.17932489,4.31926864 C7.0274254,4.16736914 6.95147679,3.9845299 6.95147679,3.77074543 C6.95147679,3.55696096 7.0274254,3.37505935 7.17932489,3.22503516 C7.33122439,3.07501097 7.51406363,3 7.7278481,3 Z" id="i" fill="#FFFFFF"></path>
    </g>
</svg>