<?xml version="1.0" encoding="UTF-8"?>
<svg width="20px" height="20px" viewBox="0 0 20 20" version="1.1" xmlns="http://www.w3.org/2000/svg" xmlns:xlink="http://www.w3.org/1999/xlink">
    <!-- Generator: Sketch 50.2 (55047) - http://www.bohemiancoding.com/sketch -->
    <title>ic/arrow/revert</title>
    <desc>Created with Sketch.</desc>
    <defs>
        <polygon id="path-1" points="0.000145307787 0.31413913 17.8785 0.31413913 17.8785 17.2173913 0.000145307787 17.2173913"></polygon>
    </defs>
    <g id="ic/arrow/revert" stroke="none" stroke-width="1" fill="none" fill-rule="evenodd">
        <g id="Page-1" transform="translate(1.000000, 1.000000)">
            <g id="Group-3" transform="translate(0.000000, 0.468470)">
                <mask id="mask-2" fill="white">
                    <use xlink:href="#path-1"></use>
                </mask>
                <g id="Clip-2"></g>
                <path d="M9.779325,0.31413913 C5.312325,0.31413913 1.679325,4.10509565 1.679325,8.76553043 L0.441825,8.76553043 C0.014325,8.76553043 -0.128175,9.0597913 0.126825,9.41822609 L1.994325,12.0556174 C2.248575,12.4140522 2.664825,12.4140522 2.919075,12.0556174 L4.786575,9.41822609 C5.040825,9.0597913 4.899075,8.76553043 4.471575,8.76553043 L3.234075,8.76553043 C3.234075,5.0004 6.170325,1.93570435 9.779325,1.93570435 C13.387575,1.93570435 16.324575,5.0004 16.324575,8.76553043 C16.324575,12.5306609 13.387575,15.5953565 9.779325,15.5953565 C9.349575,15.5953565 9.002325,15.9577043 9.002325,16.4061391 C9.002325,16.8553565 9.349575,17.2177043 9.779325,17.2177043 C14.245575,17.2177043 17.878575,13.4267478 17.878575,8.76553043 C17.878575,4.10509565 14.245575,0.31413913 9.779325,0.31413913" id="Fill-1" fill="#FEFEFE" mask="url(#mask-2)"></path>
            </g>
            <path d="M10.55565,5.11966957 C10.55565,4.67201739 10.2084,4.30888696 9.7794,4.30888696 C9.34965,4.30888696 9.0024,4.67201739 9.0024,5.11966957 L9.0024,8.42384348 L7.4949,8.42384348 C7.06515,8.42384348 6.7179,8.7861913 6.7179,9.23384348 C6.7179,9.68227826 7.06515,10.0446261 7.4949,10.0446261 L9.7794,10.0446261 C10.2084,10.0446261 10.55565,9.68227826 10.55565,9.23384348 L10.55565,5.11966957 Z" id="Fill-4" fill="#FEFEFE"></path>
        </g>
    </g>
</svg>