<?xml version="1.0" encoding="UTF-8"?>
<svg width="20px" height="20px" viewBox="0 0 20 20" version="1.1" xmlns="http://www.w3.org/2000/svg" xmlns:xlink="http://www.w3.org/1999/xlink">
    <!-- Generator: Sketch 50.2 (55047) - http://www.bohemiancoding.com/sketch -->
    <title>ic/search-gray</title>
    <desc>Created with Sketch.</desc>
    <defs></defs>
    <g id="ic/search-gray" stroke="none" stroke-width="1" fill="none" fill-rule="evenodd">
        <g id="search" transform="translate(1.000000, 1.000000)" fill="#D5D5D5" fill-rule="nonzero">
            <path d="M12.4615385,7.61538462 C12.4615385,6.28125 11.9873798,5.14002404 11.0390625,4.19170673 C10.0907452,3.24338942 8.94951923,2.76923077 7.61538462,2.76923077 C6.28125,2.76923077 5.14002404,3.24338942 4.19170673,4.19170673 C3.24338942,5.14002404 2.76923077,6.28125 2.76923077,7.61538462 C2.76923077,8.94951923 3.24338942,10.0907452 4.19170673,11.0390625 C5.14002404,11.9873798 6.28125,12.4615385 7.61538462,12.4615385 C8.94951923,12.4615385 10.0907452,11.9873798 11.0390625,11.0390625 C11.9873798,10.0907452 12.4615385,8.94951923 12.4615385,7.61538462 Z M18,16.6153846 C18,16.9903846 17.8629808,17.3149038 17.5889423,17.5889423 C17.3149038,17.8629808 16.9903846,18 16.6153846,18 C16.2259615,18 15.9014423,17.8629808 15.6418269,17.5889423 L11.9314904,13.8894231 C10.640625,14.7836538 9.20192308,15.2307692 7.61538462,15.2307692 C6.58413462,15.2307692 5.59795673,15.030649 4.65685096,14.6304087 C3.71574519,14.2301683 2.90444712,13.6893029 2.22295673,13.0078125 C1.54146635,12.3263221 1.00060096,11.515024 0.600360577,10.5739183 C0.200120192,9.6328125 0,8.64663462 0,7.61538462 C0,6.58413462 0.200120192,5.59795673 0.600360577,4.65685096 C1.00060096,3.71574519 1.54146635,2.90444712 2.22295673,2.22295673 C2.90444712,1.54146635 3.71574519,1.00060096 4.65685096,0.600360577 C5.59795673,0.200120192 6.58413462,0 7.61538462,0 C8.64663462,0 9.6328125,0.200120192 10.5739183,0.600360577 C11.515024,1.00060096 12.3263221,1.54146635 13.0078125,2.22295673 C13.6893029,2.90444712 14.2301683,3.71574519 14.6304087,4.65685096 C15.030649,5.59795673 15.2307692,6.58413462 15.2307692,7.61538462 C15.2307692,9.20192308 14.7836538,10.640625 13.8894231,11.9314904 L17.5997596,15.6418269 C17.8665865,15.9086538 18,16.2331731 18,16.6153846 Z" id="Shape"></path>
        </g>
    </g>
</svg>