<?xml version="1.0" encoding="UTF-8"?>
<svg width="20px" height="20px" viewBox="0 0 20 20" version="1.1" xmlns="http://www.w3.org/2000/svg" xmlns:xlink="http://www.w3.org/1999/xlink">
    <!-- Generator: Sketch 50.2 (55047) - http://www.bohemiancoding.com/sketch -->
    <title>ic/settings-white</title>
    <desc>Created with Sketch.</desc>
    <defs></defs>
    <g id="ic/settings-white" stroke="none" stroke-width="1" fill="none" fill-rule="evenodd">
        <g id="cog" transform="translate(1.000000, 1.000000)" fill="#FFFFFF" fill-rule="nonzero">
            <path d="M12,9 C12,8.171875 11.7070312,7.46484375 11.1210938,6.87890625 C10.5351562,6.29296875 9.828125,6 9,6 C8.171875,6 7.46484375,6.29296875 6.87890625,6.87890625 C6.29296875,7.46484375 6,8.171875 6,9 C6,9.828125 6.29296875,10.5351562 6.87890625,11.1210938 C7.46484375,11.7070312 8.171875,12 9,12 C9.828125,12 10.5351562,11.7070312 11.1210938,11.1210938 C11.7070312,10.5351562 12,9.828125 12,9 Z M18,7.72265625 L18,10.3242188 C18,10.4179688 17.96875,10.5078125 17.90625,10.59375 C17.84375,10.6796875 17.765625,10.7304688 17.671875,10.7460938 L15.5039062,11.0742188 C15.3554688,11.4960938 15.203125,11.8515625 15.046875,12.140625 C15.3203125,12.53125 15.7382812,13.0703125 16.3007812,13.7578125 C16.3789062,13.8515625 16.4179688,13.9492188 16.4179688,14.0507812 C16.4179688,14.1523438 16.3828125,14.2421875 16.3125,14.3203125 C16.1015625,14.609375 15.7148438,15.03125 15.1523438,15.5859375 C14.5898438,16.140625 14.2226563,16.4179688 14.0507812,16.4179688 C13.9570312,16.4179688 13.8554688,16.3828125 13.7460938,16.3125 L12.1289062,15.046875 C11.7851562,15.2265625 11.4296875,15.375 11.0625,15.4921875 C10.9375,16.5546875 10.8242188,17.28125 10.7226562,17.671875 C10.6679687,17.890625 10.5273437,18 10.3007812,18 L7.69921875,18 C7.58984375,18 7.49414062,17.9667969 7.41210938,17.9003906 C7.33007812,17.8339844 7.28515625,17.75 7.27734375,17.6484375 L6.94921875,15.4921875 C6.56640625,15.3671875 6.21484375,15.2226562 5.89453125,15.0585938 L4.2421875,16.3125 C4.1640625,16.3828125 4.06640625,16.4179688 3.94921875,16.4179688 C3.83984375,16.4179688 3.7421875,16.375 3.65625,16.2890625 C2.671875,15.3984375 2.02734375,14.7421875 1.72265625,14.3203125 C1.66796875,14.2421875 1.640625,14.1523438 1.640625,14.0507812 C1.640625,13.9570312 1.671875,13.8671875 1.734375,13.78125 C1.8515625,13.6171875 2.05078125,13.3574219 2.33203125,13.0019531 C2.61328125,12.6464844 2.82421875,12.3710938 2.96484375,12.1757812 C2.75390625,11.7851562 2.59375,11.3984375 2.484375,11.015625 L0.33984375,10.6992188 C0.23828125,10.6835938 0.15625,10.6347656 0.09375,10.5527344 C0.03125,10.4707031 0,10.3789062 0,10.2773438 L0,7.67578125 C0,7.58203125 0.03125,7.4921875 0.09375,7.40625 C0.15625,7.3203125 0.23046875,7.26953125 0.31640625,7.25390625 L2.49609375,6.92578125 C2.60546875,6.56640625 2.7578125,6.20703125 2.953125,5.84765625 C2.640625,5.40234375 2.22265625,4.86328125 1.69921875,4.23046875 C1.62109375,4.13671875 1.58203125,4.04296875 1.58203125,3.94921875 C1.58203125,3.87109375 1.6171875,3.78125 1.6875,3.6796875 C1.890625,3.3984375 2.27539062,2.97851562 2.84179688,2.41992188 C3.40820312,1.86132812 3.77734375,1.58203125 3.94921875,1.58203125 C4.05078125,1.58203125 4.15234375,1.62109375 4.25390625,1.69921875 L5.87109375,2.953125 C6.21484375,2.7734375 6.5703125,2.625 6.9375,2.5078125 C7.0625,1.4453125 7.17578125,0.71875 7.27734375,0.328125 C7.33203125,0.109375 7.47265625,0 7.69921875,0 L10.3007812,0 C10.4101563,0 10.5058594,0.033203125 10.5878906,0.099609375 C10.6699219,0.166015625 10.7148438,0.25 10.7226562,0.3515625 L11.0507812,2.5078125 C11.4335938,2.6328125 11.7851562,2.77734375 12.1054688,2.94140625 L13.7695312,1.6875 C13.8398438,1.6171875 13.9335938,1.58203125 14.0507812,1.58203125 C14.1523438,1.58203125 14.25,1.62109375 14.34375,1.69921875 C15.3515625,2.62890625 15.9960938,3.29296875 16.2773438,3.69140625 C16.3320312,3.75390625 16.359375,3.83984375 16.359375,3.94921875 C16.359375,4.04296875 16.328125,4.1328125 16.265625,4.21875 C16.1484375,4.3828125 15.9492188,4.64257812 15.6679688,4.99804688 C15.3867188,5.35351563 15.1757812,5.62890625 15.0351562,5.82421875 C15.2382812,6.21484375 15.3984375,6.59765625 15.515625,6.97265625 L17.6601562,7.30078125 C17.7617188,7.31640625 17.84375,7.36523438 17.90625,7.44726562 C17.96875,7.52929688 18,7.62109375 18,7.72265625 Z" id="Shape"></path>
        </g>
    </g>
</svg>