<?xml version="1.0" encoding="UTF-8"?>
<svg width="48px" height="48px" viewBox="0 0 48 48" version="1.1" xmlns="http://www.w3.org/2000/svg" xmlns:xlink="http://www.w3.org/1999/xlink">
    <!-- Generator: Sketch 50.2 (55047) - http://www.bohemiancoding.com/sketch -->
    <title>video/playlist-selected</title>
    <desc>Created with Sketch.</desc>
    <defs></defs>
    <g id="video/playlist-selected" stroke="none" stroke-width="1" fill="none" fill-rule="evenodd">
        <g id="Page-1" transform="translate(3.000000, 7.000000)" fill="#23598E">
            <path d="M28.55875,31.375 L38.67625,31.375 L38.67625,2.625 L28.55875,2.625 L28.55875,31.375 Z M3.325,31.375 L26.05875,31.375 L26.05875,2.625 L3.325,2.625 L3.325,31.375 Z M39.92625,0.125 L2.075,0.125 C1.385,0.125 0.825,0.68375 0.825,1.375 L0.825,32.625 C0.825,33.31625 1.385,33.875 2.075,33.875 L39.92625,33.875 C40.61625,33.875 41.17625,33.31625 41.17625,32.625 L41.17625,1.375 C41.17625,0.68375 40.61625,0.125 39.92625,0.125 Z" id="Fill-1"></path>
            <path d="M10.4385,20.669375 L10.4385,13.330625 L17.48975,16.999375 L10.4385,20.669375 Z M20.77475,15.891875 L9.766,10.163125 C9.37725,9.959375 8.9135,9.975625 8.53975,10.203125 C8.16725,10.429375 7.9385,10.834375 7.9385,11.270625 L7.9385,22.728125 C7.9385,23.165625 8.16725,23.570625 8.53975,23.796875 C8.73975,23.918125 8.9635,23.978125 9.1885,23.978125 C9.386,23.978125 9.5835,23.931875 9.766,23.836875 L20.77475,18.108125 C21.18725,17.893125 21.44725,17.465625 21.44725,16.999375 C21.44725,16.533125 21.18725,16.106875 20.77475,15.891875 Z" id="Fill-3"></path>
            <path d="M31.11725,10.4375 L36.11725,10.4375 C36.8085,10.4375 37.36725,9.87875 37.36725,9.1875 C37.36725,8.49625 36.8085,7.9375 36.11725,7.9375 L31.11725,7.9375 C30.426,7.9375 29.86725,8.49625 29.86725,9.1875 C29.86725,9.87875 30.426,10.4375 31.11725,10.4375" id="Fill-4"></path>
            <path d="M31.11725,18.25 L36.11725,18.25 C36.8085,18.25 37.36725,17.69125 37.36725,17 C37.36725,16.30875 36.8085,15.75 36.11725,15.75 L31.11725,15.75 C30.426,15.75 29.86725,16.30875 29.86725,17 C29.86725,17.69125 30.426,18.25 31.11725,18.25" id="Fill-5"></path>
            <path d="M36.11725,23.5625 L31.11725,23.5625 C30.426,23.5625 29.86725,24.12125 29.86725,24.8125 C29.86725,25.50375 30.426,26.0625 31.11725,26.0625 L36.11725,26.0625 C36.8085,26.0625 37.36725,25.50375 37.36725,24.8125 C37.36725,24.12125 36.8085,23.5625 36.11725,23.5625" id="Fill-6"></path>
        </g>
    </g>
</svg>