<?xml version="1.0" encoding="utf-8"?>
<!-- Generator: Adobe Illustrator 21.1.0, SVG Export Plug-In . SVG Version: 6.00 Build 0)  -->
<svg version="1.1" id="Layer_1" xmlns="http://www.w3.org/2000/svg" xmlns:xlink="http://www.w3.org/1999/xlink" x="0px" y="0px"
	 viewBox="0 0 91 56" style="enable-background:new 0 0 91 56;" xml:space="preserve">
<style type="text/css">
	.st0{fill:#D5D5D5;}
</style>
<path id="Fill-1" class="st0" d="M17.6,15.4c0-1.2,1-2.2,2.2-2.2h51.5c1.2,0,2.2,1,2.2,2.2v25.1c0,1.2-1,2.2-2.2,2.2H19.8
	c-1.2,0-2.2-1-2.2-2.2V15.4z"/>
<path id="Rectangle-7" class="st0" d="M6,2C3.8,2,2,3.8,2,6v44c0,2.2,1.8,4,4,4h79c2.2,0,4-1.8,4-4V6c0-2.2-1.8-4-4-4H6z M6,0h79
	c3.3,0,6,2.7,6,6v44c0,3.3-2.7,6-6,6H6c-3.3,0-6-2.7-6-6V6C0,2.7,2.7,0,6,0z"/>
</svg>
