<?xml version="1.0" encoding="UTF-8"?>
<svg width="48px" height="48px" viewBox="0 0 48 48" version="1.1" xmlns="http://www.w3.org/2000/svg" xmlns:xlink="http://www.w3.org/1999/xlink">
    <!-- Generator: Sketch 50.2 (55047) - http://www.bohemiancoding.com/sketch -->
    <title>blocks/audio-selected</title>
    <desc>Created with Sketch.</desc>
    <defs></defs>
    <g id="blocks/audio-selected" stroke="none" stroke-width="1" fill="none" fill-rule="evenodd">
        <g id="Page-1" transform="translate(6.000000, 4.000000)" fill="#23598E">
            <path d="M35.052,1.464875 C34.6345,1.048625 34.14075,0.846125 33.5445,0.846125 C33.312,0.846125 33.10575,0.874875 32.942,0.928625 L13.662,6.862375 C13.22825,7.009875 12.86825,7.272375 12.59325,7.643625 C12.3145,8.017375 12.172,8.438625 12.172,8.894875 L12.172,31.408625 L12.04075,31.349875 C10.14575,30.501125 8.00075,30.164875 5.427,30.697375 C4.64825,30.854875 3.847,31.101125 3.0445,31.431125 C2.262,31.754875 1.6045,32.218625 1.0895,32.807375 C0.5845,33.388625 0.32825,34.059875 0.32825,34.804875 C0.32825,35.549875 0.5845,36.221125 1.092,36.802375 C1.60575,37.389875 2.26325,37.851125 3.047,38.176125 C3.82825,38.499875 4.627,38.747375 5.427,38.913625 C6.2295,39.076125 6.93075,39.151125 7.6345,39.151125 C8.34325,39.151125 9.04575,39.074875 9.852,38.909875 C10.6445,38.747375 11.442,38.499875 12.2245,38.176125 C13.00825,37.853625 13.667,37.391125 14.182,36.802375 C14.68825,36.221125 14.9445,35.549875 14.9445,34.804875 L14.9445,18.332375 L32.897,12.793625 L32.897,25.486125 L32.76575,25.427375 C30.67325,24.491125 28.5645,24.286125 26.14825,24.773625 C25.36325,24.934875 24.5645,25.183625 23.77575,25.508625 C22.99325,25.829875 22.33325,26.292375 21.81825,26.883625 C21.312,27.464875 21.05575,28.136125 21.05575,28.881125 C21.05575,29.626125 21.312,30.298625 21.81825,30.879875 C22.3345,31.471125 22.99325,31.933625 23.77325,32.254875 C24.56325,32.581125 25.362,32.828625 26.14825,32.989875 C27.722,33.312375 29.002,33.312375 30.57325,32.989875 C31.34825,32.833625 32.1495,32.586125 32.95575,32.254875 C33.73575,31.932375 34.39325,31.469875 34.91075,30.877375 C35.41575,30.296125 35.672,29.624875 35.672,28.881125 L35.672,2.973625 C35.672,2.376125 35.4695,1.882375 35.052,1.464875" id="Fill-1"></path>
        </g>
    </g>
</svg>