<?xml version="1.0" encoding="UTF-8"?>
<svg width="48px" height="48px" viewBox="0 0 48 48" version="1.1" xmlns="http://www.w3.org/2000/svg" xmlns:xlink="http://www.w3.org/1999/xlink">
    <!-- Generator: Sketch 50.2 (55047) - http://www.bohemiancoding.com/sketch -->
    <title>blocks/calendar</title>
    <desc>Created with Sketch.</desc>
    <defs></defs>
    <g id="blocks/calendar" stroke="none" stroke-width="1" fill="none" fill-rule="evenodd">
        <g id="Page-1" transform="translate(7.000000, 5.000000)" fill="#727376">
            <path d="M25.7175,19.67125 L31.75125,19.67125 L31.75125,13.63875 L25.7175,13.63875 L25.7175,19.67125 Z M25.7175,27.71875 L31.75125,27.71875 L31.75125,21.01375 L25.7175,21.01375 L25.7175,27.71875 Z M25.7175,35.0925 L31.75125,35.0925 L31.75125,29.05875 L25.7175,29.05875 L25.7175,35.0925 Z M23.46375,10.5325 C23.21125,10.27875 23.07875,9.96375 23.07875,9.61375 L23.07875,3.58 C23.07875,3.23 23.2125,2.9125 23.46375,2.66375 C23.71,2.41625 24.02625,2.285 24.375,2.285 L25.7175,2.285 C26.065,2.285 26.38125,2.41625 26.63,2.66625 C26.87875,2.9125 27.0125,3.23 27.0125,3.58 L27.0125,9.61375 C27.0125,9.96375 26.88,10.27875 26.63,10.53 C26.37875,10.77875 26.06375,10.90875 25.7175,10.90875 L24.375,10.90875 C24.0275,10.90875 23.7125,10.77875 23.46375,10.5325 Z M17.67,19.67125 L24.375,19.67125 L24.375,13.63875 L17.67,13.63875 L17.67,19.67125 Z M17.67,27.71875 L24.375,27.71875 L24.375,21.01375 L17.67,21.01375 L17.67,27.71875 Z M17.67,35.0925 L24.375,35.0925 L24.375,29.05875 L17.67,29.05875 L17.67,35.0925 Z M9.625,19.67125 L16.33,19.67125 L16.33,13.63875 L9.625,13.63875 L9.625,19.67125 Z M9.625,27.71875 L16.33,27.71875 L16.33,21.01375 L9.625,21.01375 L9.625,27.71875 Z M9.625,35.0925 L16.33,35.0925 L16.33,29.05875 L9.625,29.05875 L9.625,35.0925 Z M7.3725,10.5325 C7.12,10.27875 6.9875,9.96375 6.9875,9.61375 L6.9875,3.58 C6.9875,3.23 7.12125,2.9125 7.3725,2.66375 C7.61875,2.41625 7.935,2.285 8.2825,2.285 L9.625,2.285 C9.97375,2.285 10.29,2.41625 10.53875,2.66625 C10.7875,2.9125 10.92125,3.23 10.92125,3.58 L10.92125,9.61375 C10.92125,9.96375 10.78875,10.27875 10.53875,10.53 C10.2875,10.77875 9.9725,10.90875 9.625,10.90875 L8.2825,10.90875 C7.93625,10.90875 7.62125,10.77875 7.3725,10.5325 Z M2.24875,19.67125 L8.2825,19.67125 L8.2825,13.63875 L2.24875,13.63875 L2.24875,19.67125 Z M2.24875,27.71875 L8.2825,27.71875 L8.2825,21.01375 L2.24875,21.01375 L2.24875,27.71875 Z M2.24875,35.0925 L8.2825,35.0925 L8.2825,29.05875 L2.24875,29.05875 L2.24875,35.0925 Z M33.19375,6.82875 C32.7825,6.41875 32.31125,6.2175 31.75125,6.2175 L28.44375,6.2175 L28.44375,3.58 C28.44375,2.82375 28.18125,2.19375 27.6425,1.6525 C27.1,1.11375 26.47,0.85125 25.7175,0.85125 L24.375,0.85125 C23.62125,0.85125 22.99125,1.11375 22.44875,1.65375 C21.91125,2.1925 21.64875,2.82375 21.64875,3.58 L21.64875,6.2175 L12.35125,6.2175 L12.35125,3.58 C12.35125,2.82375 12.08875,2.1925 11.55,1.6525 C11.00875,1.11375 10.37875,0.85125 9.625,0.85125 L8.2825,0.85125 C7.53,0.85125 6.9,1.11375 6.35625,1.65375 C5.81875,2.19375 5.55625,2.82375 5.55625,3.58 L5.55625,6.2175 L2.24875,6.2175 C1.68875,6.2175 1.2175,6.41875 0.80625,6.82875 C0.39375,7.2425 0.1925,7.71375 0.1925,8.2725 L0.1925,35.0925 C0.1925,35.65125 0.39375,36.1225 0.80625,36.53625 C1.2175,36.95 1.69,37.15125 2.24875,37.15125 L31.75125,37.15125 C32.31,37.15125 32.7825,36.95 33.1925,36.5375 C33.60625,36.1225 33.8075,35.65125 33.8075,35.0925 L33.8075,8.2725 C33.8075,7.71375 33.60625,7.2425 33.19375,6.82875 Z" id="Fill-1"></path>
        </g>
    </g>
</svg>