<?xml version="1.0" encoding="UTF-8"?>
<svg width="48px" height="48px" viewBox="0 0 48 48" version="1.1" xmlns="http://www.w3.org/2000/svg" xmlns:xlink="http://www.w3.org/1999/xlink">
    <!-- Generator: Sketch 50.2 (55047) - http://www.bohemiancoding.com/sketch -->
    <title>blocks/contactsenumeration-selected</title>
    <desc>Created with Sketch.</desc>
    <defs></defs>
    <g id="blocks/contactsenumeration-selected" stroke="none" stroke-width="1" fill="none" fill-rule="evenodd">
        <g id="Page-1" transform="translate(2.000000, 10.000000)" fill="#23598E">
            <path d="M22.8875,24.96925 L22.62125,24.98675 C22.415,24.99925 22.21,25.0155 22,25.0155 C18.79375,25.0155 15.90625,23.1455 14.5675,20.28175 C14.98625,19.39175 15.56375,18.58175 16.26625,17.893 C17.97,18.96925 19.94625,19.54675 22,19.54675 C24.05375,19.54675 26.02875,18.96925 27.735,17.893 C28.4375,18.5805 29.015,19.3905 29.43375,20.28175 C28.22625,22.8605 25.74,24.66425 22.8875,24.96925 M27.7425,14.7255 C26.2525,16.15925 24.23125,17.04675 22,17.04675 C19.76875,17.04675 17.7475,16.1605 16.2575,14.7255 C14.22875,16.01675 12.66875,17.968 11.8725,20.2805 C13.32,24.488 17.30125,27.5155 22,27.5155 C22.37125,27.5155 22.7325,27.48175 23.0975,27.4605 C27.3125,27.03175 30.795,24.15675 32.12875,20.2805 C31.3325,17.96675 29.77125,16.0155 27.7425,14.7255" id="Fill-1"></path>
            <path d="M18.7835,8.16875 C19.06975,6.61375 20.4235,5.485 21.99975,5.485 C23.5785,5.485 24.931,6.6125 25.216,8.1725 C25.261,8.4075 25.281,8.5975 25.281,8.76625 C25.281,9.85375 24.7435,10.86875 23.83975,11.48125 C23.29475,11.85125 22.65975,12.0475 21.99975,12.0475 C21.341,12.0475 20.70475,11.85125 20.161,11.48125 C19.25725,10.86875 18.7185,9.85375 18.7185,8.76625 C18.7185,8.59875 18.73975,8.405 18.7835,8.16875 M18.756,13.55 C19.681,14.17875 20.796,14.5475 21.99975,14.5475 C23.2035,14.5475 24.31975,14.17875 25.24475,13.55 C26.776,12.51 27.781,10.755 27.781,8.76625 C27.781,8.405 27.7385,8.0575 27.67475,7.71625 C27.181,5.025 24.8335,2.985 21.99975,2.985 C19.166,2.985 16.81975,5.02625 16.32475,7.7175 C16.261,8.0575 16.2185,8.40625 16.2185,8.76625 C16.2185,10.755 17.22475,12.51 18.756,13.55" id="Fill-3"></path>
            <path d="M37.035375,19.039125 C36.962875,18.881625 36.892875,18.721625 36.826625,18.567875 C36.416625,17.399125 35.866625,16.285375 35.194125,15.249125 C36.841625,15.194125 38.422875,14.726625 39.819125,13.897875 C40.291625,14.394125 40.691625,14.961625 40.997875,15.577875 C40.185375,17.216625 38.747875,18.462875 37.035375,19.039125 M39.874125,10.730375 C38.574125,11.981625 36.810375,12.755375 34.864125,12.755375 C32.990375,12.755375 31.290375,12.034125 30.006625,10.864125 C29.834125,11.519125 29.582875,12.147875 29.259125,12.737875 C31.689125,14.339125 33.546625,16.717875 34.492875,19.467875 C34.492875,19.467875 35.495375,21.842875 35.816625,21.842875 L35.820375,21.842875 C39.500375,21.467875 42.537875,18.960375 43.701625,15.576625 C43.006625,13.557875 41.645375,11.855375 39.874125,10.730375" id="Fill-5"></path>
            <path d="M32.369875,5.066875 C32.592375,3.859375 33.641125,2.984375 34.863625,2.984375 C36.087375,2.984375 37.136125,3.859375 37.357375,5.064375 C37.393625,5.255625 37.408625,5.404375 37.408625,5.529375 C37.408625,6.373125 36.991125,7.159375 36.287375,7.636875 C35.868625,7.921875 35.374875,8.073125 34.863625,8.073125 C34.352375,8.073125 33.858625,7.921875 33.437375,7.634375 C33.046125,7.369375 32.732375,6.989375 32.539875,6.553125 C32.487375,6.331875 32.427375,6.138125 32.377375,5.975625 L32.353625,5.899375 C32.329875,5.758125 32.318625,5.636875 32.318625,5.529375 C32.318625,5.404375 32.334875,5.256875 32.369875,5.066875 M30.133625,7.259375 C30.134875,7.266875 30.134875,7.273125 30.137375,7.280625 C30.504875,8.270625 31.171125,9.118125 32.032375,9.703125 C32.839875,10.251875 33.813625,10.573125 34.863625,10.573125 C35.913625,10.573125 36.887375,10.251875 37.694875,9.703125 C39.031125,8.795625 39.908625,7.265625 39.908625,5.529375 C39.908625,5.214375 39.871125,4.911875 39.816125,4.613125 C39.383625,2.265625 37.336125,0.484375 34.863625,0.484375 C32.391125,0.484375 30.343625,2.266875 29.911125,4.614375 C29.856125,4.911875 29.818625,5.215625 29.818625,5.529375 C29.818625,5.858125 29.858625,6.175625 29.919875,6.486875 C29.993625,6.743125 30.084875,6.991875 30.133625,7.259375" id="Fill-7"></path>
            <path d="M7.1465,18.652125 C7.119,18.733375 7.094,18.815875 7.074,18.899625 C7.05525,18.983375 7.034,19.070875 7.01275,19.160875 C5.26775,18.672125 3.849,17.422125 2.9965,15.592125 C3.30275,14.972125 3.704,14.399625 4.18025,13.897125 C5.57525,14.727125 7.159,15.194625 8.80775,15.249625 C8.119,16.310875 7.559,17.453375 7.1465,18.652125 M14.74025,12.738375 C14.4165,12.147125 14.16525,11.518375 13.994,10.863375 C12.709,12.033375 11.009,12.754625 9.13525,12.754625 C7.18775,12.754625 5.424,11.982125 4.124,10.729625 C2.354,11.855875 0.99275,13.559625 0.29775,15.577125 C1.56025,19.249625 4.619,21.890875 8.719,21.890875 C8.94525,21.890875 9.51025,19.465875 9.51025,19.465875 C10.45525,16.718375 12.3115,14.340875 14.74025,12.738375" id="Fill-9"></path>
            <path d="M6.641125,5.066875 C6.863625,3.859375 7.912375,2.984375 9.134875,2.984375 C10.358625,2.984375 11.407375,3.859375 11.628625,5.064375 C11.664875,5.255625 11.679875,5.404375 11.679875,5.529375 C11.679875,5.643125 11.667375,5.773125 11.641125,5.925625 L11.617375,6.004375 C11.569875,6.156875 11.514875,6.335625 11.464875,6.543125 C11.272375,6.983125 10.954875,7.368125 10.558625,7.636875 C10.139875,7.921875 9.646125,8.073125 9.134875,8.073125 C8.623625,8.073125 8.129875,7.921875 7.708625,7.634375 C7.007375,7.159375 6.589875,6.373125 6.589875,5.529375 C6.589875,5.404375 6.606125,5.256875 6.641125,5.066875 M6.303625,9.703125 C7.111125,10.251875 8.084875,10.573125 9.134875,10.573125 C10.184875,10.573125 11.158625,10.251875 11.966125,9.703125 C12.831125,9.115625 13.498625,8.265625 13.866125,7.269375 L13.866125,7.265625 C13.913625,7.006875 14.003625,6.765625 14.073625,6.516875 C14.137375,6.196875 14.179875,5.869375 14.179875,5.529375 C14.179875,5.214375 14.142375,4.911875 14.087375,4.613125 C13.654875,2.265625 11.607375,0.484375 9.134875,0.484375 C6.662375,0.484375 4.614875,2.266875 4.182375,4.614375 C4.127375,4.911875 4.089875,5.215625 4.089875,5.529375 C4.089875,7.265625 4.967375,8.795625 6.303625,9.703125" id="Fill-11"></path>
        </g>
    </g>
</svg>