<?xml version="1.0" encoding="UTF-8"?>
<svg width="48px" height="48px" viewBox="0 0 48 48" version="1.1" xmlns="http://www.w3.org/2000/svg" xmlns:xlink="http://www.w3.org/1999/xlink">
    <!-- Generator: Sketch 50.2 (55047) - http://www.bohemiancoding.com/sketch -->
    <title>blocks/folders</title>
    <desc>Created with Sketch.</desc>
    <defs></defs>
    <g id="blocks/folders" stroke="none" stroke-width="1" fill="none" fill-rule="evenodd">
        <g id="Page-1" transform="translate(2.000000, 5.000000)" fill="#727376">
            <path d="M41.836375,32.1365 C41.836375,33.02775 41.517625,33.79525 40.891375,34.41775 C40.268875,35.04275 39.501375,35.36025 38.612625,35.36025 L5.728875,35.36025 C4.841375,35.36025 4.073875,35.04275 3.447625,34.4165 C2.822625,33.79525 2.505125,33.02775 2.505125,32.1365 L2.505125,6.1765 C2.505125,5.289 2.822625,4.52275 3.446375,3.89525 C4.072625,3.2715 4.840125,2.95525 5.728875,2.95525 L14.380125,2.95525 C15.270125,2.95525 16.038875,3.2715 16.662625,3.894 C17.287625,4.519 17.603875,5.2865 17.603875,6.1765 L17.603875,7.9065 C17.603875,8.4615 17.791375,8.91775 18.176375,9.304 C18.562625,9.69025 19.018875,9.87775 19.572625,9.87775 L38.612625,9.87775 C39.502625,9.87775 40.268875,10.19525 40.892625,10.819 C41.518875,11.44525 41.836375,12.21275 41.836375,13.099 L41.836375,32.1365 Z M38.612625,7.6665 L19.816375,7.6665 L19.816375,6.1765 C19.816375,4.679 19.291375,3.4265 18.213875,2.34525 C17.133875,1.26775 15.880125,0.74275 14.380125,0.74275 L5.728875,0.74275 C4.227625,0.74275 2.973875,1.26775 1.900125,2.34525 C0.820125,3.424 0.296375,4.6765 0.296375,6.1765 L0.296375,32.1365 C0.296375,33.6365 0.820125,34.889 1.898875,35.96525 C2.975125,37.04525 4.227625,37.569 5.728875,37.569 L38.612625,37.569 C40.112625,37.569 41.365125,37.04525 42.442625,35.96525 C43.522625,34.889 44.046375,33.6365 44.046375,32.1365 L44.046375,13.099 C44.046375,11.599 43.522625,10.34525 42.442625,9.269 C41.366375,8.19025 40.113875,7.6665 38.612625,7.6665 Z" id="Fill-1"></path>
        </g>
    </g>
</svg>