<?xml version="1.0" encoding="UTF-8"?>
<svg width="48px" height="48px" viewBox="0 0 48 48" version="1.1" xmlns="http://www.w3.org/2000/svg" xmlns:xlink="http://www.w3.org/1999/xlink">
    <!-- Generator: Sketch 50.2 (55047) - http://www.bohemiancoding.com/sketch -->
    <title>blocks/forms-selected</title>
    <desc>Created with Sketch.</desc>
    <defs></defs>
    <g id="blocks/forms-selected" stroke="none" stroke-width="1" fill="none" fill-rule="evenodd">
        <g id="Page-1" transform="translate(7.000000, 8.000000)" fill="#23598E">
            <path d="M3.25,5.58375 L13.25,5.58375 L13.25,3.08375 L3.25,3.08375 L3.25,5.58375 Z M2,8.08375 L14.5,8.08375 C15.19125,8.08375 15.75,7.525 15.75,6.83375 L15.75,1.83375 C15.75,1.1425 15.19125,0.58375 14.5,0.58375 L2,0.58375 C1.30875,0.58375 0.75,1.1425 0.75,1.83375 L0.75,6.83375 C0.75,7.525 1.30875,8.08375 2,8.08375 Z" id="Fill-2"></path>
            <path d="M20.75,5.58375 L30.75,5.58375 L30.75,3.08375 L20.75,3.08375 L20.75,5.58375 Z M32,0.58375 L19.5,0.58375 C18.80875,0.58375 18.25,1.1425 18.25,1.83375 L18.25,6.83375 C18.25,7.525 18.80875,8.08375 19.5,8.08375 L32,8.08375 C32.69125,8.08375 33.25,7.525 33.25,6.83375 L33.25,1.83375 C33.25,1.1425 32.69125,0.58375 32,0.58375 Z" id="Fill-4"></path>
            <path d="M3.25,29.33375 L30.75,29.33375 L30.75,13.08375 L3.25,13.08375 L3.25,29.33375 Z M32,10.58375 L2,10.58375 C1.30875,10.58375 0.75,11.1425 0.75,11.83375 L0.75,30.58375 C0.75,31.275 1.30875,31.83375 2,31.83375 L32,31.83375 C32.69125,31.83375 33.25,31.275 33.25,30.58375 L33.25,11.83375 C33.25,11.1425 32.69125,10.58375 32,10.58375 Z" id="Fill-5"></path>
        </g>
    </g>
</svg>