<?xml version="1.0" encoding="UTF-8"?>
<svg width="48px" height="48px" viewBox="0 0 48 48" version="1.1" xmlns="http://www.w3.org/2000/svg" xmlns:xlink="http://www.w3.org/1999/xlink">
    <!-- Generator: Sketch 50.2 (55047) - http://www.bohemiancoding.com/sketch -->
    <title>blocks/images</title>
    <desc>Created with Sketch.</desc>
    <defs></defs>
    <g id="blocks/images" stroke="none" stroke-width="1" fill="none" fill-rule="evenodd">
        <g id="Page-1" transform="translate(1.000000, 5.000000)" fill="#727376">
            <path d="M10.825875,15.37425 C12.093375,15.37425 13.169625,14.9305 14.058375,14.0405 C14.947125,13.153 15.390875,12.0755 15.390875,10.80925 C15.390875,9.53925 14.947125,8.4605 14.058375,7.57425 C13.169625,6.68675 12.093375,6.243 10.825875,6.243 C9.557125,6.243 8.478375,6.68675 7.589625,7.57425 C6.702125,8.4605 6.260875,9.53925 6.260875,10.80925 C6.260875,12.0755 6.702125,13.153 7.589625,14.0405 C8.478375,14.9305 9.557125,15.37425 10.825875,15.37425" id="Fill-2"></path>
            <polygon id="Fill-4" points="17.674125 22.222375 13.867875 18.417375 6.260375 26.026125 6.260375 30.591125 39.739125 30.591125 39.739125 19.941125 29.847875 10.046125"></polygon>
            <path d="M2.901125,3.9595 C2.901125,3.67075 3.012375,3.40825 3.224875,3.1995 C3.428625,2.9945 3.688625,2.88575 3.976125,2.88575 L42.023625,2.88575 C42.311125,2.88575 42.573625,2.99575 42.783625,3.207 C42.989875,3.41075 43.098625,3.67075 43.098625,3.9595 L43.098625,32.87575 C43.098625,33.1645 42.987375,33.427 42.774875,33.63575 C42.571125,33.84075 42.311125,33.9495 42.023625,33.9495 L3.976125,33.9495 C3.688625,33.9495 3.426125,33.8395 3.216125,33.627 C3.009875,33.4245 2.901125,33.1645 2.901125,32.87575 L2.901125,3.9595 Z M44.489875,1.49075 C43.799875,0.802 42.992375,0.467 42.023625,0.467 L3.976125,0.467 C3.007375,0.467 2.198625,0.80325 1.507375,1.49325 C0.817375,2.1845 0.482375,2.99075 0.482375,3.9595 L0.482375,32.87575 C0.482375,33.8445 0.818625,34.652 1.509875,35.34325 C2.199875,36.03325 3.007375,36.36825 3.976125,36.36825 L42.023625,36.36825 C42.992375,36.36825 43.801125,36.032 44.492375,35.34075 C45.182375,34.65075 45.517375,33.8445 45.517375,32.87575 L45.517375,3.9595 C45.517375,2.99075 45.181125,2.18325 44.489875,1.49075 Z" id="Fill-6"></path>
        </g>
    </g>
</svg>