<?xml version="1.0" encoding="UTF-8"?>
<svg width="48px" height="48px" viewBox="0 0 48 48" version="1.1" xmlns="http://www.w3.org/2000/svg" xmlns:xlink="http://www.w3.org/1999/xlink">
    <!-- Generator: Sketch 50.2 (55047) - http://www.bohemiancoding.com/sketch -->
    <title>blocks/multicontent</title>
    <desc>Created with Sketch.</desc>
    <defs></defs>
    <g id="blocks/multicontent" stroke="none" stroke-width="1" fill="none" fill-rule="evenodd">
        <g id="Page-1" transform="translate(7.000000, 7.000000)" fill="#727376">
            <path d="M3.25,30.75125 L13.25,30.75125 L13.25,4.08375 L3.25,4.08375 L3.25,30.75125 Z M14.5,1.58375 L2,1.58375 C1.30875,1.58375 0.75,2.1425 0.75,2.83375 L0.75,32.00125 C0.75,32.6925 1.30875,33.25125 2,33.25125 L14.5,33.25125 C15.19125,33.25125 15.75,32.6925 15.75,32.00125 L15.75,2.83375 C15.75,2.1425 15.19125,1.58375 14.5,1.58375 Z" id="Fill-2"></path>
            <path d="M20.75,30.75125 L30.75,30.75125 L30.75,4.08375 L20.75,4.08375 L20.75,30.75125 Z M32,1.58375 L19.5,1.58375 C18.80875,1.58375 18.25,2.1425 18.25,2.83375 L18.25,32.00125 C18.25,32.6925 18.80875,33.25125 19.5,33.25125 L32,33.25125 C32.69125,33.25125 33.25,32.6925 33.25,32.00125 L33.25,2.83375 C33.25,2.1425 32.69125,1.58375 32,1.58375 Z" id="Fill-4"></path>
        </g>
    </g>
</svg>