<?xml version="1.0" encoding="UTF-8"?>
<svg width="48px" height="48px" viewBox="0 0 48 48" version="1.1" xmlns="http://www.w3.org/2000/svg" xmlns:xlink="http://www.w3.org/1999/xlink">
    <!-- Generator: Sketch 50.2 (55047) - http://www.bohemiancoding.com/sketch -->
    <title>blocks/news-selected</title>
    <desc>Created with Sketch.</desc>
    <defs></defs>
    <g id="blocks/news-selected" stroke="none" stroke-width="1" fill="none" fill-rule="evenodd">
        <g id="Page-1" transform="translate(0.000000, 8.000000)" fill="#23598E">
            <path d="M0.5,0.53125 L0.5,27.25 C0.5,28.42125 0.91,29.4175 1.73,30.23875 C2.55125,31.05875 3.5475,31.46875 4.71875,31.46875 L41.28125,31.46875 C42.45375,31.46875 43.44875,31.05875 44.27,30.23875 C45.09,29.4175 45.5,28.42125 45.5,27.25 L45.5,3.34375 L39.875,3.34375 L39.875,0.53125 L0.5,0.53125 Z M3.3125,27.25 L3.3125,3.34375 L37.0625,3.34375 L37.0625,27.25 C37.0625,27.73375 37.1425,28.2025 37.30375,28.65625 L4.71875,28.65625 C4.3375,28.65625 4.00875,28.5175 3.73,28.23875 C3.45125,27.96 3.3125,27.63125 3.3125,27.25 Z M39.875,27.25 L39.875,6.15625 L42.6875,6.15625 L42.6875,27.25 C42.6875,27.63125 42.54875,27.96 42.27,28.23875 C41.99125,28.5175 41.6625,28.65625 41.28125,28.65625 C40.9,28.65625 40.57125,28.5175 40.2925,28.23875 C40.01375,27.96 39.875,27.63125 39.875,27.25 Z M6.125,8.96875 L17.375,8.96875 L17.375,6.15625 L6.125,6.15625 L6.125,8.96875 Z M6.125,14.59375 L17.375,14.59375 L17.375,11.78125 L6.125,11.78125 L6.125,14.59375 Z M6.125,20.21875 L17.375,20.21875 L17.375,17.40625 L6.125,17.40625 L6.125,20.21875 Z M6.125,25.84375 L17.375,25.84375 L17.375,23.03125 L6.125,23.03125 L6.125,25.84375 Z M20.1875,20.21875 L34.25,20.21875 L34.25,6.15625 L20.1875,6.15625 L20.1875,20.21875 Z M20.1875,25.84375 L34.25,25.84375 L34.25,23.03125 L20.1875,23.03125 L20.1875,25.84375 Z M23,17.40625 L31.4375,17.40625 L31.4375,8.96875 L23,8.96875 L23,17.40625 Z" id="Fill-2"></path>
        </g>
    </g>
</svg>