<?xml version="1.0" encoding="UTF-8"?>
<svg width="48px" height="48px" viewBox="0 0 48 48" version="1.1" xmlns="http://www.w3.org/2000/svg" xmlns:xlink="http://www.w3.org/1999/xlink">
    <!-- Generator: Sketch 50.2 (55047) - http://www.bohemiancoding.com/sketch -->
    <title>blocks/video</title>
    <desc>Created with Sketch.</desc>
    <defs></defs>
    <g id="blocks/video" stroke="none" stroke-width="1" fill="none" fill-rule="evenodd">
        <g id="Page-1" transform="translate(3.000000, 7.000000)" fill="#727376">
            <path d="M34.715,31.375 L38.465,31.375 L38.465,26.0625 L34.715,26.0625 L34.715,31.375 Z M3.115,31.375 L7.215,31.375 L7.215,26.0625 L3.115,26.0625 L3.115,31.375 Z M3.115,7.9375 L7.215,7.9375 L7.215,2.625 L3.115,2.625 L3.115,7.9375 Z M34.715,7.9375 L38.465,7.9375 L38.465,2.625 L34.715,2.625 L34.715,7.9375 Z M34.715,23.5625 L38.465,23.5625 L38.465,18.25 L34.715,18.25 L34.715,23.5625 Z M34.715,15.75 L38.465,15.75 L38.465,10.4375 L34.715,10.4375 L34.715,15.75 Z M9.715,31.375 L32.215,31.375 L32.215,2.625 L9.715,2.625 L9.715,31.375 Z M3.115,23.5625 L7.215,23.5625 L7.215,18.25 L3.115,18.25 L3.115,23.5625 Z M3.115,15.75 L7.215,15.75 L7.215,10.4375 L3.115,10.4375 L3.115,15.75 Z M39.715,0.125 L1.865,0.125 C1.175,0.125 0.615,0.68375 0.615,1.375 L0.615,32.625 C0.615,33.31625 1.175,33.875 1.865,33.875 L39.715,33.875 C40.405,33.875 40.965,33.31625 40.965,32.625 L40.965,1.375 C40.965,0.68375 40.405,0.125 39.715,0.125 Z" id="Fill-1"></path>
            <path d="M17.577125,20.669375 L17.577125,13.330625 L24.628375,16.999375 L17.577125,20.669375 Z M27.913375,15.891875 L16.903375,10.163125 C16.517125,9.959375 16.052125,9.976875 15.678375,10.203125 C15.305875,10.429375 15.077125,10.834375 15.077125,11.270625 L15.077125,22.728125 C15.077125,23.165625 15.305875,23.570625 15.678375,23.796875 C15.877125,23.918125 16.102125,23.978125 16.327125,23.978125 C16.524625,23.978125 16.723375,23.931875 16.903375,23.836875 L27.913375,18.108125 C28.325875,17.893125 28.585875,17.465625 28.585875,16.999375 C28.585875,16.533125 28.325875,16.106875 27.913375,15.891875 Z" id="Fill-3"></path>
        </g>
    </g>
</svg>