<?xml version="1.0" encoding="UTF-8"?>
<svg width="48px" height="48px" viewBox="0 0 48 48" version="1.1" xmlns="http://www.w3.org/2000/svg" xmlns:xlink="http://www.w3.org/1999/xlink">
    <!-- Generator: Sketch 50.2 (55047) - http://www.bohemiancoding.com/sketch -->
    <title>blocks/forms</title>
    <desc>Created with Sketch.</desc>
    <defs></defs>
    <g id="blocks/forms" stroke="none" stroke-width="1" fill="none" fill-rule="evenodd">
        <g id="Page-1" transform="translate(7.000000, 7.000000)" fill="#727376">
            <path d="M3.25,6.58375 L13.25,6.58375 L13.25,4.08375 L3.25,4.08375 L3.25,6.58375 Z M2,9.08375 L14.5,9.08375 C15.19125,9.08375 15.75,8.525 15.75,7.83375 L15.75,2.83375 C15.75,2.1425 15.19125,1.58375 14.5,1.58375 L2,1.58375 C1.30875,1.58375 0.75,2.1425 0.75,2.83375 L0.75,7.83375 C0.75,8.525 1.30875,9.08375 2,9.08375 Z" id="Fill-2"></path>
            <path d="M20.75,6.58375 L30.75,6.58375 L30.75,4.08375 L20.75,4.08375 L20.75,6.58375 Z M32,1.58375 L19.5,1.58375 C18.80875,1.58375 18.25,2.1425 18.25,2.83375 L18.25,7.83375 C18.25,8.525 18.80875,9.08375 19.5,9.08375 L32,9.08375 C32.69125,9.08375 33.25,8.525 33.25,7.83375 L33.25,2.83375 C33.25,2.1425 32.69125,1.58375 32,1.58375 Z" id="Fill-4"></path>
            <path d="M3.25,30.33375 L30.75,30.33375 L30.75,14.08375 L3.25,14.08375 L3.25,30.33375 Z M32,11.58375 L2,11.58375 C1.30875,11.58375 0.75,12.1425 0.75,12.83375 L0.75,31.58375 C0.75,32.275 1.30875,32.83375 2,32.83375 L32,32.83375 C32.69125,32.83375 33.25,32.275 33.25,31.58375 L33.25,12.83375 C33.25,12.1425 32.69125,11.58375 32,11.58375 Z" id="Fill-5"></path>
        </g>
    </g>
</svg>