<?xml version="1.0" encoding="utf-8"?>
<!-- Generator: Adobe Illustrator 21.1.0, SVG Export Plug-In . SVG Version: 6.00 Build 0)  -->
<svg version="1.1" id="Layer_1" xmlns="http://www.w3.org/2000/svg" xmlns:xlink="http://www.w3.org/1999/xlink" x="0px" y="0px"
	 viewBox="0 0 120 120" style="enable-background:new 0 0 120 120;" xml:space="preserve">
<style type="text/css">
	.st0{fill:#999999;}
</style>
<g id="Add-image">
	<path class="st0" d="M53.7,80.2h-3L50.1,82h-1.7l2.9-8.5h1.8L56,82h-1.7L53.7,80.2z M51.1,78.8h2.2l-1.1-3.4l0,0L51.1,78.8z
		 M56.8,82v-8.5h2.9c1,0,1.9,0.3,2.6,1s1,1.5,1,2.6v1.4c0,1-0.3,1.9-1,2.6s-1.5,1-2.6,1L56.8,82L56.8,82z M58.5,74.8v5.9h1.1
		c0.6,0,1.1-0.2,1.4-0.6s0.5-1,0.5-1.6V77c0-0.7-0.2-1.2-0.5-1.6s-0.8-0.6-1.4-0.6H58.5z M64.6,82v-8.5h2.9c1,0,1.9,0.3,2.6,1
		s1,1.5,1,2.6v1.4c0,1-0.3,1.9-1,2.6s-1.5,1-2.6,1L64.6,82L64.6,82z M66.3,74.8v5.9h1.1c0.6,0,1.1-0.2,1.4-0.6s0.5-1,0.5-1.6V77
		c0-0.7-0.2-1.2-0.5-1.6s-0.8-0.6-1.4-0.6H66.3z M44.3,96h-1.7v-8.5h1.7V96z M48.3,87.5l2.2,6.3l0,0l2.2-6.3h2.2V96h-1.7v-2.5
		l0.2-3.8l0,0L51,96h-1.1l-2.3-6.3l0,0l0.2,3.7V96H46v-8.5H48.3z M61.1,94.2h-3L57.5,96h-1.7l2.9-8.5h1.8l2.9,8.5h-1.7L61.1,94.2z
		 M58.5,92.8h2.2l-1.1-3.4l0,0L58.5,92.8z M70.7,94.8c-0.3,0.3-0.6,0.6-1.2,0.9s-1.2,0.4-2,0.4c-1,0-1.9-0.3-2.6-1s-1-1.5-1-2.5
		v-1.8c0-1,0.3-1.9,1-2.5s1.5-1,2.5-1s1.8,0.3,2.4,0.8s0.8,1.2,0.8,2l0,0H69c0-0.5-0.2-0.8-0.4-1.1s-0.6-0.4-1.1-0.4
		s-0.9,0.2-1.3,0.6s-0.5,0.9-0.5,1.6v1.8c0,0.6,0.2,1.2,0.5,1.6s0.8,0.6,1.3,0.6c0.4,0,0.7,0,1-0.1s0.4-0.2,0.6-0.3v-1.6h-1.5v-1.2
		h3.2L70.7,94.8L70.7,94.8z M77.4,92.2h-3.5v2.4H78V96h-5.8v-8.5H78v1.3h-4.1v2.1h3.5V92.2z"/>
</g>
<g id="Shape">
	<path class="st0" d="M54,33.6c0,1-0.3,1.9-1,2.6c-0.7,0.7-1.5,1-2.5,1s-1.9-0.4-2.6-1c-0.7-0.7-1-1.6-1-2.6s0.4-1.8,1-2.5
		c0.7-0.7,1.6-1,2.6-1s1.8,0.4,2.5,1C53.7,31.8,54,32.6,54,33.6z M73.2,40.8v8.4H46.8v-3.6l6-6l3,3l9.6-9.6L73.2,40.8z M75,27.6H45
		c-0.2,0-0.3,0.1-0.4,0.2c-0.1,0.1-0.2,0.3-0.2,0.4V51c0,0.2,0.1,0.3,0.2,0.4s0.3,0.2,0.4,0.2h30c0.2,0,0.3-0.1,0.4-0.2
		s0.2-0.3,0.2-0.4V28.2c0-0.2-0.1-0.3-0.2-0.4S75.2,27.6,75,27.6z M78,28.2V51c0,0.8-0.3,1.5-0.9,2.1C76.5,53.7,75.8,54,75,54H45
		c-0.8,0-1.5-0.3-2.1-0.9C42.3,52.5,42,51.8,42,51V28.2c0-0.8,0.3-1.5,0.9-2.1c0.6-0.6,1.3-0.9,2.1-0.9h30c0.8,0,1.5,0.3,2.1,0.9
		S78,27.4,78,28.2z"/>
</g>
<g>
	<rect y="78" class="st0" width="2" height="6"/>
	<rect y="30" class="st0" width="2" height="6"/>
	<rect y="42" class="st0" width="2" height="6"/>
	<rect y="54" class="st0" width="2" height="6"/>
	<rect y="90" class="st0" width="2" height="6"/>
	<rect y="66" class="st0" width="2" height="6"/>
	<rect x="30" y="118" class="st0" width="6" height="2"/>
	<rect x="18" y="118" class="st0" width="6" height="2"/>
	<rect x="42" y="118" class="st0" width="6" height="2"/>
	<rect x="6" y="118" class="st0" width="6" height="2"/>
	<rect y="114" class="st0" width="2" height="6"/>
	<rect y="102" class="st0" width="2" height="6"/>
	<rect x="72" class="st0" width="6" height="2"/>
	<rect x="54" y="118" class="st0" width="6" height="2"/>
	<rect x="84" class="st0" width="6" height="2"/>
	<rect x="108" class="st0" width="6" height="2"/>
	<rect x="96" class="st0" width="6" height="2"/>
	<rect x="60" class="st0" width="6" height="2"/>
	<rect y="18" class="st0" width="2" height="6"/>
	<rect x="48" class="st0" width="6" height="2"/>
	<rect y="6" class="st0" width="2" height="6"/>
	<rect x="12" class="st0" width="6" height="2"/>
	<rect x="36" class="st0" width="6" height="2"/>
	<rect x="24" class="st0" width="6" height="2"/>
	<rect class="st0" width="6" height="2"/>
	<rect x="118" y="48" class="st0" width="2" height="6"/>
	<rect x="118" y="60" class="st0" width="2" height="6"/>
	<rect x="118" y="36" class="st0" width="2" height="6"/>
	<rect x="118" y="12" class="st0" width="2" height="6"/>
	<rect x="118" y="24" class="st0" width="2" height="6"/>
	<rect x="118" class="st0" width="2" height="6"/>
	<rect x="118" y="72" class="st0" width="2" height="6"/>
	<rect x="66" y="118" class="st0" width="6" height="2"/>
	<rect x="90" y="118" class="st0" width="6" height="2"/>
	<rect x="102" y="118" class="st0" width="6" height="2"/>
	<rect x="78" y="118" class="st0" width="6" height="2"/>
	<rect x="114" y="118" class="st0" width="6" height="2"/>
	<rect x="118" y="84" class="st0" width="2" height="6"/>
	<rect x="118" y="96" class="st0" width="2" height="6"/>
	<rect x="118" y="108" class="st0" width="2" height="6"/>
</g>
</svg>
