<?xml version="1.0" encoding="UTF-8"?>
<svg width="48px" height="48px" viewBox="0 0 48 48" version="1.1" xmlns="http://www.w3.org/2000/svg" xmlns:xlink="http://www.w3.org/1999/xlink">
    <!-- Generator: Sketch 50.2 (55047) - http://www.bohemiancoding.com/sketch -->
    <title>forms/contact-selected</title>
    <desc>Created with Sketch.</desc>
    <defs></defs>
    <g id="forms/contact-selected" stroke="none" stroke-width="1" fill="none" fill-rule="evenodd">
        <g id="Page-1" transform="translate(8.000000, 9.000000)" fill="#23598E">
            <path d="M2.5,4.66666667 L12.5,4.66666667 L12.5,2.33333333 L2.5,2.33333333 L2.5,4.66666667 Z M1.25,7 L13.75,7 C14.44125,7 15,6.47733333 15,5.83333333 L15,1.16666667 C15,0.522666667 14.44125,0 13.75,0 L1.25,0 C0.55875,0 0,0.522666667 0,1.16666667 L0,5.83333333 C0,6.47733333 0.55875,7 1.25,7 Z" id="Fill-1"></path>
            <path d="M19.5,4.66666667 L29.5,4.66666667 L29.5,2.33333333 L19.5,2.33333333 L19.5,4.66666667 Z M30.75,0 L18.25,0 C17.55875,0 17,0.522666667 17,1.16666667 L17,5.83333333 C17,6.47733333 17.55875,7 18.25,7 L30.75,7 C31.44125,7 32,6.47733333 32,5.83333333 L32,1.16666667 C32,0.522666667 31.44125,0 30.75,0 Z" id="Fill-3"></path>
            <path d="M2.46153846,28.5294118 L29.5384615,28.5294118 L29.5384615,12.4705882 L2.46153846,12.4705882 L2.46153846,28.5294118 Z M30.7692308,10 L1.23076923,10 C0.550153846,10 0,10.5534118 0,11.2352941 L0,29.7647059 C0,30.4478235 0.550153846,31 1.23076923,31 L30.7692308,31 C31.4498462,31 32,30.4478235 32,29.7647059 L32,11.2352941 C32,10.5534118 31.4498462,10 30.7692308,10 Z" id="Fill-4"></path>
        </g>
    </g>
</svg>