<?xml version="1.0" encoding="UTF-8"?>
<svg width="48px" height="48px" viewBox="0 0 48 48" version="1.1" xmlns="http://www.w3.org/2000/svg" xmlns:xlink="http://www.w3.org/1999/xlink">
    <!-- Generator: Sketch 50.2 (55047) - http://www.bohemiancoding.com/sketch -->
    <title>forms/newsletter</title>
    <desc>Created with Sketch.</desc>
    <defs></defs>
    <g id="forms/newsletter" stroke="none" stroke-width="1" fill="none" fill-rule="evenodd">
        <g id="Page-1" transform="translate(4.000000, 0.000000)" fill="#727376">
            <path d="M2.5,12.75 L37.5,12.75 L37.5,2.75 L2.5,2.75 L2.5,12.75 Z M2.5,45.25 L37.5,45.25 L37.5,15.25 L2.5,15.25 L2.5,45.25 Z M38.75,0.25 L1.25,0.25 C0.55875,0.25 0,0.81 0,1.5 L0,46.5 C0,47.19125 0.55875,47.75 1.25,47.75 L38.75,47.75 C39.44125,47.75 40,47.19125 40,46.5 L40,1.5 C40,0.81 39.44125,0.25 38.75,0.25 Z" id="Fill-1"></path>
            <polygon id="Fill-3" points="8.75 9 31.25 9 31.25 6.5 8.75 6.5"></polygon>
            <polygon id="Fill-4" points="8.75 22.85375 31.25 22.85375 31.25 20.35375 8.75 20.35375"></polygon>
            <polygon id="Fill-5" points="8.75 31.70875 31.25 31.70875 31.25 29.20875 8.75 29.20875"></polygon>
            <polygon id="Fill-6" points="8.75 40.5625 20 40.5625 20 38.0625 8.75 38.0625"></polygon>
        </g>
    </g>
</svg>