<?xml version="1.0" encoding="UTF-8"?>
<svg width="48px" height="48px" viewBox="0 0 48 48" version="1.1" xmlns="http://www.w3.org/2000/svg" xmlns:xlink="http://www.w3.org/1999/xlink">
    <!-- Generator: Sketch 50.2 (55047) - http://www.bohemiancoding.com/sketch -->
    <title>forms/registration</title>
    <desc>Created with Sketch.</desc>
    <defs></defs>
    <g id="forms/registration" stroke="none" stroke-width="1" fill="none" fill-rule="evenodd">
        <g id="Page-1" transform="translate(8.000000, 5.000000)" fill="#727376">
            <path d="M17.449,34.976625 L17.019,35.004125 C16.68025,35.027875 16.34275,35.052875 15.999,35.052875 C10.44525,35.052875 5.469,31.694125 3.35525,26.610375 C4.20025,24.585375 5.53025,22.784125 7.2115,21.374125 C9.75775,23.220375 12.81025,24.217875 15.999,24.217875 C19.1865,24.217875 22.239,23.219125 24.7865,21.372875 C26.469,22.782875 27.79775,24.585375 28.644,26.610375 C26.72775,31.210375 22.42275,34.455375 17.449,34.976625 M24.684,18.205375 C22.4315,20.375375 19.37275,21.717875 15.999,21.717875 C12.62275,21.717875 9.56525,20.377875 7.314,18.205375 C4.24525,20.159125 1.88525,23.111625 0.6815,26.609125 C2.869,32.971625 8.8915,37.552875 15.999,37.552875 C16.559,37.552875 17.1065,37.500375 17.659,37.467875 C24.03525,36.820375 29.3015,32.470375 31.31775,26.609125 C30.114,23.109125 27.7515,20.157875 24.684,18.205375" id="Fill-1"></path>
            <path d="M9.87325,8.058875 C10.41825,5.097625 12.99325,2.948875 15.99825,2.948875 C19.0045,2.948875 21.5795,5.096375 22.1245,8.056375 C22.2045,8.496375 22.24325,8.857625 22.24325,9.192625 C22.24325,11.261375 21.217,13.193875 19.50075,14.361375 C18.4645,15.063875 17.25325,15.436375 15.99825,15.436375 C14.74325,15.436375 13.53325,15.063875 12.497,14.360125 C10.7795,13.193875 9.75325,11.261375 9.75325,9.192625 C9.75325,8.861375 9.79325,8.492625 9.87325,8.058875 M11.092,16.427625 C12.49075,17.378875 14.17825,17.936375 15.99825,17.936375 C17.81825,17.936375 19.507,17.378875 20.90575,16.427625 C23.22075,14.855125 24.74325,12.201375 24.74325,9.192625 C24.74325,8.647625 24.67825,8.121375 24.58325,7.603875 C23.8345,3.535125 20.28325,0.448875 15.99825,0.448875 C11.712,0.448875 8.16325,3.536375 7.4145,7.606375 C7.31825,8.121375 7.25325,8.648875 7.25325,9.192625 C7.25325,12.201375 8.77575,14.855125 11.092,16.427625" id="Fill-3"></path>
        </g>
    </g>
</svg>