<?xml version="1.0" encoding="UTF-8"?>
<svg width="48px" height="48px" viewBox="0 0 48 48" version="1.1" xmlns="http://www.w3.org/2000/svg" xmlns:xlink="http://www.w3.org/1999/xlink">
    <!-- Generator: Sketch 50.2 (55047) - http://www.bohemiancoding.com/sketch -->
    <title>forms/signup</title>
    <desc>Created with Sketch.</desc>
    <defs></defs>
    <g id="forms/signup" stroke="none" stroke-width="1" fill="none" fill-rule="evenodd">
        <g id="Page-1" transform="translate(4.000000, 0.000000)" fill="#727376">
            <path d="M2.5,12.5 L37.5,12.5 L37.5,2.5 L2.5,2.5 L2.5,12.5 Z M2.5,45 L37.5,45 L37.5,15 L2.5,15 L2.5,45 Z M38.75,0 L1.25,0 C0.55875,0 0,0.56 0,1.25 L0,46.25 C0,46.94125 0.55875,47.5 1.25,47.5 L38.75,47.5 C39.44125,47.5 40,46.94125 40,46.25 L40,1.25 C40,0.56 39.44125,0 38.75,0 Z" id="Fill-1"></path>
            <polygon id="Fill-3" points="8.75 9 31.25 9 31.25 6.5 8.75 6.5"></polygon>
            <path d="M20.7443073,37.8101056 L20.5208578,37.8251564 C20.347763,37.835907 20.1757174,37.8498827 19.9994755,37.8498827 C17.3086393,37.8498827 14.8853132,36.241595 13.7617711,33.7786357 C14.1132058,33.0131939 14.597871,32.3165559 15.1874421,31.7241986 C16.6173095,32.6498241 18.2758716,33.1465012 19.9994755,33.1465012 C21.7230793,33.1465012 23.3805924,32.6498241 24.8125579,31.7241986 C25.402129,32.3154808 25.8867942,33.0121188 26.2382289,33.7786357 C25.224838,35.9964816 23.1382598,37.5477912 20.7443073,37.8101056 M24.8188522,29 C23.568374,30.2330923 21.8720457,30.9963839 19.9994755,30.9963839 C18.1269053,30.9963839 16.430577,30.2341673 15.1800987,29 C13.4774761,30.1105356 12.1682505,31.7887021 11.5,33.7775606 C12.7148102,37.396208 16.0560629,40 19.9994755,40 C20.311046,40 20.614224,39.9709734 20.9205492,39.9526974 C24.4579759,39.5839523 27.3806541,37.1113174 28.5,33.7775606 C27.8317495,31.7876271 26.5214749,30.1094605 24.8188522,29" id="Fill-1"></path>
            <path d="M17.2183784,23.4832432 C17.4659459,22.1383784 18.6367568,21.1621622 20,21.1621622 C21.3654054,21.1621622 22.5351351,22.1372973 22.7816216,23.4864865 C22.8205405,23.6897297 22.8378378,23.8540541 22.8378378,24 C22.8378378,24.9405405 22.372973,25.8183784 21.5913514,26.3481081 C21.12,26.6681081 20.5708108,26.8378378 20,26.8378378 C19.4302703,26.8378378 18.88,26.6681081 18.4097297,26.3481081 C17.6281081,25.8183784 17.1621622,24.9405405 17.1621622,24 C17.1621622,23.8551351 17.1805405,23.6875676 17.2183784,23.4832432 M17.1945946,28.1372973 C17.9945946,28.6810811 18.9589189,29 20,29 C21.0410811,29 22.0064865,28.6810811 22.8064865,28.1372973 C24.1308108,27.2378378 25,25.72 25,24 C25,23.6875676 24.9632432,23.387027 24.9081081,23.0918919 C24.4810811,20.7643243 22.4508108,19 20,19 C17.5491892,19 15.52,20.7654054 15.0918919,23.092973 C15.0367568,23.387027 15,23.6886486 15,24 C15,25.72 15.8702703,27.2378378 17.1945946,28.1372973" id="Fill-3"></path>
        </g>
    </g>
</svg>