<?xml version="1.0" encoding="UTF-8"?>
<svg width="20px" height="20px" viewBox="0 0 20 20" version="1.1" xmlns="http://www.w3.org/2000/svg" xmlns:xlink="http://www.w3.org/1999/xlink">
    <!-- Generator: Sketch 50.2 (55047) - http://www.bohemiancoding.com/sketch -->
    <title>ic/bold</title>
    <desc>Created with Sketch.</desc>
    <defs></defs>
    <g id="ic/bold" stroke="none" stroke-width="1" fill="none" fill-rule="evenodd">
        <g id="ic-bold" transform="translate(3.000000, 3.000000)" fill="#333333" fill-rule="nonzero">
            <path d="M5.41992187,13.6035156 C5.90169271,13.811849 6.35742187,13.9160156 6.78710937,13.9160156 C9.23502604,13.9160156 10.4589844,12.8255208 10.4589844,10.6445312 C10.4589844,9.90234375 10.3255208,9.31640625 10.0585937,8.88671875 C9.8828125,8.60026042 9.68261719,8.359375 9.45800781,8.1640625 C9.23339844,7.96875 9.01367187,7.81738281 8.79882812,7.70996094 C8.58398437,7.60253906 8.3219401,7.52115885 8.01269531,7.46582031 C7.70345052,7.41048177 7.43001302,7.37630208 7.19238281,7.36328125 C6.9547526,7.35026042 6.64713542,7.34375 6.26953125,7.34375 C5.79427083,7.34375 5.46549479,7.37630208 5.28320312,7.44140625 C5.28320312,7.78645833 5.28157552,8.30403646 5.27832031,8.99414062 C5.2750651,9.68424479 5.2734375,10.1985677 5.2734375,10.5371094 C5.2734375,10.5891927 5.27018229,10.8089193 5.26367187,11.1962891 C5.25716146,11.5836589 5.25553385,11.8977865 5.25878906,12.1386719 C5.26204427,12.3795573 5.27669271,12.6513672 5.30273437,12.9541016 C5.32877604,13.2568359 5.36783854,13.4733073 5.41992187,13.6035156 Z M5.28320312,6.31835938 C5.55664062,6.36393229 5.91145833,6.38671875 6.34765625,6.38671875 C6.88151042,6.38671875 7.34700521,6.34440104 7.74414062,6.25976563 C8.14127604,6.17513021 8.49934896,6.03027344 8.81835937,5.82519531 C9.13736979,5.62011719 9.37988281,5.32877604 9.54589844,4.95117188 C9.71191406,4.57356771 9.79492187,4.11132812 9.79492187,3.56445313 C9.79492187,3.10872396 9.70052083,2.70996094 9.51171875,2.36816406 C9.32291667,2.02636719 9.06575521,1.7594401 8.74023437,1.56738281 C8.41471354,1.37532552 8.06315104,1.23372396 7.68554687,1.14257812 C7.30794271,1.05143229 6.90429687,1.00585938 6.47460937,1.00585938 C6.14908854,1.00585938 5.72591146,1.04817708 5.20507812,1.1328125 C5.20507812,1.45833333 5.21809896,1.94986979 5.24414062,2.60742188 C5.27018229,3.26497396 5.28320312,3.75976563 5.28320312,4.09179688 C5.28320312,4.26757813 5.28157552,4.52799479 5.27832031,4.87304688 C5.2750651,5.21809896 5.2734375,5.47526042 5.2734375,5.64453125 C5.2734375,5.94401042 5.27669271,6.16861979 5.28320312,6.31835938 Z M0,15 L0.01953125,14.0820312 C0.1171875,14.0559896 0.393880208,14.0039062 0.849609375,13.9257812 C1.30533854,13.8476562 1.65039062,13.7597656 1.88476563,13.6621094 C1.93033854,13.5839844 1.97102865,13.4960938 2.00683594,13.3984375 C2.04264323,13.3007812 2.0703125,13.1917318 2.08984375,13.0712891 C2.109375,12.9508464 2.12727865,12.8450521 2.14355469,12.7539062 C2.15983073,12.6627604 2.16959635,12.5406901 2.17285156,12.3876953 C2.17610677,12.2347005 2.17773438,12.1240234 2.17773438,12.0556641 L2.17773438,11.4160156 C2.17773438,5.02278646 2.10611979,1.68619792 1.96289062,1.40625 C1.93684896,1.35416667 1.86523438,1.30696615 1.74804688,1.26464844 C1.63085938,1.22233073 1.4860026,1.18652344 1.31347656,1.15722656 C1.14095052,1.12792969 0.979817708,1.10514323 0.830078125,1.08886719 C0.680338542,1.07259115 0.522460938,1.05794271 0.356445312,1.04492188 C0.190429688,1.03190104 0.0911458333,1.02213542 0.05859375,1.015625 L0.01953125,0.205078125 C0.657552083,0.192057292 1.76432292,0.154622396 3.33984375,0.0927734375 C4.91536458,0.0309244792 6.12955729,0 6.98242188,0 C7.13216146,0 7.35351562,0.00162760417 7.64648438,0.0048828125 C7.93945312,0.00813802083 8.16080729,0.009765625 8.31054688,0.009765625 C8.76627604,0.009765625 9.21061198,0.0520833333 9.64355469,0.13671875 C10.0764974,0.221354167 10.4947917,0.358072917 10.8984375,0.546875 C11.3020833,0.735677083 11.6536458,0.966796875 11.953125,1.24023438 C12.2526042,1.51367188 12.4934896,1.85384115 12.6757812,2.26074219 C12.8580729,2.66764323 12.9492188,3.11523438 12.9492188,3.60351562 C12.9492188,3.94205729 12.8955078,4.25292969 12.7880859,4.53613281 C12.6806641,4.81933594 12.5537109,5.05371094 12.4072266,5.23925781 C12.2607422,5.42480469 12.0507812,5.61197917 11.7773438,5.80078125 C11.5039062,5.98958333 11.266276,6.13606771 11.0644531,6.24023438 C10.8626302,6.34440104 10.5891927,6.47460938 10.2441406,6.63085938 C11.2467448,6.85872396 12.0817057,7.29492188 12.7490234,7.93945312 C13.4163411,8.58398438 13.75,9.39127604 13.75,10.3613281 C13.75,11.0123698 13.6360677,11.5966797 13.4082031,12.1142578 C13.1803385,12.6318359 12.8759766,13.0566406 12.4951172,13.3886719 C12.1142578,13.7207031 11.6650391,13.9990234 11.1474609,14.2236328 C10.6298828,14.4482422 10.0976562,14.6061198 9.55078125,14.6972656 C9.00390625,14.7884115 8.43098958,14.8339844 7.83203125,14.8339844 C7.54557292,14.8339844 7.11588542,14.8242188 6.54296875,14.8046875 C5.97005208,14.7851562 5.54036458,14.7753906 5.25390625,14.7753906 C4.56380208,14.7753906 3.56445312,14.8111979 2.25585938,14.8828125 C0.947265625,14.9544271 0.1953125,14.9934896 0,15 Z" id="Shape"></path>
        </g>
    </g>
</svg>