<?xml version="1.0" encoding="UTF-8"?>
<svg width="20px" height="20px" viewBox="0 0 20 20" version="1.1" xmlns="http://www.w3.org/2000/svg" xmlns:xlink="http://www.w3.org/1999/xlink">
    <!-- Generator: Sketch 50.2 (55047) - http://www.bohemiancoding.com/sketch -->
    <title>ic/indent</title>
    <desc>Created with Sketch.</desc>
    <defs></defs>
    <g id="ic/indent" stroke="none" stroke-width="1" fill="none" fill-rule="evenodd">
        <g id="ic-indent" transform="translate(1.000000, 3.000000)" fill="#333333" fill-rule="nonzero">
            <path d="M3.57142857,7.14285714 C3.57142857,7.23755411 3.54099026,7.31534091 3.48011364,7.37621753 L0.558035714,10.2982955 C0.497159091,10.3591721 0.419372294,10.3896104 0.324675325,10.3896104 C0.236742424,10.3896104 0.160646645,10.3574811 0.096387987,10.2932224 C0.032129329,10.2289637 0,10.152868 0,10.0649351 L0,4.22077922 C0,4.13284632 0.032129329,4.05675054 0.096387987,3.99249188 C0.160646645,3.92823323 0.236742424,3.8961039 0.324675325,3.8961039 C0.419372294,3.8961039 0.497159091,3.92654221 0.558035714,3.98741883 L3.48011364,6.90949675 C3.54099026,6.97037338 3.57142857,7.04816017 3.57142857,7.14285714 Z M18.1818182,12.012987 L18.1818182,13.961039 C18.1818182,14.0489719 18.1496889,14.1250676 18.0854302,14.1893263 C18.0211715,14.253585 17.9450758,14.2857143 17.8571429,14.2857143 L0.324675325,14.2857143 C0.236742424,14.2857143 0.160646645,14.253585 0.096387987,14.1893263 C0.032129329,14.1250676 0,14.0489719 0,13.961039 L0,12.012987 C0,11.9250541 0.032129329,11.8489583 0.096387987,11.7846997 C0.160646645,11.720441 0.236742424,11.6883117 0.324675325,11.6883117 L17.8571429,11.6883117 C17.9450758,11.6883117 18.0211715,11.720441 18.0854302,11.7846997 C18.1496889,11.8489583 18.1818182,11.9250541 18.1818182,12.012987 Z M18.1818182,8.11688312 L18.1818182,10.0649351 C18.1818182,10.152868 18.1496889,10.2289637 18.0854302,10.2932224 C18.0211715,10.3574811 17.9450758,10.3896104 17.8571429,10.3896104 L6.81818182,10.3896104 C6.73024892,10.3896104 6.65415314,10.3574811 6.58989448,10.2932224 C6.52563582,10.2289637 6.49350649,10.152868 6.49350649,10.0649351 L6.49350649,8.11688312 C6.49350649,8.02895022 6.52563582,7.95285444 6.58989448,7.88859578 C6.65415314,7.82433712 6.73024892,7.79220779 6.81818182,7.79220779 L17.8571429,7.79220779 C17.9450758,7.79220779 18.0211715,7.82433712 18.0854302,7.88859578 C18.1496889,7.95285444 18.1818182,8.02895022 18.1818182,8.11688312 Z M18.1818182,4.22077922 L18.1818182,6.16883117 C18.1818182,6.25676407 18.1496889,6.33285985 18.0854302,6.39711851 C18.0211715,6.46137716 17.9450758,6.49350649 17.8571429,6.49350649 L6.81818182,6.49350649 C6.73024892,6.49350649 6.65415314,6.46137716 6.58989448,6.39711851 C6.52563582,6.33285985 6.49350649,6.25676407 6.49350649,6.16883117 L6.49350649,4.22077922 C6.49350649,4.13284632 6.52563582,4.05675054 6.58989448,3.99249188 C6.65415314,3.92823323 6.73024892,3.8961039 6.81818182,3.8961039 L17.8571429,3.8961039 C17.9450758,3.8961039 18.0211715,3.92823323 18.0854302,3.99249188 C18.1496889,4.05675054 18.1818182,4.13284632 18.1818182,4.22077922 Z M18.1818182,0.324675325 L18.1818182,2.27272727 C18.1818182,2.36066017 18.1496889,2.43675595 18.0854302,2.50101461 C18.0211715,2.56527327 17.9450758,2.5974026 17.8571429,2.5974026 L0.324675325,2.5974026 C0.236742424,2.5974026 0.160646645,2.56527327 0.096387987,2.50101461 C0.032129329,2.43675595 0,2.36066017 0,2.27272727 L0,0.324675325 C0,0.236742424 0.032129329,0.160646645 0.096387987,0.096387987 C0.160646645,0.032129329 0.236742424,0 0.324675325,0 L17.8571429,0 C17.9450758,0 18.0211715,0.032129329 18.0854302,0.096387987 C18.1496889,0.160646645 18.1818182,0.236742424 18.1818182,0.324675325 Z" id="Shape"></path>
        </g>
    </g>
</svg>