<?xml version="1.0" encoding="UTF-8"?>
<svg width="20px" height="20px" viewBox="0 0 20 20" version="1.1" xmlns="http://www.w3.org/2000/svg" xmlns:xlink="http://www.w3.org/1999/xlink">
    <!-- Generator: Sketch 50.2 (55047) - http://www.bohemiancoding.com/sketch -->
    <title>ic/italic</title>
    <desc>Created with Sketch.</desc>
    <defs></defs>
    <g id="ic/italic" stroke="none" stroke-width="1" fill="none" fill-rule="evenodd">
        <g id="ic-italic" transform="translate(5.000000, 3.000000)" fill="#333333" fill-rule="nonzero">
            <path d="M0,14.9804688 L0.166015625,14.1503906 C0.309244792,14.1048177 0.509440104,14.0511068 0.766601562,13.9892578 C1.02376302,13.9274089 1.25813802,13.8655599 1.46972656,13.8037109 C1.6813151,13.741862 1.875,13.6653646 2.05078125,13.5742188 C2.23307292,13.3463542 2.36653646,13.0175781 2.45117188,12.5878906 C2.45768229,12.5423177 2.65950521,11.6015625 3.05664062,9.765625 C3.45377604,7.9296875 3.82486979,6.16048177 4.16992188,4.45800781 C4.51497396,2.75553385 4.68424479,1.79036458 4.67773438,1.5625 L4.67773438,1.31835938 C4.52148438,1.23372396 4.34407552,1.1735026 4.14550781,1.13769531 C3.9469401,1.10188802 3.72070312,1.07584635 3.46679688,1.05957031 C3.21289062,1.04329427 3.02408854,1.02539062 2.90039062,1.00585938 L3.0859375,0 C3.30078125,0.0130208333 3.69140625,0.0341796875 4.2578125,0.0634765625 C4.82421875,0.0927734375 5.3108724,0.115559896 5.71777344,0.131835938 C6.12467448,0.148111979 6.51692708,0.15625 6.89453125,0.15625 C7.20703125,0.15625 7.52766927,0.148111979 7.85644531,0.131835938 C8.18522135,0.115559896 8.57910156,0.0927734375 9.03808594,0.0634765625 C9.49707031,0.0341796875 9.81770833,0.0130208333 10,0 C9.96744792,0.25390625 9.90559896,0.543619792 9.81445312,0.869140625 C9.61914062,0.934244792 9.28873698,1.02701823 8.82324219,1.14746094 C8.3577474,1.26790365 8.00455729,1.37695312 7.76367188,1.47460938 C7.71158854,1.59830729 7.66601562,1.73665365 7.62695312,1.88964844 C7.58789062,2.04264323 7.55859375,2.17285156 7.5390625,2.28027344 C7.51953125,2.38769531 7.49511719,2.53580729 7.46582031,2.72460938 C7.43652344,2.91341146 7.41536458,3.05013021 7.40234375,3.13476562 C7.2265625,4.09830729 6.94173177,5.46386719 6.54785156,7.23144531 C6.15397135,8.99902344 5.90169271,10.15625 5.79101562,10.703125 C5.77799479,10.7617188 5.73567708,10.9505208 5.6640625,11.2695312 C5.59244792,11.5885417 5.52734375,11.8815104 5.46875,12.1484375 C5.41015625,12.4153646 5.35807292,12.6871745 5.3125,12.9638672 C5.26692708,13.2405599 5.24739583,13.4277344 5.25390625,13.5253906 L5.26367188,13.7011719 C5.37434896,13.7272135 5.9765625,13.828125 7.0703125,14.0039062 C7.05078125,14.2903646 6.99869792,14.6126302 6.9140625,14.9707031 C6.84244792,14.9707031 6.73665365,14.9755859 6.59667969,14.9853516 C6.45670573,14.9951172 6.35091146,15 6.27929688,15 C6.09049479,15 5.80729167,14.9674479 5.4296875,14.9023438 C5.05208333,14.8372396 4.77213542,14.8046875 4.58984375,14.8046875 C3.69140625,14.7916667 3.02083333,14.7851562 2.578125,14.7851562 C2.24609375,14.7851562 1.78059896,14.8144531 1.18164062,14.8730469 C0.582682292,14.9316406 0.188802083,14.9674479 0,14.9804688 Z" id="Shape"></path>
        </g>
    </g>
</svg>