<?xml version="1.0" encoding="UTF-8"?>
<svg width="20px" height="20px" viewBox="0 0 20 20" version="1.1" xmlns="http://www.w3.org/2000/svg" xmlns:xlink="http://www.w3.org/1999/xlink">
    <!-- Generator: Sketch 50.2 (55047) - http://www.bohemiancoding.com/sketch -->
    <title>ic/link</title>
    <desc>Created with Sketch.</desc>
    <defs></defs>
    <g id="ic/link" stroke="none" stroke-width="1" fill="none" fill-rule="evenodd">
        <g id="ic-link" transform="translate(1.000000, 1.000000)" fill="#333333" fill-rule="nonzero">
            <path d="M16.0427807,13.368984 C16.0427807,13.0718954 15.9387998,12.8193702 15.7308378,12.6114082 L13.4135472,10.2941176 C13.2055853,10.0861557 12.95306,9.98217469 12.6559715,9.98217469 C12.3440285,9.98217469 12.0766488,10.1010101 11.8538324,10.3386809 C11.8761141,10.3609626 11.9466726,10.4296643 12.065508,10.5447861 C12.1843434,10.6599079 12.264186,10.7397504 12.3050357,10.7843137 C12.3458853,10.828877 12.4015894,10.8994355 12.472148,10.9959893 C12.5427065,11.0925431 12.5909834,11.18724 12.6169786,11.2800802 C12.6429739,11.3729204 12.6559715,11.4750446 12.6559715,11.5864528 C12.6559715,11.8835413 12.5519905,12.1360665 12.3440285,12.3440285 C12.1360665,12.5519905 11.8835413,12.6559715 11.5864528,12.6559715 C11.4750446,12.6559715 11.3729204,12.6429739 11.2800802,12.6169786 C11.18724,12.5909834 11.0925431,12.5427065 10.9959893,12.472148 C10.8994355,12.4015894 10.828877,12.3458853 10.7843137,12.3050357 C10.7397504,12.264186 10.6599079,12.1843434 10.5447861,12.065508 C10.4296643,11.9466726 10.3609626,11.8761141 10.3386809,11.8538324 C10.0935829,12.0840761 9.97103387,12.3551693 9.97103387,12.6671123 C9.97103387,12.9642008 10.0750149,13.2167261 10.2829768,13.4246881 L12.5779857,15.7308378 C12.7785205,15.9313725 13.0310458,16.0316399 13.3355615,16.0316399 C13.63265,16.0316399 13.8851753,15.9350862 14.0931373,15.7419786 L15.7308378,14.1154189 C15.9387998,13.9074569 16.0427807,13.6586453 16.0427807,13.368984 Z M8.21078431,5.51470588 C8.21078431,5.21761735 8.10680333,4.9650921 7.89884135,4.75713012 L5.60383244,2.45098039 C5.39587047,2.24301842 5.14334522,2.13903743 4.84625668,2.13903743 C4.55659537,2.13903743 4.30407011,2.23930481 4.08868093,2.43983957 L2.45098039,4.06639929 C2.24301842,4.27436126 2.13903743,4.52317291 2.13903743,4.81283422 C2.13903743,5.10992276 2.24301842,5.36244801 2.45098039,5.57040998 L4.76827094,7.88770053 C4.9688057,8.08823529 5.22133096,8.18850267 5.5258467,8.18850267 C5.83778966,8.18850267 6.10516934,8.07338087 6.32798574,7.84313725 C6.3057041,7.82085561 6.23514557,7.75215389 6.11631016,7.63703209 C5.99747475,7.52191028 5.9176322,7.44206774 5.87678253,7.39750446 C5.83593286,7.35294118 5.78022876,7.28238265 5.70967023,7.18582888 C5.63911171,7.0892751 5.59083482,6.99457813 5.56483957,6.90173797 C5.53884433,6.8088978 5.5258467,6.70677362 5.5258467,6.59536542 C5.5258467,6.29827689 5.62982769,6.04575163 5.83778966,5.83778966 C6.04575163,5.62982769 6.29827689,5.5258467 6.59536542,5.5258467 C6.70677362,5.5258467 6.8088978,5.53884433 6.90173797,5.56483957 C6.99457813,5.59083482 7.0892751,5.63911171 7.18582888,5.70967023 C7.28238265,5.78022876 7.35294118,5.83593286 7.39750446,5.87678253 C7.44206774,5.9176322 7.52191028,5.99747475 7.63703209,6.11631016 C7.75215389,6.23514557 7.82085561,6.3057041 7.84313725,6.32798574 C8.08823529,6.09774213 8.21078431,5.82664884 8.21078431,5.51470588 Z M18.1818182,13.368984 C18.1818182,14.2602496 17.8661616,15.0141117 17.2348485,15.6305704 L15.597148,17.2571301 C14.9806892,17.8735888 14.2268271,18.1818182 13.3355615,18.1818182 C12.4368687,18.1818182 11.6792929,17.8661616 11.0628342,17.2348485 L8.76782531,14.9286988 C8.15136661,14.31224 7.84313725,13.5583779 7.84313725,12.6671123 C7.84313725,11.7535651 8.16993464,10.9774213 8.82352941,10.3386809 L7.84313725,9.35828877 C7.20439691,10.0118835 6.43196673,10.3386809 5.5258467,10.3386809 C4.63458111,10.3386809 3.87700535,10.026738 3.25311943,9.40285205 L0.935828877,7.0855615 C0.311942959,6.46167558 0,5.70409982 0,4.81283422 C0,3.92156863 0.315656566,3.16770648 0.946969697,2.55124777 L2.58467023,0.924688057 C3.20112894,0.308229352 3.95499109,0 4.84625668,0 C5.74494949,0 6.50252525,0.315656566 7.11898396,0.946969697 L9.41399287,3.25311943 C10.0304516,3.86957813 10.3386809,4.62344029 10.3386809,5.51470588 C10.3386809,6.42825312 10.0118835,7.20439691 9.35828877,7.84313725 L10.3386809,8.82352941 C10.9774213,8.16993464 11.7498515,7.84313725 12.6559715,7.84313725 C13.5472371,7.84313725 14.3048128,8.15508021 14.9286988,8.77896613 L17.2459893,11.0962567 C17.8698752,11.7201426 18.1818182,12.4777184 18.1818182,13.368984 Z" id="Shape"></path>
        </g>
    </g>
</svg>