<?xml version="1.0" encoding="UTF-8"?>
<svg width="20px" height="20px" viewBox="0 0 20 20" version="1.1" xmlns="http://www.w3.org/2000/svg" xmlns:xlink="http://www.w3.org/1999/xlink">
    <!-- Generator: Sketch 50.2 (55047) - http://www.bohemiancoding.com/sketch -->
    <title>ic/list-ul</title>
    <desc>Created with Sketch.</desc>
    <defs></defs>
    <g id="ic/list-ul" stroke="none" stroke-width="1" fill="none" fill-rule="evenodd">
        <g id="ic-list-ul" transform="translate(1.000000, 3.000000)" fill="#333333" fill-rule="nonzero">
            <path d="M3.8961039,12.3376623 C3.8961039,12.8787879 3.70670996,13.3387446 3.32792208,13.7175325 C2.9491342,14.0963203 2.48917749,14.2857143 1.94805195,14.2857143 C1.40692641,14.2857143 0.946969697,14.0963203 0.568181818,13.7175325 C0.189393939,13.3387446 0,12.8787879 0,12.3376623 C0,11.7965368 0.189393939,11.3365801 0.568181818,10.9577922 C0.946969697,10.5790043 1.40692641,10.3896104 1.94805195,10.3896104 C2.48917749,10.3896104 2.9491342,10.5790043 3.32792208,10.9577922 C3.70670996,11.3365801 3.8961039,11.7965368 3.8961039,12.3376623 Z M3.8961039,7.14285714 C3.8961039,7.68398268 3.70670996,8.14393939 3.32792208,8.52272727 C2.9491342,8.90151515 2.48917749,9.09090909 1.94805195,9.09090909 C1.40692641,9.09090909 0.946969697,8.90151515 0.568181818,8.52272727 C0.189393939,8.14393939 0,7.68398268 0,7.14285714 C0,6.6017316 0.189393939,6.14177489 0.568181818,5.76298701 C0.946969697,5.38419913 1.40692641,5.19480519 1.94805195,5.19480519 C2.48917749,5.19480519 2.9491342,5.38419913 3.32792208,5.76298701 C3.70670996,6.14177489 3.8961039,6.6017316 3.8961039,7.14285714 Z M18.1818182,11.3636364 L18.1818182,13.3116883 C18.1818182,13.3996212 18.1496889,13.475717 18.0854302,13.5399756 C18.0211715,13.6042343 17.9450758,13.6363636 17.8571429,13.6363636 L5.51948052,13.6363636 C5.43154762,13.6363636 5.35545184,13.6042343 5.29119318,13.5399756 C5.22693452,13.475717 5.19480519,13.3996212 5.19480519,13.3116883 L5.19480519,11.3636364 C5.19480519,11.2757035 5.22693452,11.1996077 5.29119318,11.135349 C5.35545184,11.0710904 5.43154762,11.038961 5.51948052,11.038961 L17.8571429,11.038961 C17.9450758,11.038961 18.0211715,11.0710904 18.0854302,11.135349 C18.1496889,11.1996077 18.1818182,11.2757035 18.1818182,11.3636364 Z M3.8961039,1.94805195 C3.8961039,2.48917749 3.70670996,2.9491342 3.32792208,3.32792208 C2.9491342,3.70670996 2.48917749,3.8961039 1.94805195,3.8961039 C1.40692641,3.8961039 0.946969697,3.70670996 0.568181818,3.32792208 C0.189393939,2.9491342 0,2.48917749 0,1.94805195 C0,1.40692641 0.189393939,0.946969697 0.568181818,0.568181818 C0.946969697,0.189393939 1.40692641,0 1.94805195,0 C2.48917749,0 2.9491342,0.189393939 3.32792208,0.568181818 C3.70670996,0.946969697 3.8961039,1.40692641 3.8961039,1.94805195 Z M18.1818182,6.16883117 L18.1818182,8.11688312 C18.1818182,8.20481602 18.1496889,8.2809118 18.0854302,8.34517045 C18.0211715,8.40942911 17.9450758,8.44155844 17.8571429,8.44155844 L5.51948052,8.44155844 C5.43154762,8.44155844 5.35545184,8.40942911 5.29119318,8.34517045 C5.22693452,8.2809118 5.19480519,8.20481602 5.19480519,8.11688312 L5.19480519,6.16883117 C5.19480519,6.08089827 5.22693452,6.00480249 5.29119318,5.94054383 C5.35545184,5.87628517 5.43154762,5.84415584 5.51948052,5.84415584 L17.8571429,5.84415584 C17.9450758,5.84415584 18.0211715,5.87628517 18.0854302,5.94054383 C18.1496889,6.00480249 18.1818182,6.08089827 18.1818182,6.16883117 Z M18.1818182,0.974025974 L18.1818182,2.92207792 C18.1818182,3.01001082 18.1496889,3.0861066 18.0854302,3.15036526 C18.0211715,3.21462392 17.9450758,3.24675325 17.8571429,3.24675325 L5.51948052,3.24675325 C5.43154762,3.24675325 5.35545184,3.21462392 5.29119318,3.15036526 C5.22693452,3.0861066 5.19480519,3.01001082 5.19480519,2.92207792 L5.19480519,0.974025974 C5.19480519,0.886093074 5.22693452,0.809997294 5.29119318,0.745738636 C5.35545184,0.681479978 5.43154762,0.649350649 5.51948052,0.649350649 L17.8571429,0.649350649 C17.9450758,0.649350649 18.0211715,0.681479978 18.0854302,0.745738636 C18.1496889,0.809997294 18.1818182,0.886093074 18.1818182,0.974025974 Z" id="Shape"></path>
        </g>
    </g>
</svg>