<?xml version="1.0" encoding="UTF-8"?>
<svg width="20px" height="20px" viewBox="0 0 20 20" version="1.1" xmlns="http://www.w3.org/2000/svg" xmlns:xlink="http://www.w3.org/1999/xlink">
    <!-- Generator: Sketch 50.2 (55047) - http://www.bohemiancoding.com/sketch -->
    <title>ic/list-ol</title>
    <desc>Created with Sketch.</desc>
    <defs></defs>
    <g id="ic/list-ol" stroke="none" stroke-width="1" fill="none" fill-rule="evenodd">
        <g id="ic-list-ol" transform="translate(1.000000, 1.000000)" fill="#333333" fill-rule="nonzero">
            <path d="M3.74482018,16.4833478 C3.74482018,17.0290411 3.5589434,17.4587746 3.18718985,17.7725482 C2.8154363,18.0863219 2.3533023,18.2432087 1.80078784,18.2432087 C1.07774424,18.2432087 0.491123958,18.0181102 0.0409269965,17.5679132 L0.624136696,16.6675193 C0.958373834,16.9744718 1.31989564,17.127948 1.7087021,17.127948 C1.90651592,17.127948 2.07875036,17.0784946 2.22540543,16.9795877 C2.3720605,16.8806808 2.44538804,16.735731 2.44538804,16.5447383 C2.44538804,16.1081837 2.08727682,15.917191 1.37105438,15.9717604 L1.1050289,15.3987824 C1.15959823,15.3305708 1.27044218,15.1822104 1.43756075,14.9537013 C1.60467932,14.7251923 1.7496291,14.5410208 1.87241009,14.4011869 C1.99519108,14.261353 2.12138265,14.1300455 2.25098481,14.0072645 L2.25098481,13.9970328 C2.14184615,13.9970328 1.97643287,14.0004434 1.75474497,14.0072645 C1.53305708,14.0140857 1.3676438,14.0174963 1.25850514,14.0174963 L1.25850514,14.559779 L0.173939735,14.559779 L0.173939735,13.0045531 L3.58111219,13.0045531 L3.58111219,13.9049471 L2.60909602,15.0815982 C2.95697549,15.1634522 3.23323272,15.3305708 3.4378677,15.5829539 C3.64250269,15.8353371 3.74482018,16.1354684 3.74482018,16.4833478 Z M3.76528368,10.0680411 L3.76528368,11.6948892 L0.0613904947,11.6948892 C0.0204634982,11.4493273 0,11.2651558 0,11.1423748 C0,10.7944953 0.0801487014,10.4773111 0.240446104,10.1908221 C0.400743507,9.90433315 0.593441449,9.6724135 0.818539929,9.49506318 C1.04363841,9.31771286 1.26873689,9.15571017 1.49383537,9.0090551 C1.71893385,8.86240003 1.91163179,8.71403967 2.0719292,8.56397401 C2.2322266,8.41390836 2.3123753,8.26043212 2.3123753,8.1035453 C2.3123753,7.93301615 2.26292185,7.8017087 2.16401494,7.70962296 C2.06510803,7.61753722 1.93039,7.57149435 1.75986085,7.57149435 C1.44608721,7.57149435 1.16982998,7.76930816 0.93108917,8.1649358 L0.0613904947,7.5612626 C0.225098481,7.21338313 0.468955168,6.94224178 0.792960557,6.74783854 C1.11696595,6.55343531 1.47678246,6.45623369 1.87241009,6.45623369 C2.37035521,6.45623369 2.78985693,6.59777289 3.13091523,6.88085128 C3.47197353,7.16392967 3.64250269,7.54762027 3.64250269,8.03192306 C3.64250269,8.37298136 3.52654286,8.68504971 3.29462322,8.9681281 C3.06270357,9.25120649 2.80690984,9.4711891 2.52724203,9.62807592 C2.24757422,9.78496274 1.9900752,9.95719718 1.75474497,10.1447793 C1.51941474,10.3323613 1.39833905,10.5114169 1.39151788,10.6819461 L2.69095002,10.6819461 L2.69095002,10.0680411 L3.76528368,10.0680411 Z M18.1818182,13.3319691 L18.1818182,15.2964649 C18.1818182,15.3851401 18.1494176,15.4618782 18.0846166,15.5266793 C18.0198155,15.5914804 17.9430774,15.6238809 17.8544022,15.6238809 L5.41259528,15.6238809 C5.32392012,15.6238809 5.24718201,15.5914804 5.18238093,15.5266793 C5.11757985,15.4618782 5.08517931,15.3851401 5.08517931,15.2964649 L5.08517931,13.3319691 C5.08517931,13.2364728 5.11587456,13.1580294 5.17726505,13.0966389 C5.23865555,13.0352484 5.31709896,13.0045531 5.41259528,13.0045531 L17.8544022,13.0045531 C17.9430774,13.0045531 18.0198155,13.0369537 18.0846166,13.1017547 C18.1494176,13.1665558 18.1818182,13.2432939 18.1818182,13.3319691 Z M3.77551542,4.13362664 L3.77551542,5.14656981 L0.34787947,5.14656981 L0.34787947,4.13362664 L1.44267663,4.13362664 C1.44267663,3.85395883 1.44438192,3.439573 1.4477925,2.89046913 C1.45120308,2.34136526 1.45290837,1.92697942 1.45290837,1.64731161 L1.45290837,1.52453062 L1.43244488,1.52453062 C1.37787555,1.64049044 1.2073464,1.82466193 0.920857421,2.07704507 L0.194403233,1.29943214 L1.58592111,0 L2.67048652,0 L2.67048652,4.13362664 L3.77551542,4.13362664 Z M18.1818182,8.09331355 L18.1818182,10.0578094 C18.1818182,10.1464845 18.1494176,10.2232227 18.0846166,10.2880237 C18.0198155,10.3528248 17.9430774,10.3852254 17.8544022,10.3852254 L5.41259528,10.3852254 C5.32392012,10.3852254 5.24718201,10.3528248 5.18238093,10.2880237 C5.11757985,10.2232227 5.08517931,10.1464845 5.08517931,10.0578094 L5.08517931,8.09331355 C5.08517931,7.99781723 5.11587456,7.91937382 5.17726505,7.85798332 C5.23865555,7.79659283 5.31709896,7.76589758 5.41259528,7.76589758 L17.8544022,7.76589758 C17.9430774,7.76589758 18.0198155,7.79829812 18.0846166,7.8630992 C18.1494176,7.92790027 18.1818182,8.00463839 18.1818182,8.09331355 Z M18.1818182,2.854658 L18.1818182,4.81915383 C18.1818182,4.90782899 18.1494176,4.98456711 18.0846166,5.04936819 C18.0198155,5.11416927 17.9430774,5.14656981 17.8544022,5.14656981 L5.41259528,5.14656981 C5.32392012,5.14656981 5.24718201,5.11416927 5.18238093,5.04936819 C5.11757985,4.98456711 5.08517931,4.90782899 5.08517931,4.81915383 L5.08517931,2.854658 C5.08517931,2.76598284 5.11757985,2.68924473 5.18238093,2.62444365 C5.24718201,2.55964257 5.32392012,2.52724203 5.41259528,2.52724203 L17.8544022,2.52724203 C17.9430774,2.52724203 18.0198155,2.55964257 18.0846166,2.62444365 C18.1494176,2.68924473 18.1818182,2.76598284 18.1818182,2.854658 Z" id="Shape"></path>
        </g>
    </g>
</svg>