<?xml version="1.0" encoding="UTF-8"?>
<svg width="20px" height="20px" viewBox="0 0 20 20" version="1.1" xmlns="http://www.w3.org/2000/svg" xmlns:xlink="http://www.w3.org/1999/xlink">
    <!-- Generator: Sketch 50.2 (55047) - http://www.bohemiancoding.com/sketch -->
    <title>ic/underline</title>
    <desc>Created with Sketch.</desc>
    <defs></defs>
    <g id="ic/underline" stroke="none" stroke-width="1" fill="none" fill-rule="evenodd">
        <g id="ic-underline" transform="translate(3.000000, 3.000000)" fill="#333333" fill-rule="nonzero">
            <path d="M0.46875,0.927734375 C0.227864583,0.914713542 0.0813802083,0.901692708 0.029296875,0.888671875 L0,0.029296875 C0.0846354167,0.0227864583 0.21484375,0.01953125 0.390625,0.01953125 C0.78125,0.01953125 1.14583333,0.0325520833 1.484375,0.05859375 C2.34375,0.104166667 2.88411458,0.126953125 3.10546875,0.126953125 C3.66536458,0.126953125 4.21223958,0.1171875 4.74609375,0.09765625 C5.50130208,0.0716145833 5.9765625,0.0553385417 6.171875,0.048828125 C6.53645833,0.048828125 6.81640625,0.0423177083 7.01171875,0.029296875 L7.00195312,0.166015625 L7.02148438,0.791015625 L7.02148438,0.87890625 C6.63085938,0.9375 6.22721354,0.966796875 5.81054688,0.966796875 C5.41992188,0.966796875 5.16276042,1.04817708 5.0390625,1.2109375 C4.95442708,1.30208333 4.91210938,1.73177083 4.91210938,2.5 C4.91210938,2.58463542 4.91373698,2.69042969 4.91699219,2.81738281 C4.9202474,2.94433594 4.921875,3.02734375 4.921875,3.06640625 L4.93164062,5.30273438 L5.06835938,8.03710938 C5.10742188,8.84440104 5.2734375,9.50195312 5.56640625,10.0097656 C5.79427083,10.3938802 6.10677083,10.6933594 6.50390625,10.9082031 C7.07682292,11.2141927 7.65299479,11.3671875 8.23242188,11.3671875 C8.90950521,11.3671875 9.53125,11.2760417 10.0976562,11.09375 C10.4622396,10.9765625 10.7845052,10.8105469 11.0644531,10.5957031 C11.3769531,10.3613281 11.5885417,10.1529948 11.6992188,9.97070312 C11.9335938,9.60611979 12.1061198,9.23502604 12.2167969,8.85742188 C12.3535156,8.38216146 12.421875,7.63671875 12.421875,6.62109375 C12.421875,6.10677083 12.4104818,5.69010417 12.3876953,5.37109375 C12.3649089,5.05208333 12.3291016,4.65332031 12.2802734,4.17480469 C12.2314453,3.69628906 12.1875,3.17708333 12.1484375,2.6171875 L12.109375,2.04101562 C12.0768229,1.60481771 11.9986979,1.31835938 11.875,1.18164062 C11.6536458,0.953776042 11.4029948,0.843098958 11.1230469,0.849609375 L10.1464844,0.869140625 L10.0097656,0.83984375 L10.0292969,0 L10.8496094,0 L12.8515625,0.09765625 C13.3463542,0.1171875 13.984375,0.0846354167 14.765625,0 L14.9414062,0.01953125 C14.9804688,0.266927083 15,0.432942708 15,0.517578125 C15,0.563151042 14.9869792,0.6640625 14.9609375,0.8203125 C14.6679688,0.8984375 14.3945312,0.940755208 14.140625,0.947265625 C13.6653646,1.01888021 13.4082031,1.07421875 13.3691406,1.11328125 C13.2714844,1.2109375 13.2226562,1.34440104 13.2226562,1.51367188 C13.2226562,1.55924479 13.2275391,1.64713542 13.2373047,1.77734375 C13.2470703,1.90755208 13.2519531,2.00846354 13.2519531,2.08007812 C13.3040365,2.20377604 13.375651,3.49283854 13.4667969,5.94726562 C13.5058594,7.21679688 13.4570312,8.20638021 13.3203125,8.91601562 C13.2226562,9.41080729 13.0891927,9.80794271 12.9199219,10.1074219 C12.672526,10.530599 12.3079427,10.9309896 11.8261719,11.3085938 C11.3378906,11.6796875 10.7454427,11.969401 10.0488281,12.1777344 C9.33919271,12.3925781 8.50911458,12.5 7.55859375,12.5 C6.47135417,12.5 5.546875,12.3502604 4.78515625,12.0507812 C4.01041667,11.7447917 3.42773438,11.3476562 3.03710938,10.859375 C2.63997396,10.3645833 2.36979167,9.72981771 2.2265625,8.95507812 C2.12239583,8.43424479 2.0703125,7.66276042 2.0703125,6.640625 L2.0703125,3.38867188 C2.0703125,2.16471354 2.01497396,1.47135417 1.90429688,1.30859375 C1.74153646,1.07421875 1.26302083,0.947265625 0.46875,0.927734375 Z M15,14.6875 L15,14.0625 C15,13.9713542 14.9707031,13.8964844 14.9121094,13.8378906 C14.8535156,13.7792969 14.7786458,13.75 14.6875,13.75 L0.3125,13.75 C0.221354167,13.75 0.146484375,13.7792969 0.087890625,13.8378906 C0.029296875,13.8964844 0,13.9713542 0,14.0625 L0,14.6875 C0,14.7786458 0.029296875,14.8535156 0.087890625,14.9121094 C0.146484375,14.9707031 0.221354167,15 0.3125,15 L14.6875,15 C14.7786458,15 14.8535156,14.9707031 14.9121094,14.9121094 C14.9707031,14.8535156 15,14.7786458 15,14.6875 Z" id="Shape"></path>
        </g>
    </g>
</svg>