<?xml version="1.0" encoding="UTF-8"?>
<svg width="48px" height="48px" viewBox="0 0 48 48" version="1.1" xmlns="http://www.w3.org/2000/svg" xmlns:xlink="http://www.w3.org/1999/xlink">
    <!-- Generator: Sketch 50.2 (55047) - http://www.bohemiancoding.com/sketch -->
    <title>team/medium-selected</title>
    <desc>Created with Sketch.</desc>
    <defs></defs>
    <g id="team/medium-selected" stroke="none" stroke-width="1" fill="none" fill-rule="evenodd">
        <g id="Page-1" transform="translate(7.000000, 8.000000)" fill="#23598E">
            <path d="M3.25,12.4575 L13.25,12.4575 L13.25,3.0825 L3.25,3.0825 L3.25,12.4575 Z M14.5,0.5825 L2,0.5825 C1.30875,0.5825 0.75,1.14125 0.75,1.8325 L0.75,13.7075 C0.75,14.39875 1.30875,14.9575 2,14.9575 L14.5,14.9575 C15.19125,14.9575 15.75,14.39875 15.75,13.7075 L15.75,1.8325 C15.75,1.14125 15.19125,0.5825 14.5,0.5825 Z" id="Fill-1"></path>
            <path d="M20.75,12.4575 L30.75,12.4575 L30.75,3.0825 L20.75,3.0825 L20.75,12.4575 Z M32,0.5825 L19.5,0.5825 C18.80875,0.5825 18.25,1.14125 18.25,1.8325 L18.25,13.7075 C18.25,14.39875 18.80875,14.9575 19.5,14.9575 L32,14.9575 C32.69125,14.9575 33.25,14.39875 33.25,13.7075 L33.25,1.8325 C33.25,1.14125 32.69125,0.5825 32,0.5825 Z" id="Fill-3"></path>
            <path d="M3.25,29.3325 L13.25,29.3325 L13.25,19.9575 L3.25,19.9575 L3.25,29.3325 Z M14.5,17.4575 L2,17.4575 C1.30875,17.4575 0.75,18.01625 0.75,18.7075 L0.75,30.5825 C0.75,31.27375 1.30875,31.8325 2,31.8325 L14.5,31.8325 C15.19125,31.8325 15.75,31.27375 15.75,30.5825 L15.75,18.7075 C15.75,18.01625 15.19125,17.4575 14.5,17.4575 Z" id="Fill-4"></path>
            <path d="M20.75,29.3325 L30.75,29.3325 L30.75,19.9575 L20.75,19.9575 L20.75,29.3325 Z M32,17.4575 L19.5,17.4575 C18.80875,17.4575 18.25,18.01625 18.25,18.7075 L18.25,30.5825 C18.25,31.27375 18.80875,31.8325 19.5,31.8325 L32,31.8325 C32.69125,31.8325 33.25,31.27375 33.25,30.5825 L33.25,18.7075 C33.25,18.01625 32.69125,17.4575 32,17.4575 Z" id="Fill-5"></path>
        </g>
    </g>
</svg>