<?xml version="1.0" encoding="UTF-8"?>
<svg width="48px" height="48px" viewBox="0 0 48 48" version="1.1" xmlns="http://www.w3.org/2000/svg" xmlns:xlink="http://www.w3.org/1999/xlink">
    <!-- Generator: Sketch 50.2 (55047) - http://www.bohemiancoding.com/sketch -->
    <title>team/medium copy</title>
    <desc>Created with Sketch.</desc>
    <defs></defs>
    <g id="team/medium-copy" stroke="none" stroke-width="1" fill="none" fill-rule="evenodd">
        <g id="Page-1" transform="translate(7.000000, 8.000000)" fill="#727376">
            <path d="M3.25,6.8325 L7.41625,6.8325 L7.41625,3.0825 L3.25,3.0825 L3.25,6.8325 Z M8.66625,0.5825 L2,0.5825 C1.30875,0.5825 0.75,1.14125 0.75,1.8325 L0.75,8.0825 C0.75,8.77375 1.30875,9.3325 2,9.3325 L8.66625,9.3325 C9.3575,9.3325 9.91625,8.77375 9.91625,8.0825 L9.91625,1.8325 C9.91625,1.14125 9.3575,0.5825 8.66625,0.5825 Z" id="Fill-1"></path>
            <path d="M14.91625,6.8325 L19.0825,6.8325 L19.0825,3.0825 L14.91625,3.0825 L14.91625,6.8325 Z M20.3325,0.5825 L13.66625,0.5825 C12.975,0.5825 12.41625,1.14125 12.41625,1.8325 L12.41625,8.0825 C12.41625,8.77375 12.975,9.3325 13.66625,9.3325 L20.3325,9.3325 C21.02375,9.3325 21.5825,8.77375 21.5825,8.0825 L21.5825,1.8325 C21.5825,1.14125 21.02375,0.5825 20.3325,0.5825 Z" id="Fill-3"></path>
            <path d="M26.58375,6.8325 L30.75,6.8325 L30.75,3.0825 L26.58375,3.0825 L26.58375,6.8325 Z M32,0.5825 L25.33375,0.5825 C24.6425,0.5825 24.08375,1.14125 24.08375,1.8325 L24.08375,8.0825 C24.08375,8.77375 24.6425,9.3325 25.33375,9.3325 L32,9.3325 C32.69125,9.3325 33.25,8.77375 33.25,8.0825 L33.25,1.8325 C33.25,1.14125 32.69125,0.5825 32,0.5825 Z" id="Fill-4"></path>
            <path d="M3.25,17.905 L7.41625,17.905 L7.41625,14.155 L3.25,14.155 L3.25,17.905 Z M8.66625,11.655 L2,11.655 C1.30875,11.655 0.75,12.215 0.75,12.905 L0.75,19.155 C0.75,19.84625 1.30875,20.405 2,20.405 L8.66625,20.405 C9.3575,20.405 9.91625,19.84625 9.91625,19.155 L9.91625,12.905 C9.91625,12.215 9.3575,11.655 8.66625,11.655 Z" id="Fill-5"></path>
            <path d="M14.91625,17.905 L19.0825,17.905 L19.0825,14.155 L14.91625,14.155 L14.91625,17.905 Z M20.3325,11.655 L13.66625,11.655 C12.975,11.655 12.41625,12.215 12.41625,12.905 L12.41625,19.155 C12.41625,19.84625 12.975,20.405 13.66625,20.405 L20.3325,20.405 C21.02375,20.405 21.5825,19.84625 21.5825,19.155 L21.5825,12.905 C21.5825,12.215 21.02375,11.655 20.3325,11.655 Z" id="Fill-6"></path>
            <path d="M26.58375,17.905 L30.75,17.905 L30.75,14.155 L26.58375,14.155 L26.58375,17.905 Z M32,11.655 L25.33375,11.655 C24.6425,11.655 24.08375,12.215 24.08375,12.905 L24.08375,19.155 C24.08375,19.84625 24.6425,20.405 25.33375,20.405 L32,20.405 C32.69125,20.405 33.25,19.84625 33.25,19.155 L33.25,12.905 C33.25,12.215 32.69125,11.655 32,11.655 Z" id="Fill-7"></path>
            <path d="M3.25,29.3325 L7.41625,29.3325 L7.41625,25.5825 L3.25,25.5825 L3.25,29.3325 Z M8.66625,23.0825 L2,23.0825 C1.30875,23.0825 0.75,23.64125 0.75,24.3325 L0.75,30.5825 C0.75,31.27375 1.30875,31.8325 2,31.8325 L8.66625,31.8325 C9.3575,31.8325 9.91625,31.27375 9.91625,30.5825 L9.91625,24.3325 C9.91625,23.64125 9.3575,23.0825 8.66625,23.0825 Z" id="Fill-8"></path>
            <path d="M14.91625,29.3325 L19.0825,29.3325 L19.0825,25.5825 L14.91625,25.5825 L14.91625,29.3325 Z M20.3325,23.0825 L13.66625,23.0825 C12.975,23.0825 12.41625,23.64125 12.41625,24.3325 L12.41625,30.5825 C12.41625,31.27375 12.975,31.8325 13.66625,31.8325 L20.3325,31.8325 C21.02375,31.8325 21.5825,31.27375 21.5825,30.5825 L21.5825,24.3325 C21.5825,23.64125 21.02375,23.0825 20.3325,23.0825 Z" id="Fill-9"></path>
            <path d="M26.58375,29.3325 L30.75,29.3325 L30.75,25.5825 L26.58375,25.5825 L26.58375,29.3325 Z M32,23.0825 L25.33375,23.0825 C24.6425,23.0825 24.08375,23.64125 24.08375,24.3325 L24.08375,30.5825 C24.08375,31.27375 24.6425,31.8325 25.33375,31.8325 L32,31.8325 C32.69125,31.8325 33.25,31.27375 33.25,30.5825 L33.25,24.3325 C33.25,23.64125 32.69125,23.0825 32,23.0825 Z" id="Fill-10"></path>
        </g>
    </g>
</svg>