<?xml version="1.0" encoding="UTF-8"?>
<svg width="48px" height="48px" viewBox="0 0 48 48" version="1.1" xmlns="http://www.w3.org/2000/svg" xmlns:xlink="http://www.w3.org/1999/xlink">
    <!-- Generator: Sketch 50.2 (55047) - http://www.bohemiancoding.com/sketch -->
    <title>gallery/gallery-selected</title>
    <desc>Created with Sketch.</desc>
    <defs></defs>
    <g id="gallery/gallery-selected" stroke="none" stroke-width="1" fill="none" fill-rule="evenodd">
        <g id="Page-1" transform="translate(4.000000, 11.000000)" fill="#23598E">
            <path d="M3.11375,9.34125 L9.8975,9.34125 L9.8975,3.09125 L3.11375,3.09125 L3.11375,9.34125 Z M11.1475,0.59125 L1.86375,0.59125 C1.17375,0.59125 0.61375,1.15125 0.61375,1.84125 L0.61375,10.59125 C0.61375,11.2825 1.17375,11.84125 1.86375,11.84125 L11.1475,11.84125 C11.83875,11.84125 12.3975,11.2825 12.3975,10.59125 L12.3975,1.84125 C12.3975,1.15125 11.83875,0.59125 11.1475,0.59125 Z" id="Fill-1"></path>
            <path d="M17.3975,9.34125 L24.18125,9.34125 L24.18125,3.09125 L17.3975,3.09125 L17.3975,9.34125 Z M25.43125,0.59125 L16.1475,0.59125 C15.45625,0.59125 14.8975,1.15125 14.8975,1.84125 L14.8975,10.59125 C14.8975,11.2825 15.45625,11.84125 16.1475,11.84125 L25.43125,11.84125 C26.1225,11.84125 26.68125,11.2825 26.68125,10.59125 L26.68125,1.84125 C26.68125,1.15125 26.1225,0.59125 25.43125,0.59125 Z" id="Fill-3"></path>
            <path d="M31.68125,9.34125 L38.465,9.34125 L38.465,3.09125 L31.68125,3.09125 L31.68125,9.34125 Z M39.715,0.59125 L30.43125,0.59125 C29.74,0.59125 29.18125,1.15125 29.18125,1.84125 L29.18125,10.59125 C29.18125,11.2825 29.74,11.84125 30.43125,11.84125 L39.715,11.84125 C40.405,11.84125 40.965,11.2825 40.965,10.59125 L40.965,1.84125 C40.965,1.15125 40.405,0.59125 39.715,0.59125 Z" id="Fill-4"></path>
            <path d="M3.11375,22.90875 L9.8975,22.90875 L9.8975,16.65875 L3.11375,16.65875 L3.11375,22.90875 Z M11.1475,14.15875 L1.86375,14.15875 C1.17375,14.15875 0.61375,14.7175 0.61375,15.40875 L0.61375,24.15875 C0.61375,24.84875 1.17375,25.40875 1.86375,25.40875 L11.1475,25.40875 C11.83875,25.40875 12.3975,24.84875 12.3975,24.15875 L12.3975,15.40875 C12.3975,14.7175 11.83875,14.15875 11.1475,14.15875 Z" id="Fill-5"></path>
            <path d="M17.3975,22.90875 L24.18125,22.90875 L24.18125,16.65875 L17.3975,16.65875 L17.3975,22.90875 Z M25.43125,14.15875 L16.1475,14.15875 C15.45625,14.15875 14.8975,14.7175 14.8975,15.40875 L14.8975,24.15875 C14.8975,24.84875 15.45625,25.40875 16.1475,25.40875 L25.43125,25.40875 C26.1225,25.40875 26.68125,24.84875 26.68125,24.15875 L26.68125,15.40875 C26.68125,14.7175 26.1225,14.15875 25.43125,14.15875 Z" id="Fill-6"></path>
            <path d="M31.68125,22.90875 L38.465,22.90875 L38.465,16.65875 L31.68125,16.65875 L31.68125,22.90875 Z M39.715,14.15875 L30.43125,14.15875 C29.74,14.15875 29.18125,14.7175 29.18125,15.40875 L29.18125,24.15875 C29.18125,24.84875 29.74,25.40875 30.43125,25.40875 L39.715,25.40875 C40.405,25.40875 40.965,24.84875 40.965,24.15875 L40.965,15.40875 C40.965,14.7175 40.405,14.15875 39.715,14.15875 Z" id="Fill-7"></path>
        </g>
    </g>
</svg>