<?xml version="1.0" encoding="UTF-8"?>
<svg width="48px" height="48px" viewBox="0 0 48 48" version="1.1" xmlns="http://www.w3.org/2000/svg" xmlns:xlink="http://www.w3.org/1999/xlink">
    <!-- Generator: Sketch 50.2 (55047) - http://www.bohemiancoding.com/sketch -->
    <title>gallery/single-selected copy 2</title>
    <desc>Created with Sketch.</desc>
    <defs></defs>
    <g id="gallery/single-selected-copy-2" stroke="none" stroke-width="1" fill="none" fill-rule="evenodd">
        <g id="Page-1" transform="translate(4.000000, 8.000000)" fill="#23598E">
            <path d="M3.115,22.53375 L38.465,22.53375 L38.465,2.625 L3.115,2.625 L3.115,22.53375 Z M39.715,0.125 L1.86375,0.125 C1.17375,0.125 0.61375,0.68375 0.61375,1.375 L0.61375,23.78375 C0.61375,24.47375 1.17375,25.03375 1.86375,25.03375 L39.715,25.03375 C40.405,25.03375 40.965,24.47375 40.965,23.78375 L40.965,1.375 C40.965,0.68375 40.405,0.125 39.715,0.125 Z" id="Fill-1"></path>
            <path d="M20.79,28.25 C19.755,28.25 18.915,29.09 18.915,30.125 C18.915,31.16 19.755,32 20.79,32 C21.825,32 22.665,31.16 22.665,30.125 C22.665,29.09 21.825,28.25 20.79,28.25" id="Fill-3"></path>
            <path d="M27.04125,28.25 C26.00625,28.25 25.16625,29.09 25.16625,30.125 C25.16625,31.16 26.00625,32 27.04125,32 C28.07625,32 28.91625,31.16 28.91625,30.125 C28.91625,29.09 28.07625,28.25 27.04125,28.25" id="Fill-4"></path>
            <path d="M14.54125,28.25 C13.50625,28.25 12.66625,29.09 12.66625,30.125 C12.66625,31.16 13.50625,32 14.54125,32 C15.57625,32 16.41625,31.16 16.41625,30.125 C16.41625,29.09 15.57625,28.25 14.54125,28.25" id="Fill-5"></path>
        </g>
    </g>
</svg>