<?xml version="1.0" encoding="UTF-8"?>
<svg width="48px" height="48px" viewBox="0 0 48 48" version="1.1" xmlns="http://www.w3.org/2000/svg" xmlns:xlink="http://www.w3.org/1999/xlink">
    <!-- Generator: Sketch 50.2 (55047) - http://www.bohemiancoding.com/sketch -->
    <title>gallery/single-selected</title>
    <desc>Created with Sketch.</desc>
    <defs></defs>
    <g id="gallery/single-selected" stroke="none" stroke-width="1" fill="none" fill-rule="evenodd">
        <g id="Page-1" transform="translate(1.000000, 6.000000)" fill="#23598E">
            <path d="M11.037125,15.373 C12.304625,15.373 13.380875,14.92925 14.269625,14.03925 C15.158375,13.15175 15.602125,12.07425 15.602125,10.808 C15.602125,9.538 15.158375,8.45925 14.269625,7.573 C13.380875,6.6855 12.304625,6.24175 11.037125,6.24175 C9.768375,6.24175 8.689625,6.6855 7.800875,7.573 C6.913375,8.45925 6.472125,9.538 6.472125,10.808 C6.472125,12.07425 6.913375,13.15175 7.800875,14.03925 C8.689625,14.92925 9.768375,15.373 11.037125,15.373" id="Fill-1"></path>
            <polygon id="Fill-3" points="17.88525 22.22125 14.079 18.41625 6.4715 26.025 6.4715 30.59 39.95025 30.59 39.95025 19.94 30.059 10.045"></polygon>
            <path d="M3.11225,3.95825 C3.11225,3.6695 3.2235,3.407 3.436,3.19825 C3.63975,2.99325 3.89975,2.8845 4.18725,2.8845 L42.23475,2.8845 C42.52225,2.8845 42.78475,2.9945 42.99475,3.20575 C43.201,3.4095 43.30975,3.6695 43.30975,3.95825 L43.30975,32.8745 C43.30975,33.16325 43.1985,33.42575 42.986,33.6345 C42.78225,33.8395 42.52225,33.94825 42.23475,33.94825 L4.18725,33.94825 C3.89975,33.94825 3.63725,33.83825 3.42725,33.62575 C3.221,33.42325 3.11225,33.16325 3.11225,32.8745 L3.11225,3.95825 Z M44.701,1.4895 C44.011,0.80075 43.2035,0.46575 42.23475,0.46575 L4.18725,0.46575 C3.2185,0.46575 2.40975,0.802 1.7185,1.492 C1.0285,2.18325 0.6935,2.9895 0.6935,3.95825 L0.6935,32.8745 C0.6935,33.84325 1.02975,34.65075 1.721,35.342 C2.411,36.032 3.2185,36.367 4.18725,36.367 L42.23475,36.367 C43.2035,36.367 44.01225,36.03075 44.7035,35.3395 C45.3935,34.6495 45.7285,33.84325 45.7285,32.8745 L45.7285,3.95825 C45.7285,2.9895 45.39225,2.182 44.701,1.4895 Z" id="Fill-5"></path>
        </g>
    </g>
</svg>